<?xml version="1.0" encoding="UTF-8" standalone="no"?>
<!-- Uploaded to: SVG Repo, www.svgrepo.com, Generator: SVG Repo Mixer Tools -->

<svg
   version="1.0"
   id="Layer_1"
   width="793.89801"
   height="800"
   viewBox="0 0 63.511841 64"
   enable-background="new 0 0 64 64"
   xml:space="preserve"
   sodipodi:docname="horn-curve-variant-svgrepo-com.svg"
   inkscape:version="1.2.2 (732a01da63, 2022-12-09)"
   xmlns:inkscape="http://www.inkscape.org/namespaces/inkscape"
   xmlns:sodipodi="http://sodipodi.sourceforge.net/DTD/sodipodi-0.dtd"
   xmlns="http://www.w3.org/2000/svg"
   xmlns:svg="http://www.w3.org/2000/svg"><defs
   id="defs11" /><sodipodi:namedview
   id="namedview9"
   pagecolor="#b6b6b6"
   bordercolor="#000000"
   borderopacity="0.25"
   inkscape:showpageshadow="2"
   inkscape:pageopacity="0"
   inkscape:pagecheckerboard="true"
   inkscape:deskcolor="#d1d1d1"
   showgrid="false"
   inkscape:zoom="0.5025"
   inkscape:cx="551.24378"
   inkscape:cy="271.64179"
   inkscape:window-width="1920"
   inkscape:window-height="991"
   inkscape:window-x="-9"
   inkscape:window-y="-9"
   inkscape:window-maximized="1"
   inkscape:current-layer="Layer_1" />

<g
   style="fill:#ffffff"
   id="g317"
   transform="matrix(0.25507052,0,0,0.25507052,-0.24416856,3.391699e-5)"><g
     id="g306"
     style="fill:#ffffff">
	<g
   id="g304"
   style="fill:#ffffff">
		<path
   d="m 197.357,0.595 c -72.653,-8.282 -67.527,72.579 -57.922,73.571 9.605,0.997 15.575,-3.203 15.575,-3.203 -11.045,-18.118 11.04,-46.87 32.695,-37.117 17.673,7.959 15.026,45.511 -37.117,51.699 -27.363,3.244 -47.595,-2.397 -60.706,-8.5 C 77.539,59.105 62.32,48.301 46.773,48.301 c -2.025,0 -4.055,0.179 -6.027,0.544 -16.1,2.939 -28.527,17.044 -35.007,39.732 -5.753,20.133 -6.33,45.37 -1.649,71.069 9.649,52.879 37.992,91.265 67.388,91.265 2.02,0 4.047,-0.187 6.02,-0.549 16.096,-2.941 28.532,-17.052 35.017,-39.727 0.329,-1.165 0.578,-2.377 0.875,-3.573 36.811,-47.266 73.006,-54.991 105.69,-78.655 C 257.532,100.572 270.007,8.883 197.357,0.595 Z M 92.125,204.81 c -4.083,14.302 -10.796,23.307 -18.426,24.689 -16.257,3.055 -40.294,-27.418 -48.734,-73.67 -4.114,-22.556 -3.7,-44.379 1.173,-61.436 4.088,-14.297 10.793,-23.299 18.418,-24.684 0.728,-0.132 1.471,-0.2 2.224,-0.2 15.954,0 38.453,29.681 46.512,73.866 4.125,22.552 3.706,44.368 -1.167,61.435 z"
   id="path300"
   style="fill:#ffffff" />
		<path
   d="m 34.26,152.505 c -5.08,-27.827 1.947,-52.418 15.68,-54.919 13.74,-2.509 28.989,18.022 34.069,45.847 5.08,27.828 -1.947,52.414 -15.68,54.92 -13.74,2.506 -28.989,-18.02 -34.069,-45.848 z"
   id="path302"
   style="fill:#ffffff" />
	</g>
</g></g></svg>
