<?xml version="1.0" encoding="UTF-8" standalone="no"?>
<!-- Uploaded to: SVG Repo, www.svgrepo.com, Generator: SVG Repo Mixer Tools -->

<svg
   version="1.0"
   id="Layer_1"
   width="804.71698"
   height="800"
   viewBox="0 0 64.377358 64"
   enable-background="new 0 0 64 64"
   xml:space="preserve"
   sodipodi:docname="color-palette-svgrepo-com.svg"
   inkscape:version="1.2.2 (732a01da63, 2022-12-09)"
   xmlns:inkscape="http://www.inkscape.org/namespaces/inkscape"
   xmlns:sodipodi="http://sodipodi.sourceforge.net/DTD/sodipodi-0.dtd"
   xmlns="http://www.w3.org/2000/svg"
   xmlns:svg="http://www.w3.org/2000/svg"><defs
   id="defs11" /><sodipodi:namedview
   id="namedview9"
   pagecolor="#b6b6b6"
   bordercolor="#000000"
   borderopacity="0.25"
   inkscape:showpageshadow="2"
   inkscape:pageopacity="0"
   inkscape:pagecheckerboard="true"
   inkscape:deskcolor="#d1d1d1"
   showgrid="false"
   inkscape:zoom="0.5025"
   inkscape:cx="551.24378"
   inkscape:cy="271.64179"
   inkscape:window-width="1920"
   inkscape:window-height="991"
   inkscape:window-x="-9"
   inkscape:window-y="-9"
   inkscape:window-maximized="1"
   inkscape:current-layer="g331" />

<g
   style="fill:#000000"
   id="g347"
   transform="matrix(2.6666667,0,0,2.6666667,32.24,-5.3333334)"><g
     data-name="color-palette"
     id="g331"><path
       d="M 9.09445,5.6970684 A 12.731049,12.731049 0 0 0 -0.06086599,2.0013444 11.999141,11.999141 0 0 0 -0.12085599,25.999552 3.0957688,3.0957688 0 0 0 2.914917,23.731722 3.0237742,3.0237742 0 0 0 2.230968,20.995926 0.59995519,0.59995519 0 0 1 2.674936,20.000001 H 4.654783 A 7.3794488,7.3794488 0 0 0 12.046232,13.196509 10.17524,10.17524 0 0 0 9.094452,5.6970684 Z M -6.1444119,17.288203 a 1.7998655,1.7998655 0 1 1 0.4799642,-2.495813 1.7878665,1.7878665 0 0 1 -0.4799642,2.495813 z m 1.7518692,-6.587508 A 1.7998655,1.7998655 0 1 1 -5.0524934,8.3008739 1.7998655,1.7998655 0 0 1 -4.3925427,10.700695 Z M -1.152785,8.0008963 A 1.7998655,1.7998655 0 1 1 0.64708101,6.2010308 1.7998655,1.7998655 0 0 1 -1.152785,8.0008963 Z M 5.7467,8.9608247 A 1.7998655,1.7998655 0 1 1 6.40665,6.5610039 1.7998655,1.7998655 0 0 1 5.7467,8.9608247 Z"
       id="path329"
       style="fill:#ffffff;stroke-width:1" /></g></g></svg>
