<?xml version="1.0" encoding="UTF-8" standalone="no"?>
<!-- Uploaded to: SVG Repo, www.svgrepo.com, Generator: SVG Repo Mixer Tools -->

<svg
   version="1.0"
   id="Layer_1"
   width="800"
   height="800"
   viewBox="0 0 64 64"
   enable-background="new 0 0 64 64"
   xml:space="preserve"
   sodipodi:docname="globe-eu.svg"
   inkscape:version="1.2.2 (732a01da63, 2022-12-09)"
   xmlns:inkscape="http://www.inkscape.org/namespaces/inkscape"
   xmlns:sodipodi="http://sodipodi.sourceforge.net/DTD/sodipodi-0.dtd"
   xmlns="http://www.w3.org/2000/svg"
   xmlns:svg="http://www.w3.org/2000/svg"><defs
   id="defs11" /><sodipodi:namedview
   id="namedview9"
   pagecolor="#b6b6b6"
   bordercolor="#000000"
   borderopacity="0.25"
   inkscape:showpageshadow="2"
   inkscape:pageopacity="0"
   inkscape:pagecheckerboard="true"
   inkscape:deskcolor="#d1d1d1"
   showgrid="false"
   inkscape:zoom="0.5025"
   inkscape:cx="93.532338"
   inkscape:cy="271.64179"
   inkscape:window-width="1920"
   inkscape:window-height="991"
   inkscape:window-x="-9"
   inkscape:window-y="-9"
   inkscape:window-maximized="1"
   inkscape:current-layer="g331" />

<g
   style="fill:#000000"
   id="g347"
   transform="matrix(2.6666667,0,0,2.6666667,32.24,-5.3333334)"><g
     data-name="color-palette"
     id="g331"><g
       style="fill:#ffffff;stroke-width:0.96875"
       id="g411"
       transform="matrix(0.0483871,0,0,0.0483871,-12.090001,1.6129023)"><path
         d="M 248,8 C 111,8 0,119 0,256 0,393 111,504 248,504 385,504 496,393 496,256 496,119 385,8 248,8 Z m 200,248 c 0,22.5 -3.9,44.2 -10.8,64.4 h -20.3 c -4.3,0 -8.4,-1.7 -11.4,-4.8 l -32,-32.6 c -4.5,-4.6 -4.5,-12.1 0.1,-16.7 l 12.5,-12.5 v -8.7 c 0,-3 -1.2,-5.9 -3.3,-8 l -9.4,-9.4 c -2.1,-2.1 -5,-3.3 -8,-3.3 h -16 c -6.2,0 -11.3,-5.1 -11.3,-11.3 0,-3 1.2,-5.9 3.3,-8 l 9.4,-9.4 c 2.1,-2.1 5,-3.3 8,-3.3 h 32 c 6.2,0 11.3,-5.1 11.3,-11.3 v -9.4 c 0,-6.2 -5.1,-11.3 -11.3,-11.3 h -36.7 c -8.8,0 -16,7.2 -16,16 v 4.5 c 0,6.9 -4.4,13 -10.9,15.2 l -31.6,10.5 c -3.3,1.1 -5.5,4.1 -5.5,7.6 v 2.2 c 0,4.4 -3.6,8 -8,8 h -16 c -4.4,0 -8,-3.6 -8,-8 0,-4.4 -3.6,-8 -8,-8 H 247 c -3,0 -5.8,1.7 -7.2,4.4 l -9.4,18.7 c -2.7,5.4 -8.2,8.8 -14.3,8.8 H 194 c -8.8,0 -16,-7.2 -16,-16 V 199 c 0,-4.2 1.7,-8.3 4.7,-11.3 l 20.1,-20.1 c 4.6,-4.6 7.2,-10.9 7.2,-17.5 0,-3.4 2.2,-6.5 5.5,-7.6 l 40,-13.3 c 1.7,-0.6 3.2,-1.5 4.4,-2.7 l 26.8,-26.8 c 2.1,-2.1 3.3,-5 3.3,-8 0,-6.2 -5.1,-11.3 -11.3,-11.3 H 258 l -16,16 v 8 c 0,4.4 -3.6,8 -8,8 h -16 c -4.4,0 -8,-3.6 -8,-8 v -20 c 0,-2.5 1.2,-4.9 3.2,-6.4 L 242.1,56.3 C 244,56.2 245.9,56 247.8,56 358.3,56 448,145.7 448,256 Z M 130.1,149.1 c 0,-3 1.2,-5.9 3.3,-8 l 25.4,-25.4 c 2.1,-2.1 5,-3.3 8,-3.3 6.2,0 11.3,5.1 11.3,11.3 v 16 c 0,3 -1.2,5.9 -3.3,8 l -9.4,9.4 c -2.1,2.1 -5,3.3 -8,3.3 h -16 c -6.2,0 -11.3,-5.1 -11.3,-11.3 z m 128,306.4 v -7.1 c 0,-8.8 -7.2,-16 -16,-16 h -20.2 c -10.8,0 -26.7,-5.3 -35.4,-11.8 l -22.2,-16.7 c -11.5,-8.6 -18.2,-22.1 -18.2,-36.4 v -23.9 c 0,-16 8.4,-30.8 22.1,-39 l 42.9,-25.7 c 7.1,-4.2 15.2,-6.5 23.4,-6.5 h 31.2 c 10.9,0 21.4,3.9 29.6,10.9 l 43.2,37.1 h 18.3 c 8.5,0 16.6,3.4 22.6,9.4 l 17.3,17.3 c 3.4,3.4 8.1,5.3 12.9,5.3 H 423 c -32.4,58.9 -93.8,99.5 -164.9,103.1 z"
         id="path402"
         style="stroke-width:0.96875;fill:#ffffff" /></g></g></g></svg>
