<svg width="24" height="24" viewBox="0 0 24 24" fill="none" xmlns="http://www.w3.org/2000/svg">
    <path d="M 0.671875 0 C 0.2997858 0 0 0.2997858 0 0.671875 L 0 14.710938 C 0 15.083027 0.2997858 15.382812 0.671875 15.382812 L 9.328125 15.382812 C 9.7002142 15.382812 10 15.083027 10 14.710938 L 10 0.671875 C 10 0.2997858 9.7002142 0 9.328125 0 L 0.671875 0 z M 1.25 1.0332031 L 8.75 1.0332031 C 8.887973 1.0332031 9 1.1452302 9 1.2832031 L 9 3.125 C 9 3.262973 8.887973 3.3730469 8.75 3.3730469 L 1.25 3.3730469 C 1.112027 3.3730469 1 3.262973 1 3.125 L 1 1.2832031 C 1 1.1452302 1.112027 1.0332031 1.25 1.0332031 z M 1.2910156 3.9003906 L 8.7089844 3.9003906 C 8.8702228 3.9003906 9 4.0301679 9 4.1914062 L 9 4.7773438 C 9 4.9385821 8.8702228 5.0683594 8.7089844 5.0683594 L 1.2910156 5.0683594 C 1.1297772 5.0683594 1 4.9385821 1 4.7773438 L 1 4.1914062 C 1 4.0301679 1.1297772 3.9003906 1.2910156 3.9003906 z M 1.2910156 5.5957031 L 8.7089844 5.5957031 C 8.8702228 5.5957031 9 5.7254803 9 5.8867188 L 9 6.4746094 C 9 6.6358478 8.8702228 6.765625 8.7089844 6.765625 L 1.2910156 6.765625 C 1.1297772 6.765625 1 6.6358478 1 6.4746094 L 1 5.8867188 C 1 5.7254803 1.1297772 5.5957031 1.2910156 5.5957031 z M 1.2109375 8.9863281 L 8.7890625 8.9863281 C 8.9059987 8.9863281 9 9.0803294 9 9.1972656 L 9 9.3613281 C 9 9.4782644 8.9059987 9.5722656 8.7890625 9.5722656 L 1.2109375 9.5722656 C 1.0940013 9.5722656 1 9.4782644 1 9.3613281 L 1 9.1972656 C 1 9.0803294 1.0940013 8.9863281 1.2109375 8.9863281 z " fill="#1E293B"></path>
    <path opacity="0.3" d="M 0.671875 0 C 0.2997858 0 0 0.2997858 0 0.671875 L 0 14.710938 C 0 15.083027 0.2997858 15.382812 0.671875 15.382812 L 9.328125 15.382812 C 9.7002142 15.382812 10 15.083027 10 14.710938 L 10 0.671875 C 10 0.2997858 9.7002142 0 9.328125 0 L 0.671875 0 z M 1.25 1.0332031 L 8.75 1.0332031 C 8.887973 1.0332031 9 1.1452302 9 1.2832031 L 9 3.125 C 9 3.262973 8.887973 3.3730469 8.75 3.3730469 L 1.25 3.3730469 C 1.112027 3.3730469 1 3.262973 1 3.125 L 1 1.2832031 C 1 1.1452302 1.112027 1.0332031 1.25 1.0332031 z M 1.2910156 3.9003906 L 8.7089844 3.9003906 C 8.8702228 3.9003906 9 4.0301679 9 4.1914062 L 9 4.7773438 C 9 4.9385821 8.8702228 5.0683594 8.7089844 5.0683594 L 1.2910156 5.0683594 C 1.1297772 5.0683594 1 4.9385821 1 4.7773438 L 1 4.1914062 C 1 4.0301679 1.1297772 3.9003906 1.2910156 3.9003906 z M 1.2910156 5.5957031 L 8.7089844 5.5957031 C 8.8702228 5.5957031 9 5.7254803 9 5.8867188 L 9 6.4746094 C 9 6.6358478 8.8702228 6.765625 8.7089844 6.765625 L 1.2910156 6.765625 C 1.1297772 6.765625 1 6.6358478 1 6.4746094 L 1 5.8867188 C 1 5.7254803 1.1297772 5.5957031 1.2910156 5.5957031 z M 1.2109375 8.9863281 L 8.7890625 8.9863281 C 8.9059987 8.9863281 9 9.0803294 9 9.1972656 L 9 9.3613281 C 9 9.4782644 8.9059987 9.5722656 8.7890625 9.5722656 L 1.2109375 9.5722656 C 1.0940013 9.5722656 1 9.4782644 1 9.3613281 L 1 9.1972656 C 1 9.0803294 1.0940013 8.9863281 1.2109375 8.9863281 z " fill="#1E293B"></path>
    <path opacity="0.3" d="M 14.671875,8.617188 C 14.299786,8.617188 14,8.916974 14,9.289063 V 23.328126 C 14,23.700215 14.299786,24 14.671875,24 h 8.65625 C 23.700214,24 24,23.700215 24,23.328126 V 9.289063 C 24,8.916974 23.700214,8.617188 23.328125,8.617188 Z M 15.25,9.650391 h 7.5 c 0.137973,0 0.25,0.112027 0.25,0.25 v 1.841797 c 0,0.137973 -0.112027,0.248047 -0.25,0.248047 h -7.5 c -0.137973,0 -0.25,-0.110074 -0.25,-0.248047 V 9.900391 c 0,-0.137973 0.112027,-0.25 0.25,-0.25 z m 0.04102,2.867188 h 7.417968 C 22.870223,12.517579 23,12.647356 23,12.808594 v 0.585938 c 0,0.161238 -0.129777,0.291015 -0.291016,0.291015 H 15.291016 C 15.129777,13.685547 15,13.55577 15,13.394532 v -0.585938 c 0,-0.161238 0.129777,-0.291015 0.291016,-0.291015 z m 0,1.695312 h 7.417968 C 22.870223,14.212891 23,14.342668 23,14.503907 v 0.58789 c 0,0.161239 -0.129777,0.291016 -0.291016,0.291016 H 15.291016 C 15.129777,15.382813 15,15.253036 15,15.091797 v -0.58789 c 0,-0.161239 0.129777,-0.291016 0.291016,-0.291016 z m -0.08008,3.390625 h 7.578125 c 0.116937,0 0.210938,0.094 0.210938,0.210938 v 0.164062 c 0,0.116936 -0.094,0.210938 -0.210938,0.210938 H 15.210937 C 15.094001,18.189454 15,18.095452 15,17.978516 v -0.164062 c 0,-0.116937 0.094,-0.210938 0.210937,-0.210938 z" fill="#1E293B"></path>
</svg>