<?xml version="1.0" encoding="UTF-8" standalone="no"?>
<svg
   width="24.695"
   height="22.181999"
   viewBox="0 0 24.694999 22.181999"
   fill="none"
   version="1.1"
   id="svg9978"
   sodipodi:docname="security-audit.svg"
   xml:space="preserve"
   inkscape:version="1.2.2 (732a01da63, 2022-12-09)"
   xmlns:inkscape="http://www.inkscape.org/namespaces/inkscape"
   xmlns:sodipodi="http://sodipodi.sourceforge.net/DTD/sodipodi-0.dtd"
   xmlns="http://www.w3.org/2000/svg"
   xmlns:svg="http://www.w3.org/2000/svg"><defs
     id="defs9982" /><sodipodi:namedview
     id="namedview9980"
     pagecolor="#979797"
     bordercolor="#000000"
     borderopacity="0.25"
     inkscape:showpageshadow="2"
     inkscape:pageopacity="0"
     inkscape:pagecheckerboard="true"
     inkscape:deskcolor="#d1d1d1"
     showgrid="false"
     inkscape:zoom="2.8284273"
     inkscape:cx="41.719298"
     inkscape:cy="78.665626"
     inkscape:window-width="1920"
     inkscape:window-height="991"
     inkscape:window-x="-9"
     inkscape:window-y="-9"
     inkscape:window-maximized="1"
     inkscape:current-layer="svg9978" /><path
     id="path12502"
     style="fill:#1e293b;fill-opacity:1;stroke-width:185001"
     d="m 18.730254,3.5380804 c -0.44585,0.034401 -0.896828,0.1243792 -1.346489,0.2754179 -3.597278,1.20831 -4.964092,5.612765 -2.688958,8.6695927 -0.03002,0.02274 -0.05788,0.04814 -0.0844,0.07492 L 12.22893,14.95577 c -0.722455,0.753764 0.3754,1.860058 1.123415,1.132049 l 2.379466,-2.399782 c 0.02658,-0.02672 0.0518,-0.0548 0.07436,-0.08506 3.662311,2.767847 8.888835,0.133484 8.888835,-4.4795951 0,-3.3434086 -2.8438,-5.8261231 -5.964744,-5.5853168 z m 0.409976,1.5877041 c 5.29084,0 5.29084,7.9972495 0,7.9972495 -2.19154,0 -3.969128,-1.791252 -3.969128,-3.9996369 0,-2.2083847 1.777588,-3.9976126 3.969128,-3.9976126 z m 0.130629,2.0028566 c -1.033626,0 -1.73693,0.6213903 -2.156392,1.1705268 -0.210075,0.2750206 -0.31351,0.4138828 -0.31351,0.822204 0,0.4083227 0.103439,0.5451612 0.31351,0.8201782 0.419462,0.5491219 1.122766,1.1705279 2.156392,1.1705279 1.033631,0 1.738932,-0.621406 2.158401,-1.1705279 0.210069,-0.275017 0.313512,-0.4118555 0.313512,-0.8201782 0,-0.4083213 -0.103439,-0.5471834 -0.313512,-0.822204 C 21.009791,7.7500315 20.30449,7.1286411 19.270859,7.1286411 Z m 0,1.0571195 c 0.511884,0 0.928475,0.4197919 0.928475,0.9356114 0,0.5158172 -0.416591,0.933585 -0.928475,0.933585 -0.511885,0 -0.926465,-0.4177679 -0.926465,-0.933585 0,-0.5158195 0.41458,-0.9356114 0.926465,-0.9356114 z m 0,0.3746495 c -0.307131,0 -0.554672,0.2514699 -0.554672,0.5609619 0,0.3094921 0.247541,0.5589371 0.554672,0.5589371 0.307132,0 0.556682,-0.249445 0.556682,-0.5589371 0,-0.309492 -0.24955,-0.5609619 -0.556682,-0.5609619 z" /><path
     opacity="0.4"
     d="M 8.4165269,-0.22873087 2.1694376,2.1290742 C 0.97681139,2.5754548 -6.2e-6,4.0061502 -6.2e-6,5.2880636 v 9.2709474 c 0,0.927097 0.60199219,2.151782 1.3402846,2.701174 l 6.2470895,4.704165 c 1.1017594,0.835532 2.9077711,0.835532 4.0095301,0 l 6.247089,-4.704165 c 0.738292,-0.560837 1.340285,-1.774077 1.340285,-2.701174 V 5.2880636 c 0,-1.2819134 -0.976818,-2.7126088 -2.169443,-3.1589895 l -6.24709,-2.35780497 c -0.647426,-0.24035877 -1.7037861,-0.24035877 -2.3512121,0 z"
     fill="#292d32"
     id="path12513"
     style="fill:#1b2539;fill-opacity:0.298039;stroke-width:89766.4" /></svg>
