<?xml version="1.0" encoding="UTF-8" standalone="no"?>
<svg
   width="24"
   height="22.181999"
   viewBox="0 0 24 22.181999"
   fill="none"
   version="1.1"
   id="svg9978"
   sodipodi:docname="security-audit.svg"
   xml:space="preserve"
   inkscape:version="1.2.2 (732a01da63, 2022-12-09)"
   xmlns:inkscape="http://www.inkscape.org/namespaces/inkscape"
   xmlns:sodipodi="http://sodipodi.sourceforge.net/DTD/sodipodi-0.dtd"
   xmlns="http://www.w3.org/2000/svg"
   xmlns:svg="http://www.w3.org/2000/svg"><defs
     id="defs9982" /><sodipodi:namedview
     id="namedview9980"
     pagecolor="#979797"
     bordercolor="#000000"
     borderopacity="0.25"
     inkscape:showpageshadow="2"
     inkscape:pageopacity="0"
     inkscape:pagecheckerboard="true"
     inkscape:deskcolor="#d1d1d1"
     showgrid="false"
     inkscape:zoom="16.75"
     inkscape:cx="7.8208955"
     inkscape:cy="14.656716"
     inkscape:window-width="1920"
     inkscape:window-height="991"
     inkscape:window-x="-9"
     inkscape:window-y="-9"
     inkscape:window-maximized="1"
     inkscape:current-layer="g12255" /><g
     style="fill:#000000;stroke-width:33.206"
     id="g12268"
     transform="matrix(0.09638662,0,0,0.09565135,-0.09226539,2.4620156e-5)"><g
       id="g12257"
       style="stroke-width:33.206">
	<g
   id="g12255"
   style="stroke-width:33.206">
		
		
	<g
   id="g12961"
   transform="translate(-126.00894,-499.92497)"><path
     fill="#000000"
     fill-rule="evenodd"
     d="m 319.94897,555.72421 c 53.34707,0 53.34707,80.63573 0,80.63573 -22.0971,0 -40.01029,-18.05091 -40.01029,-40.31786 0,-22.26694 17.91319,-40.31787 40.01029,-40.31787 z m 56.01443,40.31787 c 0,-38.52718 -37.45666,-65.73151 -73.72768,-53.54823 -36.27102,12.18328 -50.03826,56.5935 -27.09829,87.41523 -0.30264,0.22926 -0.58879,0.47988 -0.85622,0.74993 l -24.00619,24.19072 c -7.28445,7.60013 3.77277,18.74233 11.31492,11.40188 l 24.00618,-24.19072 c 0.26803,-0.26948 0.51672,-0.55781 0.74419,-0.8628 36.92675,27.90795 89.62309,1.35725 89.62309,-45.15601 z"
     id="path12502"
     style="fill:#1e293b;fill-opacity:1;stroke-width:185001"
     sodipodi:nodetypes="ssssssccccccs" /><g
     style="fill:#1b2539;fill-opacity:0.298039;stroke-width:1002.72"
     id="g12528"
     transform="matrix(11.452503,0,0,11.540538,103.94929,476.81451)"><path
       opacity="0.4"
       d="m 9.41977,2.15994 -5.5,2.06 c -1.05,0.39 -1.91,1.63999 -1.91,2.75999 v 8.09997 c 0,0.81 0.53,1.88 1.18,2.36 l 5.5,4.11 c 0.97,0.73 2.56003,0.73 3.53003,0 l 5.5,-4.11 c 0.65,-0.49 1.18,-1.55 1.18,-2.36 V 6.97993 c 0,-1.12 -0.86,-2.36999 -1.91,-2.75999 l -5.5,-2.06 c -0.57,-0.21 -1.50003,-0.21 -2.07003,0 z"
       fill="#292d32"
       id="path12513"
       style="fill:#1b2539;fill-opacity:0.298039;stroke-width:7808.19" /></g><g
     style="fill:#1d283b;fill-opacity:1;stroke-width:61624.3"
     id="g12749"
     transform="matrix(2.4921754,0,0,2.5113327,291.37542,565.87179)"><path
       d="m 9.75,12 c 0,-1.2426 1.0074,-2.25 2.25,-2.25 1.2426,0 2.25,1.0074 2.25,2.25 0,1.2426 -1.0074,2.25 -2.25,2.25 -1.2426,0 -2.25,-1.0074 -2.25,-2.25 z"
       fill="#1c274c"
       id="path12737"
       style="fill:#1d283b;fill-opacity:1;stroke-width:907768" /><path
       fill-rule="evenodd"
       clip-rule="evenodd"
       d="m 2,12 c 0,1.6394 0.42496,2.1915 1.27489,3.2957 C 4.97196,17.5004 7.81811,20 12,20 16.1819,20 19.028,17.5004 20.7251,15.2957 21.575,14.1915 22,13.6394 22,12 22,10.3606 21.575,9.80853 20.7251,8.70433 19.028,6.49956 16.1819,4 12,4 7.81811,4 4.97196,6.49956 3.27489,8.70433 2.42496,9.80853 2,10.3606 2,12 Z M 12,8.25 c -2.07107,0 -3.75,1.67893 -3.75,3.75 0,2.0711 1.67893,3.75 3.75,3.75 2.0711,0 3.75,-1.6789 3.75,-3.75 0,-2.07107 -1.6789,-3.75 -3.75,-3.75 z"
       fill="#1c274c"
       id="path12739"
       style="fill:#1d283b;fill-opacity:1;stroke-width:907768" /></g></g></g>
</g></g></svg>
