<?xml version="1.0" encoding="UTF-8" standalone="no"?>
<!-- Uploaded to: SVG Repo, www.svgrepo.com, Generator: SVG Repo Mixer Tools -->

<svg
   version="1.0"
   id="Layer_1"
   width="600"
   height="800"
   viewBox="0 0 48 64"
   enable-background="new 0 0 64 64"
   xml:space="preserve"
   sodipodi:docname="server-svgrepo-com.svg"
   inkscape:version="1.2.2 (732a01da63, 2022-12-09)"
   xmlns:inkscape="http://www.inkscape.org/namespaces/inkscape"
   xmlns:sodipodi="http://sodipodi.sourceforge.net/DTD/sodipodi-0.dtd"
   xmlns="http://www.w3.org/2000/svg"
   xmlns:svg="http://www.w3.org/2000/svg"><defs
   id="defs11" /><sodipodi:namedview
   id="namedview9"
   pagecolor="#b6b6b6"
   bordercolor="#000000"
   borderopacity="0.25"
   inkscape:showpageshadow="2"
   inkscape:pageopacity="0"
   inkscape:pagecheckerboard="true"
   inkscape:deskcolor="#d1d1d1"
   showgrid="false"
   inkscape:zoom="0.71064232"
   inkscape:cx="287.06425"
   inkscape:cy="332.79752"
   inkscape:window-width="1920"
   inkscape:window-height="991"
   inkscape:window-x="-9"
   inkscape:window-y="-9"
   inkscape:window-maximized="1"
   inkscape:current-layer="Layer_1" />
<g
   id="g6"
   style="fill:#ffffff"
   transform="translate(-8)">
	<path
   fill="#231F20"
   d="m 8,60 c 0,2.211 1.789,4 4,4 h 40 c 2.211,0 4,-1.789 4,-4 V 24 H 8 Z M 32,44 c 2.211,0 4,1.793 4,4 0,2.211 -1.789,4 -4,4 -2.211,0 -4,-1.789 -4,-4 0,-2.207 1.789,-4 4,-4 z"
   id="path2"
   style="fill:#ffffff" />
	<path
   fill="#231F20"
   d="M 52,0 H 12 C 9.789,0 8,1.793 8,4 V 16 H 56 V 4 C 56,1.793 54.211,0 52,0 Z"
   id="path4"
   style="fill:#ffffff" />
</g>
</svg>
