<?xml version="1.0" encoding="UTF-8" standalone="no"?>
<!-- Uploaded to: SVG Repo, www.svgrepo.com, Generator: SVG Repo Mixer Tools -->

<svg
   fill="#000000"
   height="800"
   width="680.09698"
   version="1.1"
   id="Capa_1"
   viewBox="0 0 406.06466 477.655"
   xml:space="preserve"
   sodipodi:docname="support.svg"
   inkscape:version="1.2.2 (732a01da63, 2022-12-09)"
   xmlns:inkscape="http://www.inkscape.org/namespaces/inkscape"
   xmlns:sodipodi="http://sodipodi.sourceforge.net/DTD/sodipodi-0.dtd"
   xmlns="http://www.w3.org/2000/svg"
   xmlns:svg="http://www.w3.org/2000/svg"><defs
   id="defs13" /><sodipodi:namedview
   id="namedview11"
   pagecolor="#ffffff"
   bordercolor="#000000"
   borderopacity="0.25"
   inkscape:showpageshadow="2"
   inkscape:pageopacity="0.0"
   inkscape:pagecheckerboard="0"
   inkscape:deskcolor="#d1d1d1"
   showgrid="false"
   inkscape:zoom="0.71064232"
   inkscape:cx="201.22641"
   inkscape:cy="479.144"
   inkscape:window-width="1920"
   inkscape:window-height="991"
   inkscape:window-x="-9"
   inkscape:window-y="-9"
   inkscape:window-maximized="1"
   inkscape:current-layer="Capa_1" />
<g
   id="g8"
   transform="translate(-35.795254,2.2041856e-5)"
   style="fill:#ffffff">
	<path
   d="m 440.367,440.415 -10.173,-29.91 c -19.102,-56.262 -70.83,-94.605 -129.763,-97.121 -5.187,4.03 -10.655,7.493 -16.322,10.521 -8.449,22.185 -36.836,28.195 -53.468,11.205 -19.676,-1.738 -37.69,-9.511 -53.422,-21.725 -58.933,2.508 -110.647,40.851 -129.763,97.121 L 37.3,440.415 c -2.936,8.603 -1.522,18.084 3.774,25.469 5.279,7.391 13.821,11.771 22.906,11.771 h 349.693 c 9.083,0 17.626,-4.379 22.906,-11.771 5.294,-7.385 6.707,-16.866 3.788,-25.469 z"
   id="path2"
   style="fill:#ffffff" />
	<path
   d="m 277.758,290.619 c 34.212,-24.047 58.141,-77.151 58.141,-128.491 0,-145.907 -194.133,-145.752 -194.133,0 0,62.397 35.33,127.303 81.546,139.556 4.456,-12.626 16.382,-21.757 30.515,-21.757 9.504,-0.001 17.983,4.168 23.931,10.692 z"
   id="path4"
   style="fill:#ffffff" />
	<path
   d="m 99.169,223.042 c 4.813,18.906 31.044,13.704 31.044,-3.805 0,-70.178 3.354,-76.731 -6.041,-84.348 21.507,-132.528 206.774,-131.534 229.323,0.015 -9.381,7.641 -6.025,14.163 -6.025,84.333 0,5.489 2.95,10.095 7.189,12.952 0,54.594 -22.145,51.402 -88.736,69.052 -10.295,-11.174 -28.683,-3.899 -28.683,11.173 0,18.876 27.053,23.293 32.302,4.318 53.762,-14.256 101.018,-18.752 101.018,-72.484 v -11.027 c 3.991,-2.066 6.817,-5.729 7.951,-10.179 51.822,-1.056 51.838,-78.719 0,-79.775 -1.072,-4.24 -3.711,-7.703 -7.423,-9.815 1.336,-15.902 -1.94,-36.805 -11.057,-56.985 -63.405,-130.835 -250.676,-79.643 -253.609,47.155 -0.404,4.294 -0.078,7.338 0.17,9.83 -3.712,2.112 -6.351,5.575 -7.423,9.815 -21.71,0.419 -39.212,18.084 -39.212,39.888 0,21.803 17.502,39.467 39.212,39.887 z"
   id="path6"
   style="fill:#ffffff" />
</g>
</svg>
