<?xml version="1.0" encoding="UTF-8" standalone="no"?>
<!-- Created with Inkscape (http://www.inkscape.org/) -->

<svg
   width="17.808001mm"
   height="20mm"
   viewBox="0 0 17.808 20"
   version="1.1"
   id="svg5"
   xml:space="preserve"
   inkscape:version="1.2.2 (732a01da63, 2022-12-09)"
   sodipodi:docname="expo-client.svg"
   xmlns:inkscape="http://www.inkscape.org/namespaces/inkscape"
   xmlns:sodipodi="http://sodipodi.sourceforge.net/DTD/sodipodi-0.dtd"
   xmlns="http://www.w3.org/2000/svg"
   xmlns:svg="http://www.w3.org/2000/svg"><sodipodi:namedview
     id="namedview7"
     pagecolor="#ffffff"
     bordercolor="#000000"
     borderopacity="0.25"
     inkscape:showpageshadow="2"
     inkscape:pageopacity="0.0"
     inkscape:pagecheckerboard="true"
     inkscape:deskcolor="#d1d1d1"
     inkscape:document-units="mm"
     showgrid="false"
     inkscape:zoom="2.8649832"
     inkscape:cx="125.30615"
     inkscape:cy="43.106711"
     inkscape:window-width="1920"
     inkscape:window-height="991"
     inkscape:window-x="-9"
     inkscape:window-y="-9"
     inkscape:window-maximized="1"
     inkscape:current-layer="g1224" /><defs
     id="defs2" /><g
     inkscape:label="Layer 1"
     inkscape:groupmode="layer"
     id="layer1"><g
       style="fill:none;stroke-width:0.423333"
       id="g1224"
       transform="matrix(0.62499999,0,0,0.62499999,8.8305636,-0.73312988)"><path
         d="m 13.034241,13.573065 a 2.7976224,2.7976224 0 0 0 -1.091726,-0.910798 2.8259311,2.8259311 0 0 0 -2.7533129,0.19693 2.787776,2.787776 0 0 0 -0.9477201,1.057262 2.4813054,2.4813054 0 0 0 0.4824751,2.798854 4.1133544,4.1133544 0 0 0 2.7446979,-0.775408 4.0481216,4.0481216 0 0 0 1.564354,-2.36684 z M 4.7029141,2.7727393 2.9182452,1.802864 l -7.7663876,4.2844365 0.619096,0.3323176 1.1778809,0.6129415 2.1317559,-1.1741891 5.6235537,-3.1053242 z m 0.71879,-0.2953935 a 0.2769314,0.2769314 0 0 1 0.19693,0.1846209 L 8.220559,10.270811 a 0.25231527,0.25231527 0 0 1 -0.123088,0.331087 5.0007656,5.0007656 0 0 0 -2.2129889,2.429612 4.9441487,4.9441487 0 0 0 -0.215392,3.26779 5.2715431,5.2715431 0 0 0 2.1600648,2.870241 c 1.0363402,0.676942 2.2794521,0.972336 3.5127201,0.836947 a 0.33108688,0.33108688 0 0 1 0.322472,0.19693 l 2.688081,7.809465 a 0.31508639,0.31508639 0 0 1 -0.12432,0.342165 l -8.26117,4.787835 A 0.31139398,0.31139398 0 0 1 5.8426181,33.167491 0.33231768,0.33231768 0 0 1 5.619842,33.130564 L 2.7213152,31.327444 A 0.28800864,0.28800864 0 0 1 2.5982433,31.204356 l -5.6617168,-12.902534 -8.6217975,4.861685 a 0.40247364,0.40247364 0 0 1 -0.33478,0.01232 l -1.959444,-1.105276 a 0.28308543,0.28308543 0 0 1 -0.123081,-0.368012 L -5.7269384,5.9482193 a 0.29908591,0.29908591 0 0 1 0.135389,-0.1218497 L 2.7594713,1.2096155 a 0.3187788,0.3187788 0 0 1 0.2966239,0 l 2.3668399,1.2677303 z m -10.3560025,4.2327427 -0.406167,-0.2080063 -8.0740886,15.2373818 1.473275,0.822178 6.9626705,-9.027964 a 0.33847171,0.33847171 0 0 1 0.2843171,-0.12308 0.34708735,0.34708735 0 0 1 0.247392,0.183391 l 7.5817656,17.31252 2.0259069,1.239422 -8.1380906,-23.5822484 -0.345856,-0.9821835 -1.6222029,-0.8837188 0.0123,0.012304 z M 7.552231,15.795901 a 3.0893236,3.0893236 0 0 1 0.147696,-2.046831 3.1262477,3.1262477 0 0 1 1.4006571,-1.513892 3.4437958,3.4437958 0 0 1 4.0136599,0.492323 3.0930161,3.0930161 0 0 1 0.08986,4.391516 l -0.08986,0.08985 A 3.4093331,3.4093331 0 0 1 8.4519491,17.221187 3.3465621,3.3465621 0 0 1 7.552231,15.795913 Z"
         fill="#000000"
         id="path1255"
         style="stroke-width:0.145604;fill:#ffffff" /></g></g><style
     type="text/css"
     id="style1045">
	.st0{fill:#2DBCAF;}
	.st1{fill:#5DC9E1;}
	.st2{fill:#FDDD00;}
	.st3{fill:#CE3262;}
	.st4{fill:#00ACD7;}
	.st5{fill:#FFFFFF;}
</style><style
     type="text/css"
     id="style1045-1">
	.st0{fill:#2DBCAF;}
	.st1{fill:#5DC9E1;}
	.st2{fill:#FDDD00;}
	.st3{fill:#CE3262;}
	.st4{fill:#00ACD7;}
	.st5{fill:#FFFFFF;}
</style></svg>
