<?xml version="1.0" encoding="UTF-8" standalone="no"?>
<!-- Created with Inkscape (http://www.inkscape.org/) -->

<svg
   width="19.92mm"
   height="20mm"
   viewBox="0 0 19.92 20"
   version="1.1"
   id="svg5"
   xml:space="preserve"
   inkscape:version="1.2.2 (732a01da63, 2022-12-09)"
   sodipodi:docname="expo.svg"
   xmlns:inkscape="http://www.inkscape.org/namespaces/inkscape"
   xmlns:sodipodi="http://sodipodi.sourceforge.net/DTD/sodipodi-0.dtd"
   xmlns="http://www.w3.org/2000/svg"
   xmlns:svg="http://www.w3.org/2000/svg"><sodipodi:namedview
     id="namedview7"
     pagecolor="#ffffff"
     bordercolor="#000000"
     borderopacity="0.25"
     inkscape:showpageshadow="2"
     inkscape:pageopacity="0.0"
     inkscape:pagecheckerboard="true"
     inkscape:deskcolor="#d1d1d1"
     inkscape:document-units="mm"
     showgrid="false"
     inkscape:zoom="2.8649832"
     inkscape:cx="107.85404"
     inkscape:cy="71.030086"
     inkscape:window-width="1920"
     inkscape:window-height="991"
     inkscape:window-x="-9"
     inkscape:window-y="-9"
     inkscape:window-maximized="1"
     inkscape:current-layer="g1224" /><defs
     id="defs2" /><g
     inkscape:label="Layer 1"
     inkscape:groupmode="layer"
     id="layer1"><g
       style="fill:none;stroke-width:0.423333"
       id="g1224"
       transform="matrix(0.62499999,0,0,0.62499999,8.8305636,-0.73312988)"><g
         id="g904"
         transform="translate(-14.128649,1.1728626)"><path
           d="m 31.034,4.132 a 6.088,6.088 0 0 1 -6.002,5.075 c -0.164,0 -0.324,0 -0.484,-0.021 a 4.144,4.144 0 0 0 6.486,-5.054 z"
           fill="#000000"
           id="path1177"
           style="fill:#ffffff;stroke-width:0.179211" /><path
           fill-rule="evenodd"
           clip-rule="evenodd"
           d="m 27.468,2.36 a 3.8865,3.8865 0 1 0 0,7.773 3.886,3.886 0 0 0 0,-7.772 z m -4.402,3.887 a 4.403,4.403 0 1 1 8.805,0 4.403,4.403 0 0 1 -8.805,0 z"
           fill="#000000"
           id="path1175"
           style="stroke-width:0.179211" /><path
           fill-rule="evenodd"
           clip-rule="evenodd"
           d="m 0.171,7.905 a 0.258,0.258 0 0 1 0.258,0 l 13.551,7.87 c 0.08,0.047 0.129,0.132 0.129,0.224 v 15.743 a 0.258,0.258 0 0 1 -0.388,0.223 L 0.129,24.095 A 0.258,0.258 0 0 1 0,23.87 L 0.041,8.128 c 0,-0.092 0.05,-0.177 0.13,-0.223 z m 0.386,0.672 -0.04,15.146 13.075,7.57 V 16.149 Z"
           fill="#000000"
           id="path1181"
           style="stroke-width:0.179211" /><path
           fill-rule="evenodd"
           clip-rule="evenodd"
           d="m 13.742,0.035 a 0.258,0.258 0 0 1 0.259,0 l 6.773,3.936 a 0.258,0.258 0 0 1 0,0.447 l -6.408,3.71 6.408,3.713 a 0.258,0.258 0 0 1 0,0.447 l -6.794,3.935 a 0.258,0.258 0 0 1 -0.26,0 L 0.17,8.351 a 0.258,0.258 0 0 1 0,-0.447 z M 0.813,8.129 13.851,15.7 20.129,12.064 13.721,8.351 a 0.258,0.258 0 0 1 0,-0.447 L 20.13,4.193 13.87,0.557 0.815,8.129 Z"
           fill="#000000"
           id="path1185"
           style="stroke-width:0.179211" /><path
           d="m 20.645,12.065 v 7.87 L 27.44,16 l 0.041,7.872 -13.632,7.87 V 16 l 6.795,-3.934 z"
           fill="#000000"
           id="path1187"
           style="fill:#ffffff;stroke-width:0.179211" /><path
           fill-rule="evenodd"
           clip-rule="evenodd"
           d="m 20.774,11.841 c 0.08,0.046 0.129,0.132 0.129,0.224 v 7.422 l 6.408,-3.711 a 0.258,0.258 0 0 1 0.388,0.222 l 0.041,7.872 a 0.258,0.258 0 0 1 -0.129,0.225 l -13.632,7.87 A 0.258,0.258 0 0 1 13.592,31.742 V 15.999 c 0,-0.092 0.05,-0.177 0.129,-0.223 l 6.794,-3.935 a 0.258,0.258 0 0 1 0.259,0 z m -6.665,4.307 v 15.146 l 13.114,-7.571 -0.038,-7.277 -6.41,3.713 a 0.258,0.258 0 0 1 -0.389,-0.224 v -7.422 z"
           fill="#000000"
           id="path1189"
           style="stroke-width:0.179211" /><path
           d="m 20.645,4.194 v 7.87 L 13.85,8.13 20.645,4.195 Z"
           fill="#000000"
           id="path1191"
           style="fill:#ffffff;stroke-width:0.179211" /><path
           fill-rule="evenodd"
           clip-rule="evenodd"
           d="m 20.774,3.97 c 0.08,0.047 0.129,0.132 0.129,0.224 v 7.87 a 0.258,0.258 0 0 1 -0.388,0.224 L 13.721,8.352 a 0.258,0.258 0 0 1 0,-0.447 l 6.794,-3.934 a 0.258,0.258 0 0 1 0.259,0 z m -6.408,4.16 6.02,3.488 V 4.642 l -6.02,3.487 z"
           fill="#000000"
           id="path1193"
           style="stroke-width:0.179211" /><path
           d="m 20.645,12.065 6.796,3.934 -6.796,3.936 z"
           fill="#ffffff"
           id="path1195"
           style="stroke-width:0.179211" /><path
           fill-rule="evenodd"
           clip-rule="evenodd"
           d="m 20.516,11.841 a 0.258,0.258 0 0 1 0.258,0 l 6.796,3.935 a 0.258,0.258 0 0 1 0,0.447 l -6.796,3.936 a 0.258,0.258 0 0 1 -0.388,-0.224 v -7.87 c 0,-0.092 0.05,-0.178 0.13,-0.224 z m 0.387,0.672 v 6.974 L 26.925,16 20.903,12.514 Z M 0.035,16.09 a 0.258,0.258 0 0 1 0.353,-0.094 l 13.59,7.87 a 0.25873973,0.25873973 0 0 1 -0.259,0.448 L 0.13,16.444 A 0.258,0.258 0 0 1 0.036,16.09 Z"
           fill="#000000"
           id="path1197"
           style="stroke-width:0.179211" /><path
           fill-rule="evenodd"
           clip-rule="evenodd"
           d="M 20.858,4.065 A 0.258,0.258 0 0 1 20.764,4.418 L 7.323,12.214 v 15.6 a 0.2585,0.2585 0 0 1 -0.517,0 v -15.75 c 0,-0.091 0.05,-0.176 0.13,-0.223 l 13.569,-7.87 a 0.258,0.258 0 0 1 0.353,0.094 z"
           fill="#000000"
           id="path1199"
           style="stroke-width:0.179211" /><path
           fill-rule="evenodd"
           clip-rule="evenodd"
           d="M 6.845,4.074 A 0.258,0.258 0 0 1 7.198,3.979 l 13.576,7.862 a 0.25830699,0.25830699 0 1 1 -0.259,0.447 L 6.94,4.426 A 0.258,0.258 0 0 1 6.846,4.074 Z"
           fill="#000000"
           id="path1201"
           style="stroke-width:0.179211" /></g></g></g><style
     type="text/css"
     id="style1045">
	.st0{fill:#2DBCAF;}
	.st1{fill:#5DC9E1;}
	.st2{fill:#FDDD00;}
	.st3{fill:#CE3262;}
	.st4{fill:#00ACD7;}
	.st5{fill:#FFFFFF;}
</style></svg>
