<?xml version="1.0" encoding="UTF-8" standalone="no"?>
<!-- Created with Inkscape (http://www.inkscape.org/) -->

<svg
   width="67.735001mm"
   height="20mm"
   viewBox="0 0 67.734998 20"
   version="1.1"
   id="svg5"
   xml:space="preserve"
   inkscape:version="1.2.2 (732a01da63, 2022-12-09)"
   sodipodi:docname="nodejs.svg"
   xmlns:inkscape="http://www.inkscape.org/namespaces/inkscape"
   xmlns:sodipodi="http://sodipodi.sourceforge.net/DTD/sodipodi-0.dtd"
   xmlns="http://www.w3.org/2000/svg"
   xmlns:svg="http://www.w3.org/2000/svg"><sodipodi:namedview
     id="namedview7"
     pagecolor="#ffffff"
     bordercolor="#000000"
     borderopacity="0.25"
     inkscape:showpageshadow="2"
     inkscape:pageopacity="0.0"
     inkscape:pagecheckerboard="true"
     inkscape:deskcolor="#d1d1d1"
     inkscape:document-units="mm"
     showgrid="false"
     inkscape:zoom="2.8649832"
     inkscape:cx="125.30615"
     inkscape:cy="43.106711"
     inkscape:window-width="1920"
     inkscape:window-height="991"
     inkscape:window-x="-9"
     inkscape:window-y="-9"
     inkscape:window-maximized="1"
     inkscape:current-layer="g1224" /><defs
     id="defs2"><linearGradient
       id="paint0_linear_1803_3458"
       x1="83.018303"
       y1="37.3689"
       x2="65.3246"
       y2="73.2407"
       gradientUnits="userSpaceOnUse"><stop
         stop-color="#3F873F"
         id="stop1360" /><stop
         offset="0.3296"
         stop-color="#3F8B3D"
         id="stop1362" /><stop
         offset="0.6367"
         stop-color="#3E9638"
         id="stop1364" /><stop
         offset="0.9341"
         stop-color="#3DA92E"
         id="stop1366" /><stop
         offset="1"
         stop-color="#3DAE2B"
         id="stop1368" /></linearGradient><linearGradient
       id="paint1_linear_1803_3458"
       x1="72.183296"
       y1="56.187599"
       x2="121.552"
       y2="19.937"
       gradientUnits="userSpaceOnUse"><stop
         offset="0.1376"
         stop-color="#3F873F"
         id="stop1371" /><stop
         offset="0.4016"
         stop-color="#52A044"
         id="stop1373" /><stop
         offset="0.7129"
         stop-color="#64B749"
         id="stop1375" /><stop
         offset="0.9081"
         stop-color="#6ABF4B"
         id="stop1377" /></linearGradient><linearGradient
       id="paint2_linear_1803_3458"
       x1="52.7188"
       y1="53.546299"
       x2="97.551003"
       y2="53.546299"
       gradientUnits="userSpaceOnUse"><stop
         offset="0.0919165"
         stop-color="#6ABF4B"
         id="stop1380" /><stop
         offset="0.2871"
         stop-color="#64B749"
         id="stop1382" /><stop
         offset="0.5984"
         stop-color="#52A044"
         id="stop1384" /><stop
         offset="0.8624"
         stop-color="#3F873F"
         id="stop1386" /></linearGradient></defs><g
     inkscape:label="Layer 1"
     inkscape:groupmode="layer"
     id="layer1"><g
       style="fill:none;stroke-width:0.423333"
       id="g1224"
       transform="matrix(0.62499999,0,0,0.62499999,8.8305636,-0.73312988)"><g
         style="fill:none;stroke-width:0.441844"
         id="g1422"
         transform="matrix(0.40559802,0,0,0.40559802,-14.128796,1.1730078)"><g
           mask="url(#mask0_1803_3458)"
           id="g1358"
           style="stroke-width:0.441844"><path
             d="m 234.983,78.7547 c -0.691,0 -1.335,-0.1852 -1.933,-0.5095 l -6.121,-3.6581 c -0.921,-0.5095 -0.46,-0.6947 -0.184,-0.7873 1.242,-0.4169 1.472,-0.5095 2.761,-1.2503 0.138,-0.0926 0.322,-0.0462 0.46,0.0464 l 4.694,2.8247 c 0.184,0.0926 0.414,0.0926 0.552,0 l 18.363,-10.6971 c 0.183,-0.0926 0.277,-0.2778 0.277,-0.5092 V 42.8665 c 0,-0.2314 -0.094,-0.4166 -0.277,-0.5092 L 235.212,31.7067 c -0.184,-0.0927 -0.414,-0.0927 -0.552,0 l -18.362,10.6506 c -0.184,0.0926 -0.276,0.324 -0.276,0.5092 v 21.3478 c 0,0.1852 0.092,0.4166 0.276,0.5092 l 5.016,2.9175 c 2.715,1.3891 4.418,-0.2316 4.418,-1.8524 V 44.7189 c 0,-0.2778 0.23,-0.5556 0.553,-0.5556 h 2.347 c 0.276,0 0.552,0.2314 0.552,0.5556 v 21.0697 c 0,3.6584 -1.979,5.7884 -5.431,5.7884 -1.058,0 -1.886,0 -4.234,-1.1575 l -4.832,-2.7785 c -1.196,-0.6947 -1.933,-1.9912 -1.933,-3.3806 V 42.913 c 0,-1.3894 0.737,-2.6859 1.933,-3.3806 L 233.05,28.8356 c 1.15,-0.6483 2.715,-0.6483 3.865,0 l 18.363,10.6968 c 1.196,0.6947 1.932,1.9912 1.932,3.3806 v 21.3474 c 0,1.3894 -0.736,2.6859 -1.932,3.3806 l -18.363,10.6968 c -0.552,0.2317 -1.242,0.4169 -1.932,0.4169 z"
             fill="#5fa04e"
             id="path1338"
             style="stroke-width:0.461164;fill:#e6e6e6;fill-opacity:1" /><path
             d="m 240.69,64.075 c -8.055,0 -9.712,-3.7046 -9.712,-6.8535 0,-0.2778 0.23,-0.5557 0.552,-0.5557 h 2.393 c 0.277,0 0.507,0.1853 0.507,0.4631 0.368,2.4542 1.426,3.6584 6.305,3.6584 3.866,0 5.523,-0.8799 5.523,-2.9637 0,-1.2039 -0.462,-2.0838 -6.49,-2.6859 -5.016,-0.5095 -8.146,-1.6208 -8.146,-5.6496 0,-3.7507 3.13,-5.9736 8.376,-5.9736 5.892,0 8.791,2.0376 9.159,6.4831 0,0.139 -0.046,0.2778 -0.137,0.4168 -0.094,0.0926 -0.231,0.1853 -0.371,0.1853 h -2.439 c -0.228,0 -0.459,-0.1853 -0.505,-0.4169 -0.553,-2.5469 -1.98,-3.3803 -5.753,-3.3803 -4.234,0 -4.74,1.4817 -4.74,2.593 0,1.3429 0.598,1.7598 6.305,2.5007 5.66,0.7408 8.33,1.8059 8.33,5.7883 0,4.075 -3.36,6.3905 -9.157,6.3905 z"
             fill="#5fa04e"
             id="path1340"
             style="stroke-width:0.461164;fill:#e6e6e6;fill-opacity:1" /><path
             d="m 267.2,41.6621 c 0,1.945 -1.612,3.5658 -3.546,3.5658 -1.932,0 -3.543,-1.5746 -3.543,-3.5658 0,-2.0374 1.657,-3.5655 3.543,-3.5655 1.888,0 3.546,1.5743 3.546,3.5655 z m -6.536,0 c 0,1.6672 1.335,3.0101 2.944,3.0101 1.658,0 2.993,-1.3893 2.993,-3.0101 0,-1.667 -1.335,-2.9635 -2.993,-2.9635 -1.563,0 -2.944,1.2965 -2.944,2.9635 z m 1.657,-1.9912 h 1.381 c 0.46,0 1.381,0 1.381,1.0651 0,0.7409 -0.462,0.8799 -0.739,0.9725 0.554,0.0462 0.599,0.4169 0.645,0.9261 0.046,0.3242 0.094,0.8799 0.185,1.0651 h -0.83 c 0,-0.1852 -0.137,-1.2039 -0.137,-1.2503 -0.045,-0.2314 -0.137,-0.324 -0.413,-0.324 h -0.691 v 1.6205 h -0.782 z m 0.736,1.7598 h 0.597 c 0.508,0 0.599,-0.3704 0.599,-0.5557 0,-0.5556 -0.368,-0.5556 -0.599,-0.5556 h -0.642 v 1.1113 z"
             fill="#5fa04e"
             id="path1342"
             style="stroke-width:0.461164;fill:#e6e6e6;fill-opacity:1" /><path
             fill-rule="evenodd"
             clip-rule="evenodd"
             d="m 43.6737,41.9539 c 0,-0.8335 -0.4601,-1.6205 -1.1964,-2.0374 L 23.0104,28.5712 c -0.3221,-0.1852 -0.6903,-0.2778 -1.0585,-0.324 -0.046,0 -0.184,0 -0.184,0 -0.3682,0 -0.7364,0.1388 -1.0585,0.324 L 1.19654,39.8701 C 0.460209,40.287 0,41.0743 0,41.9539 l 0.0460209,30.3776 c 0,0.4169 0.2301051,0.8335 0.5982721,1.0187 0.368167,0.2317 0.828377,0.2317 1.150527,0 L 13.3921,66.682 c 0.7363,-0.4167 1.1965,-1.2039 1.1965,-2.0374 V 50.4282 c 0,-0.8335 0.4602,-1.6208 1.1966,-2.0374 l 4.9242,-2.8711 c 0.3682,-0.2317 0.7823,-0.3243 1.1965,-0.3243 0.4142,0 0.8284,0.0926 1.1506,0.3243 l 4.9241,2.8711 c 0.7363,0.4166 1.1967,1.2039 1.1967,2.0374 v 14.2164 c 0,0.8335 0.4602,1.6207 1.1965,2.0374 l 11.5053,6.6682 c 0.368,0.2317 0.8282,0.2317 1.1964,0 0.3683,-0.1852 0.5982,-0.6018 0.5982,-1.0187 z"
             fill="#ffffff"
             id="path1344"
             style="stroke-width:0.461164" /><path
             fill-rule="evenodd"
             clip-rule="evenodd"
             d="m 137.465,0.138922 c -0.369,-0.1852292 -0.829,-0.1852292 -1.151,0 -0.368,0.231534 -0.598,0.601993 -0.598,1.018758 V 31.2573 c 0,0.2778 -0.138,0.5556 -0.415,0.7411 -0.276,0.1388 -0.552,0.1388 -0.828,0 l -4.878,-2.8249 c -0.736,-0.4166 -1.611,-0.4166 -2.347,0 l -19.513,11.3453 c -0.736,0.4169 -1.196,1.2039 -1.196,2.0374 v 22.6442 c 0,0.8338 0.46,1.6208 1.196,2.0377 l 19.513,11.3453 c 0.736,0.4166 1.611,0.4166 2.347,0 l 19.513,-11.3453 c 0.736,-0.4169 1.196,-1.2039 1.196,-2.0377 V 8.75207 c 0,-0.87985 -0.46,-1.66707 -1.196,-2.08383 z M 135.67,57.7451 c 0,0.2314 -0.092,0.4166 -0.276,0.5093 l -6.674,3.89 c -0.184,0.0926 -0.414,0.0926 -0.598,0 l -6.673,-3.89 c -0.184,-0.0927 -0.276,-0.3241 -0.276,-0.5093 v -7.7795 c 0,-0.2317 0.092,-0.4169 0.276,-0.5095 l 6.673,-3.8898 c 0.184,-0.0926 0.414,-0.0926 0.598,0 l 6.674,3.8898 c 0.184,0.0926 0.276,0.3242 0.276,0.5095 z"
             fill="#ffffff"
             id="path1346"
             style="stroke-width:0.461164" /><path
             fill-rule="evenodd"
             clip-rule="evenodd"
             d="m 202.398,49.7801 c 0.737,-0.4169 1.151,-1.2039 1.151,-2.0376 v -5.5106 c 0,-0.8334 -0.46,-1.6207 -1.151,-2.0373 L 183.023,28.8957 c -0.736,-0.4169 -1.61,-0.4169 -2.347,0 l -19.512,11.345 c -0.737,0.4169 -1.197,1.2042 -1.197,2.0377 v 22.6442 c 0,0.8335 0.46,1.6208 1.197,2.0374 l 19.374,11.1137 c 0.737,0.4168 1.611,0.4168 2.301,0 l 11.736,-6.5754 c 0.368,-0.1852 0.598,-0.6021 0.598,-1.019 0,-0.4166 -0.23,-0.8334 -0.598,-1.0187 L 174.97,58.1153 c -0.368,-0.2314 -0.598,-0.6018 -0.598,-1.0187 v -7.0849 c 0,-0.4168 0.23,-0.8337 0.598,-1.0189 l 6.121,-3.5193 c 0.368,-0.2314 0.828,-0.2314 1.196,0 l 6.121,3.5193 c 0.368,0.2317 0.598,0.6021 0.598,1.0189 v 5.5568 c 0,0.4168 0.23,0.8334 0.599,1.0187 0.368,0.2316 0.828,0.2316 1.196,0 z"
             fill="#ffffff"
             id="path1348"
             style="stroke-width:0.461164" /><path
             fill-rule="evenodd"
             clip-rule="evenodd"
             d="m 181.551,48.7155 c 0.138,-0.0927 0.323,-0.0927 0.461,0 l 3.727,2.1764 c 0.138,0.0926 0.23,0.2316 0.23,0.4168 v 4.3528 c 0,0.1853 -0.092,0.3243 -0.23,0.4169 l -3.727,2.1764 c -0.138,0.0926 -0.323,0.0926 -0.461,0 l -3.727,-2.1764 c -0.138,-0.0926 -0.23,-0.2316 -0.23,-0.4169 v -4.3528 c 0,-0.1852 0.092,-0.3242 0.23,-0.4168 z"
             fill="#5fa04e"
             id="path1350"
             style="stroke-width:0.461164;fill:#e6e6e6;fill-opacity:1" /><path
             d="m 76.3012,28.9882 c -0.7365,-0.4166 -1.6109,-0.4166 -2.3472,0 L 54.5792,40.241 c -0.7363,0.4168 -1.1505,1.2039 -1.1505,2.0376 V 64.83 c 0,0.8337 0.4602,1.6207 1.1505,2.0376 L 73.954,78.1203 c 0.7363,0.4166 1.6107,0.4166 2.3472,0 L 95.6758,66.8676 c 0.7365,-0.4169 1.1505,-1.2039 1.1505,-2.0376 V 42.2786 c 0,-0.8337 -0.4601,-1.6208 -1.1505,-2.0376 z"
             fill="url(#paint0_linear_1803_3458)"
             id="path1352"
             style="fill:#f2f2f2;stroke-width:0.441844" /><path
             d="M 95.7221,40.241 76.2554,28.9882 C 76.0714,28.8956 75.8412,28.803 75.6572,28.7568 L 53.8433,66.3119 c 0.184,0.2314 0.4142,0.4167 0.6441,0.5557 l 19.467,11.2527 c 0.5523,0.324 1.1964,0.4166 1.7946,0.2314 L 96.2284,40.6578 c -0.138,-0.1852 -0.3221,-0.3242 -0.5063,-0.4168 z"
             fill="url(#paint1_linear_1803_3458)"
             id="path1354"
             style="fill:#e6e6e6;stroke-width:0.441844" /><path
             d="m 95.7224,66.8669 c 0.5523,-0.3242 0.9665,-0.8798 1.1505,-1.4819 L 75.5651,28.7098 C 75.013,28.6172 74.4146,28.6633 73.9085,28.9876 L 54.5796,40.1939 75.427,78.4437 c 0.2761,-0.0464 0.5985,-0.1391 0.8746,-0.2778 z"
             fill="url(#paint2_linear_1803_3458)"
             id="path1356"
             style="fill:#ffffff;stroke-width:0.441844" /></g></g></g></g><style
     type="text/css"
     id="style1045">
	.st0{fill:#2DBCAF;}
	.st1{fill:#5DC9E1;}
	.st2{fill:#FDDD00;}
	.st3{fill:#CE3262;}
	.st4{fill:#00ACD7;}
	.st5{fill:#FFFFFF;}
</style><style
     type="text/css"
     id="style1045-1">
	.st0{fill:#2DBCAF;}
	.st1{fill:#5DC9E1;}
	.st2{fill:#FDDD00;}
	.st3{fill:#CE3262;}
	.st4{fill:#00ACD7;}
	.st5{fill:#FFFFFF;}
</style><style
     type="text/css"
     id="style1045-2">
	.st0{fill:#2DBCAF;}
	.st1{fill:#5DC9E1;}
	.st2{fill:#FDDD00;}
	.st3{fill:#CE3262;}
	.st4{fill:#00ACD7;}
	.st5{fill:#FFFFFF;}
</style></svg>
