<?xml version="1.0" encoding="UTF-8" standalone="no"?>
<!-- Created with Inkscape (http://www.inkscape.org/) -->

<svg
   width="346.207"
   height="300"
   viewBox="0 0 91.6006 79.375"
   version="1.1"
   id="svg13813"
   inkscape:version="1.2.2 (732a01da63, 2022-12-09)"
   sodipodi:docname="poly-pattern-2.svg"
   xmlns:inkscape="http://www.inkscape.org/namespaces/inkscape"
   xmlns:sodipodi="http://sodipodi.sourceforge.net/DTD/sodipodi-0.dtd"
   xmlns="http://www.w3.org/2000/svg"
   xmlns:svg="http://www.w3.org/2000/svg">
  <sodipodi:namedview
     id="namedview13815"
     pagecolor="#979797"
     bordercolor="#000000"
     borderopacity="0.25"
     inkscape:showpageshadow="2"
     inkscape:pageopacity="0.55686275"
     inkscape:pagecheckerboard="true"
     inkscape:deskcolor="#d1d1d1"
     inkscape:document-units="mm"
     showgrid="false"
     inkscape:zoom="0.71624579"
     inkscape:cx="367.19238"
     inkscape:cy="-124.9571"
     inkscape:window-width="1920"
     inkscape:window-height="991"
     inkscape:window-x="-9"
     inkscape:window-y="-9"
     inkscape:window-maximized="1"
     inkscape:current-layer="g14357" />
  <defs
     id="defs13810" />
  <g
     inkscape:label="Layer 1"
     inkscape:groupmode="layer"
     id="layer1">
    <g
       id="g14353"
       transform="matrix(0.26514808,0,0,0.25824459,-43.262858,-31.048141)"
       style="stroke-width:3.82156">
      <g
         id="g14357"
         transform="translate(435.69279,413.61096)">
        <g
           id="g16616"
           transform="matrix(0.12038538,0,0,0.12051538,-88.789059,-108.48164)"
           style="stroke-width:31.7273">
          <path
             id="path1400"
             style="opacity:0.8;fill:#f2f2f2;stroke:#e6e6e6;stroke-width:7.03459;stroke-linejoin:round;stroke-opacity:0.298039;paint-order:stroke fill markers"
             d="m -37.590849,-1498.4073 c -118.800791,0 -256.039571,62.9457 -393.272321,163.4608 31.73736,31.2876 64.63181,55.9391 99.97734,70.3892 49.74013,20.3348 104.80332,22.4055 175.3375,-6.1412 85.040025,-34.4175 165.3159238,-91.9066 243.081904,-153.2527 -40.303894,-45.7318 -81.1950076,-74.4561 -125.124423,-74.4561 z m 154.111999,110.2514 c -79.237234,62.7465 -163.329113,123.0358 -255.61038,160.3838 -78.9985,31.9721 -148.53813,30.5516 -208.39827,6.0793 -44.87719,-18.3468 -84.02135,-48.7179 -120.14456,-85.4067 -35.5013,27.7197 -70.83099,58.0257 -105.79032,90.05 35.30404,48.4241 69.20321,96.1721 104.26249,137.2062 43.59715,51.0269 88.53355,91.2874 138.27406,111.62231 49.74013,20.33498 104.80332,22.40546 175.3375,-6.1412 133.351143,-53.96991 255.113294,-164.14431 373.53354,-257.82851 -34.73908,-57.5961 -68.11402,-111.6902 -101.46406,-155.9652 z m 125.24096,195.4302 c -115.33517,91.8342 -238.4433656,203.65451 -380.85134,261.28995 -78.9985,31.97205 -148.53813,30.55154 -208.39827,6.07924 -59.86013,-24.47219 -109.52182,-70.33728 -155.41768,-124.05439 -35.9452,-42.0713 -70.00768,-89.1721 -104.29682,-136.0274 -33.9086,32.5203 -67.24544,66.7376 -99.82912,102.277 91.88564,90.67006 161.98722,210.82499 237.87123,299.64118 43.59715,51.0272 88.53355,91.28749 138.27406,111.62247 49.74013,20.33499 104.80332,22.4055 175.3375,-6.14108 143.841508,-58.21574 274.24977,-182.09249 401.46548,-279.82108 33.69136,-25.8819 67.22017,-49.83909 101.01676,-70.22299 -37.3282,-53.0303 -71.98619,-109.5874 -105.1718,-164.6429 z m -979.4478,143.4906 c -51.6221,58.51962 -100.77275,120.06569 -146.42875,182.95893 3.83371,-0.31752 7.66629,-0.73922 11.49848,-0.84338 42.69313,-1.1613 85.06379,11.04418 122.97846,41.88122 113.75492,92.52043 193.28332,236.00108 280.47761,338.05472 43.59715,51.02643 88.53355,91.29058 138.27406,111.62557 49.74013,20.33499 104.80332,22.4055 175.3375,-6.14108 143.841508,-58.21613 274.24977,-182.09249 401.46548,-279.82116 63.60823,-48.86414 126.60435,-91.28826 192.01195,-114.6146 59.97743,-21.38941 122.7846,-25.87585 185.85125,-3.1292 -35.35308,-19.48618 -70.27583,-40.8481 -104.28852,-64.52488 -53.40789,-37.17832 -101.29397,-88.86463 -145.39838,-147.00393 -33.09773,19.6226 -66.8385,43.42999 -101.28303,69.89091 -124.27056,95.46578 -256.676949,222.96777 -411.89965,285.78961 -78.9985,31.97202 -148.53813,30.55476 -208.39827,6.08261 -59.86013,-24.47254 -109.52182,-70.33758 -155.41768,-124.05449 -79.68529,-93.26507 -149.80271,-211.39603 -234.78051,-296.15085 z m -124.35354,227.40285 c -19.3737,-0.51695 -39.39195,2.96269 -60.19127,9.59594 -86.0308,125.61618 -156.6887,254.43166 -201.9513,373.27326 53.5923,-49.41943 113.1507,-93.54813 175.27413,-116.43768 24.95059,-9.19322 50.67622,-14.69885 76.29171,-15.39548 42.69313,-1.1613 85.06379,11.05696 122.97846,41.89439 113.75492,92.52043 193.28332,235.99101 280.47761,338.04465 43.59715,51.02721 88.53355,91.287489 138.27406,111.622474 49.74013,20.334986 104.80332,22.405504 175.3375,-6.141077 143.841508,-58.216127 274.24977,-182.092107 401.46548,-279.821157 63.60823,-48.86414 126.60435,-91.27549 192.01195,-114.60182 65.40836,-23.32595 134.18012,-26.65109 202.98507,3.64422 135.83165,59.80609 265.99401,219.57168 404.65393,343.64515 63.9435,57.216684 129.1493,106.682967 194.7692,136.0435053 35.2064,-77.4145943 62.1604,-153.2032153 79.0815,-224.8043253 -26.7277,-4.01944 -52.9783,-11.33034 -78.5712,-21.41226 -79.448,-31.29901 -153.6315,-87.718 -224.7714,-151.37432 -142.27971,-127.31225 -274.93275,-284.10547 -392.85403,-336.02563 -58.06982,-25.56879 -112.78415,-23.06999 -170.57073,-2.46201 -57.78658,20.60798 -117.70592,60.23592 -179.84102,107.96896 -124.27056,95.4657 -256.676949,222.98048 -411.89965,285.8027 -78.9985,31.97202 -148.53813,30.55166 -208.39827,6.07951 -59.86013,-24.47254 -109.52182,-70.33758 -155.41768,-124.05449 -91.79135,-107.43458 -170.86076,-247.93046 -274.60807,-332.31093 -27.04904,-22.00008 -55.04735,-31.98712 -84.52598,-32.77358 z m 1561.20462,81.11806 c 115.16358,73.41489 227.67203,205.6256 346.40271,311.8652 69.3299,62.03653 140.1409,115.02429 211.3585,143.08063 23.9492,9.43486 47.8378,16.09637 71.8832,19.56634 7.2258,-40.03221 11.1153,-78.54143 11.1153,-114.93368 0,-183.69136 -324.128,-208.73855 -640.75971,-359.57849 z m -1561.20462,215.20528 c -22.92794,-0.6126 -46.75274,4.34124 -71.71577,13.5391 -57.05755,21.0231 -117.3808,66.12608 -171.3371,117.40847 -17.7063,16.829 -34.6293,34.27022 -50.7083,51.67272 -15.365,56.46042 -23.6762,109.45476 -23.6762,157.27725 0,27.8031 3.1986,57.33131 9.1632,88.138925 11.236,-11.656005 22.7752,-23.265925 34.721,-34.620275 56.4598,-53.66115 120.1491,-102.45327 186.68473,-126.9684 24.95059,-9.19322 50.67622,-14.71163 76.29171,-15.40865 42.69313,-1.1613 85.06379,11.05387 122.97846,41.89091 113.75492,92.52082 193.28332,236.0041737 280.47761,338.0582 43.59715,51.02643 88.53355,91.28749 138.27406,111.6217 49.74013,20.33499 104.80332,22.4055 175.3375,-6.14108 C -11.706822,152.74461 118.70144,28.867861 245.91715,-68.860422 309.52538,-117.72495 372.5215,-160.14598 437.9291,-183.47231 c 65.40836,-23.32595 134.18012,-26.65419 202.98507,3.64073 135.83165,59.80648 265.99401,219.572079 404.65393,343.64554 24.5391,21.95748 49.2717,42.68938 74.1333,61.67525 37.7909,-60.01558 71.8232,-120.52566 101.0899,-180.386353 C 1148.8726,12.678944 1081.1919,-39.454578 1016.0762,-97.720272 873.79649,-225.03252 741.14345,-381.82574 623.22217,-433.74629 c -58.06982,-25.56878 -112.78415,-23.08277 -170.57073,-2.4744 -57.78658,20.6076 -117.70592,60.2487 -179.84102,107.98174 -124.27056,95.4657 -256.676949,222.96731 -411.89965,285.789537 -78.9985,31.972015 -148.53813,30.551656 -208.39827,6.079507 -59.86013,-24.472536 -109.52182,-70.334484 -155.41768,-124.051394 -91.79135,-107.43419 -170.86076,-247.93007 -274.60807,-332.31093 -27.04904,-22.00007 -55.04735,-31.98905 -84.52598,-32.77668 z m 0,296.33922 c -22.92794,-0.61143 -46.75274,4.34201 -71.71577,13.53988 -57.05755,21.02309 -117.3808,66.12259 -171.3371,117.404978 -18.3844,17.47297 -35.9452,35.607329 -52.5661,53.671599 15.1629,53.6394592 37.8475,110.381016 67.0818,168.647873 44.4649,-37.020332 92.27294,-68.632224 141.66873,-86.832412 24.95059,-9.193223 50.67622,-14.698469 76.29171,-15.395482 42.69313,-1.161302 85.06379,11.053862 122.97846,41.890907 113.75492,92.520037 193.28332,235.994107 280.47761,338.048127 43.59715,51.02721 88.53355,91.28749 138.27406,111.62248 49.74013,20.33498 104.80332,22.4055 175.3375,-6.14108 143.841508,-58.21613 274.24977,-182.0921 401.46548,-279.82116 63.60823,-48.86453 126.60435,-91.27548 192.01195,-114.60182 65.40836,-23.325949 134.18012,-26.651091 202.98507,3.64344 117.74892,51.84504 231.25757,178.7689 349.7144,292.47816 36.87823,-47.38221 71.73123,-95.85603 104.10443,-144.93315 -26.6847,-20.31523 -52.8776,-42.3792 -78.6568,-65.44648 C 873.79649,71.293919 741.14345,-85.499299 623.22217,-137.41985 c -58.06982,-25.56878 -112.78415,-23.0696 -170.57073,-2.462 C 394.86486,-119.2731 334.94552,-79.648644 272.81042,-31.915988 148.53986,63.54971 16.133471,191.06487 -139.08923,253.88632 c -78.9985,31.97279 -148.53813,30.55166 -208.39827,6.07951 -59.86013,-24.47215 -109.52182,-70.33371 -155.41768,-124.05061 -91.79135,-107.434977 -170.86076,-247.93085 -274.60807,-332.31094 -27.04904,-22.00046 -55.04735,-31.98712 -84.52598,-32.77397 z m 0,296.323735 c -22.92794,-0.611048 -46.75274,4.341621 -71.71577,13.53949 -44.55435,16.41622 -91.0589,47.600225 -135.0091,84.859475 31.0913,56.79693 68.1382,114.58633 109.8277,171.97882 3.33776,-1.35608 6.67627,-2.69822 10.02873,-3.93387 24.95059,-9.19322 50.67622,-14.71086 76.29171,-15.40787 42.69313,-1.1613 85.06379,11.05696 122.97846,41.89401 113.75492,92.52081 193.28332,236.00417 280.47761,338.05819 43.59715,51.02644 88.53355,91.28672 138.27406,111.6217 49.74013,20.33499 104.80332,22.40551 175.3375,-6.14107 C -11.706822,745.40756 118.70144,621.53081 245.91715,523.80253 309.52538,474.938 372.5215,432.51388 437.9291,409.18754 c 65.40836,-23.32594 134.18012,-26.65109 202.98507,3.64384 71.46045,31.46435 141.36893,90.79222 211.75451,157.83757 37.89165,-40.36522 74.53948,-82.3568 109.53351,-125.53293 C 840.25486,329.38645 726.12505,204.22488 623.22217,158.91667 565.15235,133.34788 510.43802,135.8339 452.65144,156.44149 394.86486,177.04986 334.94552,216.69096 272.81042,264.42401 148.53986,359.88971 16.133471,487.39131 -139.08923,550.21354 -218.08773,582.18556 -287.62736,580.7652 -347.4875,556.29305 -407.34763,531.82051 -457.00932,485.95547 -502.90518,432.23856 -594.69653,324.80359 -673.76594,184.30849 -777.51325,99.927627 -804.56229,77.927166 -832.5606,67.940509 -862.03923,67.154045 Z m 0,296.336125 c -21.91907,-0.58627 -44.67201,3.97259 -68.44175,12.40607 234.22685,305.57194 599.58082,589.15813 945.065882,626.08086 C 94.219272,944.85879 170.63997,877.95439 245.91715,820.12588 309.52538,771.26135 372.5215,728.85039 437.9291,705.52406 c 65.40836,-23.32673 134.18012,-26.6511 202.98507,3.64344 14.40026,6.34089 28.72584,14.01927 43.01559,22.445 46.64375,-39.53616 92.31445,-82.14925 136.43923,-127.19686 C 751.11938,538.83324 685.09778,482.48356 623.22217,455.24001 565.15235,429.67123 510.43802,432.17041 452.65144,452.778 394.86486,473.38637 334.94552,513.01431 272.81042,560.74697 148.53986,656.21266 16.133471,783.72782 -139.08923,846.54928 c -78.9985,31.97279 -148.53813,30.55165 -208.39827,6.0795 -59.86013,-24.47214 -109.52182,-70.33371 -155.41768,-124.05061 -91.79135,-107.43497 -170.86076,-247.93085 -274.60807,-332.31093 -27.04904,-22.00047 -55.04735,-31.98945 -84.52598,-32.77707 z M 537.83026,733.01892 c -28.16011,0 -56.28553,5.78212 -85.17882,16.08553 -57.78658,20.60837 -117.70592,60.24637 -179.84102,107.97903 -59.71116,45.87046 -121.39179,99.065 -186.487867,149.00022 0.985864,0 1.977385,0.062 2.96325,0.062 177.353727,0 373.497337,-96.30642 556.835647,-243.28646 -7.69193,-4.16311 -15.32766,-7.95874 -22.89928,-11.29279 -29.0351,-12.78439 -57.23066,-18.55179 -85.39191,-18.54714 z" />
          <path
             style="color:#000000;fill:#ffffff;stroke-width:31.7273;stroke-linejoin:round;-inkscape-stroke:none;paint-order:stroke fill markers"
             d="m -361.4375,-1534.2578 c -236.50912,0 -522.29936,224.1031 -754.5547,499.9863 -232.2553,275.88325 -410.2637,604.13355 -410.2637,835.7383 0,218.510091 173.9254,517.16568 420.2891,766.41015 246.36369,249.24448 566.9893,448.27535 871.4043,448.27535 281.921897,0 596.90423,-227.15209 844.67187,-514.4023 247.76765,-287.25021 428.89653,-635.31811 428.89653,-895.80664 0,-62.80511 -35.0677,-111.74625 -87.4434,-148.3125 -52.37573,-36.56625 -122.63846,-64.24618 -203.20703,-92.91797 C 587.21833,-692.6307 384.63722,-753.08269 208.74219,-875.52734 a 22.931643,22.931643 0 0 0 0,-0.002 C 91.796379,-956.9379 -2.3390929,-1117.9772 -88.324219,-1260.4258 c -42.992561,-71.2243 -84.083401,-137.6904 -127.347651,-187.8105 -43.26426,-50.1201 -90.42829,-86.0215 -145.76563,-86.0215 z m 0,45.8574 c 34.9063,0 71.58488,24.4068 111.05273,70.1289 39.46786,45.7221 79.99713,110.6316 122.80079,181.543 85.607305,141.8227 179.770061,308.09356 310.12695,398.83788 183.5943,127.80429 391.23039,189.14988 550.4375,245.80664 79.60355,28.32837 147.0448,55.70036 192.33008,87.3164 45.28528,31.61604 67.83593,63.98879 67.83593,110.71094 0,238.68503 -174.87111,584.25752 -417.76171,865.85351 -242.8906,281.596 -553.229176,498.49805 -809.94727,498.49805 -284.15742,0 -597.91436,-190.96299 -838.7891,-434.6543 -240.8747,-243.6913 -407.0449,-540.9146191 -407.0449,-734.17382 0,-207.25629 171.5115,-535.40634 399.4863,-806.2051 227.97493,-270.7987 513.12971,-483.6621 719.4727,-483.6621 z"
             id="path1405" />
        </g>
      </g>
    </g>
  </g>
</svg>
