<?xml version="1.0" encoding="UTF-8" standalone="no"?>
<!-- Created with Inkscape (http://www.inkscape.org/) -->

<svg
   width="225.57001"
   height="300"
   viewBox="0 0 59.682063 79.375"
   version="1.1"
   id="svg13813"
   inkscape:version="1.2.2 (732a01da63, 2022-12-09)"
   sodipodi:docname="poly-pattern-3.svg"
   xmlns:inkscape="http://www.inkscape.org/namespaces/inkscape"
   xmlns:sodipodi="http://sodipodi.sourceforge.net/DTD/sodipodi-0.dtd"
   xmlns="http://www.w3.org/2000/svg"
   xmlns:svg="http://www.w3.org/2000/svg">
  <sodipodi:namedview
     id="namedview13815"
     pagecolor="#979797"
     bordercolor="#000000"
     borderopacity="0.25"
     inkscape:showpageshadow="2"
     inkscape:pageopacity="0.55686275"
     inkscape:pagecheckerboard="true"
     inkscape:deskcolor="#d1d1d1"
     inkscape:document-units="px"
     showgrid="false"
     inkscape:zoom="1.0129245"
     inkscape:cx="-51.336501"
     inkscape:cy="348.98948"
     inkscape:window-width="1920"
     inkscape:window-height="991"
     inkscape:window-x="-9"
     inkscape:window-y="-9"
     inkscape:window-maximized="1"
     inkscape:current-layer="g14357" />
  <defs
     id="defs13810" />
  <g
     inkscape:label="Layer 1"
     inkscape:groupmode="layer"
     id="layer1">
    <g
       id="g14353"
       transform="matrix(0.26514808,0,0,0.25824459,-43.262858,-31.048141)"
       style="stroke-width:3.82156">
      <g
         id="g14357"
         transform="translate(435.69279,413.61096)">
        <g
           id="g16689"
           transform="matrix(0.08334559,0,0,0.08334559,-239.72608,-119.30847)"
           style="stroke-width:45.852">
          <path
             id="path8973"
             style="opacity:0.8;fill:#ffffff;fill-opacity:0.8;stroke:none;stroke-width:550.224;stroke-linejoin:round;stroke-dasharray:none;stroke-opacity:1;paint-order:stroke fill markers"
             d="m 1743.3898,-1854.568 c -54.0407,-0.4767 -110.6483,2.7823 -168.9305,9.0808 0.9599,0.4088 1.9186,0.6722 2.8784,1.0946 129.9847,57.1966 254.5427,209.9921 387.2342,328.651 66.3456,59.3295 134.1096,110.0009 202.2617,136.8329 45.404,17.8759 90.5928,25.2984 137.2011,18.6659 4.8678,-93.4527 -8.5613,-172.1618 -37.6051,-237.1583 -39.3844,-0.6084 -77.904,-9.1082 -114.9833,-23.7066 -76.028,-29.9329 -147.0216,-83.8766 -215.0994,-144.7551 -29.8052,-26.6534 -59.0802,-54.6823 -87.9508,-82.69 -33.8159,-3.584 -68.7793,-5.6957 -105.0063,-6.0152 z m 179.749,16.981 c 13.7474,13.0402 27.5228,26.0092 41.4331,38.4485 66.3456,59.3295 134.1096,110.005 202.2617,136.8369 25.0777,9.8733 50.0822,16.5914 75.2941,19.5724 -65.3351,-104.8009 -177.4921,-167.2886 -318.9889,-194.8578 z m -444.4478,16.0166 c -26.9488,0 -53.8643,5.5277 -81.5134,15.3821 -55.2989,19.7088 -112.6393,57.607 -172.0996,103.257 -118.9211,91.3 -245.62694,213.2511 -394.16846,273.3316 -75.59776,30.5769 -142.14472,29.2194 -199.42781,5.8151 -33.36324,-13.6313 -63.34913,-34.3405 -91.30709,-59.2936 -40.39365,23.7412 -79.64644,48.3526 -117.78965,73.5872 31.13204,42.8016 61.56673,84.9809 92.66181,121.3526 41.72121,48.8002 84.72397,87.3033 132.32304,106.7508 47.59943,19.4477 100.29301,21.4278 167.79001,-5.8731 137.65063,-55.6753 262.44465,-174.1465 384.18415,-267.6105 60.8694,-46.732 121.1546,-87.2921 183.7464,-109.6004 62.593,-22.3082 128.4052,-25.487 194.2473,3.4859 129.9847,57.1966 254.5427,209.9901 387.2342,328.649 66.3456,59.3295 134.1096,110.0049 202.2617,136.8369 26.1182,10.283 52.1588,17.1362 78.4362,19.9105 29.3364,-88.3703 47.249,-168.0763 55.0835,-239.7776 -51.2185,5.3322 -101.2411,-3.5654 -148.907,-22.3319 -76.028,-29.9329 -147.0216,-83.8927 -215.0994,-144.7711 -136.1556,-121.7569 -263.0945,-271.7082 -375.9397,-321.3631 -27.7853,-12.2264 -54.7675,-17.7416 -81.7162,-17.7374 z m -211.3378,34.2282 c -231.5864,60.9037 -472.01284,159.5675 -687.0572,281.1997 21.51703,17.6624 43.73782,31.8277 67.07384,41.362 47.59943,19.4476 100.29301,21.4278 167.79001,-5.8731 137.65063,-55.6753 262.44465,-174.1464 384.18415,-267.6105 22.7006,-17.4281 45.3211,-33.9913 68.0092,-49.0781 z m 211.3378,249.1727 c -26.9488,0 -53.8643,5.5237 -81.5134,15.3781 -55.2989,19.7089 -112.6393,57.6171 -172.0996,103.267 -118.9211,91.3 -245.62694,213.237 -394.16846,273.3176 -75.59776,30.5769 -142.14472,29.2214 -199.42781,5.817 -57.28346,-23.4042 -104.80596,-67.2681 -148.72557,-118.6411 -33.33873,-38.9959 -64.98557,-82.5228 -96.77385,-125.9651 -38.59994,26.5515 -75.74522,53.8101 -111.25292,81.6615 94.22131,87.8836 164.2633,209.641 240.31741,298.601 41.72121,48.80027 84.72397,87.30725 132.32304,106.75482 47.59943,19.44757 100.29301,21.42783 167.79001,-5.87311 137.65063,-55.67532 262.44465,-174.14651 384.18415,-267.61051 60.8694,-46.732 121.1546,-87.304 183.7464,-109.6124 62.593,-22.3082 128.4052,-25.489 194.2473,3.4839 129.9847,57.1966 254.5427,209.988 387.2342,328.64699 58.008,51.87365 117.0998,97.12695 176.5877,125.61688 36.0708,-74.67552 65.7622,-144.68686 89.4323,-210.18387 -26.9329,-3.6969 -53.4041,-10.6604 -79.1456,-20.7951 -76.028,-29.9329 -147.0216,-83.8786 -215.0994,-144.7571 -136.1556,-121.7569 -263.0945,-271.7102 -375.9397,-321.3651 -27.7853,-12.2264 -54.7675,-17.7436 -81.7162,-17.7414 z m -1238.29827,262.4377 c -32.92161,27.0318 -64.42589,54.5098 -93.87773,82.4579 -35.63217,33.8128 -68.755168,76.88 -99.543247,127.0236 2.99757,-1.2103 5.968363,-2.6155 8.978756,-3.724 23.876847,-8.7921 48.495161,-14.0555 73.008261,-14.7218 40.85528,-1.1105 81.40168,10.5739 117.68443,40.0653 108.85766,88.48312 184.96268,225.6937 268.4036,323.29416 41.72121,48.80025 84.72397,87.3032 132.32304,106.75085 47.59943,19.44746 100.29301,21.42779 167.79001,-5.87311 137.65063,-55.67536 262.44465,-174.1465 384.18415,-267.61049 60.8694,-46.73209 121.1546,-87.29213 183.7464,-109.60036 62.593,-22.30835 128.4052,-25.48905 194.2473,3.48383 129.9847,57.19663 254.5427,209.99205 387.2342,328.65099 21.2357,18.99022 42.6301,36.93828 64.123,53.65658 l 52.1053,-92.74537 c 14.5084,-26.96247 28.1936,-53.33425 41.1894,-79.20418 -65.0127,-31.22509 -126.4346,-78.89548 -185.6427,-131.84218 -136.1556,-121.75692 -263.0945,-271.70822 -375.9397,-321.36312 -55.5705,-24.4528 -107.9314,-22.0621 -163.2296,-2.3533 -55.2989,19.7088 -112.6393,57.6071 -172.0996,103.257 -118.9211,91.3 -245.62694,213.25106 -394.16846,273.33154 -75.59776,30.57691 -142.14472,29.21746 -199.42781,5.8131 -57.28346,-23.40433 -104.80596,-67.26813 -148.72557,-118.64117 -81.71132,-95.57677 -152.9138,-218.45787 -242.36343,-300.10577 z m -110.7732,234.4168 c -19.02031,0.7791 -38.693093,5.3371 -59.168821,12.8769 -20.367864,7.5001 -41.169448,18.2182 -61.9284136,31.2386 -46.3307144,91.10034 -86.2125794,199.82576 -119.1107954,320.88886 50.976793,-46.81717 107.55084,-88.53363 166.539009,-110.2547 23.876847,-8.7921 48.495161,-14.06957 73.008261,-14.73588 40.85528,-1.1105 81.40168,10.57188 117.68443,40.06334 108.85766,88.48309 184.96268,225.70568 268.4036,323.30613 41.72121,48.80025 84.72397,87.30329 132.32304,106.75086 47.59943,19.44749 100.29301,21.42778 167.79001,-5.87312 137.65063,-55.67536 262.44465,-174.14649 384.18415,-267.61048 60.8694,-46.7321 121.1546,-87.30209 183.7464,-109.61039 62.593,-22.30831 128.4052,-25.49107 194.2473,3.48185 115.9454,51.01896 227.6124,177.9676 344.546,289.03793 l 85.1286,-151.52872 c -23.9375,-18.44627 -47.4874,-38.25435 -70.6654,-58.98137 -136.1556,-121.7569 -263.0945,-271.70827 -375.9397,-321.36313 -55.5705,-24.45283 -107.9314,-22.07408 -163.2296,-2.36524 -55.2989,19.70887 -112.6393,57.61902 -172.0996,103.26896 -118.9211,91.3 -245.62694,213.23912 -394.16846,273.31953 -75.59776,30.57694 -142.14472,29.2175 -199.42781,5.8131 -57.28346,-23.40429 -104.80596,-67.26418 -148.72557,-118.63715 -87.84072,-102.74612 -163.50788,-237.11076 -262.78862,-317.80918 -28.76129,-23.3778 -58.64799,-32.5752 -90.34801,-31.2767 z m 0,283.40888 c -19.02031,0.77984 -38.693093,5.33715 -59.168821,12.87686 -54.601564,20.10606 -112.326289,63.23715 -163.960455,112.28181 -13.039884,12.38586 -25.673204,25.12007 -37.823774,37.91619 -20.67901,87.33519 -37.87317,179.92613 -51.74278,275.57472 18.89925,-20.91064 38.88016,-42.06291 60.37871,-62.48328 54.029057,-51.31957 114.9765094,-97.98703 178.648099,-121.43263 23.876847,-8.7921 48.495161,-14.05757 73.008261,-14.72388 40.85528,-1.11049 81.40168,10.57188 117.68443,40.06334 108.85766,88.4831 184.96268,225.69767 268.4036,323.29816 41.72121,48.80017 84.72397,87.303245 132.32304,106.750816 47.59943,19.447532 100.29301,21.427787 167.79001,-5.873114 137.65063,-55.675362 262.44465,-174.146422 384.18415,-267.610492 60.8694,-46.73209 121.1546,-87.29205 183.7464,-109.60036 62.593,-22.30831 128.4052,-25.48905 194.2473,3.48387 81.5959,35.90426 161.0572,109.4871 241.7302,188.64043 l 80.7926,-143.80855 c -122.3399,-114.45986 -236.776,-242.49848 -339.4533,-287.67918 -55.5705,-24.45286 -107.9314,-22.06203 -163.2296,-2.35327 -55.2989,19.70887 -112.6393,57.60307 -172.0996,103.25297 -118.9211,91.3 -245.62694,213.25113 -394.16846,273.33154 -75.59776,30.57705 -142.14472,29.21745 -199.42781,5.81309 -57.28346,-23.40432 -104.80596,-67.26418 -148.72557,-118.63714 -87.84072,-102.74613 -163.50788,-237.11076 -262.78862,-317.80922 -28.76129,-23.37772 -58.64799,-32.57234 -90.34801,-31.27268 z m 0,283.39293 c -19.02031,0.7798 -38.693093,5.33707 -59.168821,12.87682 -54.601564,20.10602 -112.326289,63.24117 -163.960455,112.2858 -37.516394,35.63486 -71.635814,74.05062 -100.091234,108.64987 -9.78623,79.42335 -17.22924,160.525997 -22.28642,242.3930374 27.23535,-32.3863904 58.54087,-67.1159854 93.18981,-100.0272654 54.029057,-51.319562 114.9765094,-97.987032 178.648099,-121.432632 23.876847,-8.79209 48.495161,-14.06957 73.008261,-14.73588 40.85528,-1.11049 81.40168,10.57579 117.68443,40.06737 108.85766,88.48298 184.96268,225.705678 268.4036,323.30614 41.72121,48.80028 84.72397,87.30324 132.32304,106.75081 47.59943,19.44749 100.29301,21.42771 167.79001,-5.87311 137.65063,-55.67529 262.44465,-174.146423 384.18415,-267.610492 60.8694,-46.732093 121.1546,-87.304058 183.7464,-109.612368 62.593,-22.30823 128.4052,-25.48905 194.2473,3.48387 46.1844,20.32225 91.6816,52.840527 137.1042,91.480718 l 82.0688,-146.083798 c -83.7174,-81.53116 -162.9131,-156.02662 -236.1035,-188.23221 -55.5705,-24.45291 -107.9314,-22.07609 -163.2296,-2.36725 -55.2989,19.70883 -112.6393,57.62099 -172.0996,103.27097 -118.9211,91.3 -245.62694,213.239048 -394.16846,273.319533 C 755.31178,17.973685 688.76482,16.61416 631.48173,-6.7901637 574.19827,-30.194565 526.67577,-74.058369 482.75616,-125.43133 394.91544,-228.17749 319.24828,-362.54209 219.96754,-443.24055 c -28.76129,-23.37772 -58.64799,-32.57234 -90.34801,-31.27264 z m 0,283.40489 c -19.02031,0.77946 -38.693093,5.33708 -59.168821,12.87683 -54.601564,20.10605 -112.326289,63.22916 -163.960455,112.273793 -49.942284,47.43751 -93.902994,99.753224 -126.257744,141.367261 -3.20991,72.970316 -4.60724,146.164576 -3.96232,218.954596 28.85671,-34.87775 63.08286,-73.25985 101.03222,-109.30622 C -68.668533,133.7384 -7.7210806,87.074921 55.950509,63.629318 79.827356,54.837227 104.44567,49.571792 128.95877,48.905486 169.81405,47.794988 210.36045,59.477363 246.6432,88.968823 355.50086,177.45184 431.60588,314.66242 515.0468,412.26296 c 41.72121,48.80024 84.72397,87.30719 132.32304,106.75484 47.59943,19.44745 100.29301,21.42782 167.79001,-5.87316 137.65063,-55.67524 262.44465,-174.1504 384.18415,-267.61447 60.8694,-46.73209 121.1546,-87.29202 183.7464,-109.60036 62.593,-22.30831 128.4052,-25.48906 194.2473,3.48386 7.6867,3.38222 15.3507,7.15202 23.0019,11.17596 l 91.7962,-163.396996 c -45.6952,-39.690242 -89.6925,-72.129295 -131.7286,-90.626254 -55.5705,-24.45291 -107.9314,-22.06211 -163.2296,-2.35327 -55.2989,19.708869 -112.6393,57.606972 -172.0996,103.2569899 C 1106.1569,88.770058 979.45106,210.72107 830.90954,270.80164 755.31178,301.37858 688.76482,300.01905 631.48173,276.61473 574.19827,253.21037 526.67577,209.35059 482.75616,157.97755 394.91544,55.231504 319.24828,-79.135262 219.96754,-159.83364 c -28.76129,-23.37772 -58.64799,-32.57377 -90.34801,-31.27466 z m 0,283.394869 c -19.02031,0.780152 -38.693093,5.339125 -59.168821,12.878881 -54.601564,20.10601 -112.326289,63.23714 -163.960455,112.28177 -51.334334,48.75994 -96.574334,102.86616 -129.146324,145.00122 2.33945,90.74571 7.92953,180.24579 16.52322,267.3103 24.9438,-29.04192 52.8912,-59.48295 83.43526,-88.49509 54.029057,-51.31976 114.9765094,-97.97104 178.648099,-121.41664 23.876847,-8.7921 48.495161,-14.06957 73.008261,-14.73588 40.85528,-1.11057 81.40168,10.57184 117.68443,40.06334 108.85766,88.48305 184.96268,225.69379 268.4036,323.29413 41.72121,48.80025 84.72397,87.30727 132.32304,106.75484 47.59943,19.4475 100.29301,21.42779 167.79001,-5.87311 137.65063,-55.67536 262.44465,-174.14658 384.18415,-267.61049 60.8694,-46.73209 121.1546,-87.29414 183.7464,-109.60237 9.6633,-3.44399 19.4258,-6.25225 29.2305,-8.73664 15.6418,-27.13877 31.1252,-53.54583 47.0129,-81.82557 l 119.4424,-212.60519 c -6.1574,-3.23531 -12.2928,-6.33311 -18.369,-9.00681 -55.5705,-24.45287 -107.9314,-22.06397 -163.2296,-2.35525 -55.2989,19.70883 -112.6393,57.617 -172.0996,103.26698 -118.9211,91.3 -245.62694,213.24103 -394.16846,273.32151 -75.59776,30.57702 -142.14472,29.21959 -199.42781,5.81511 C 574.19827,536.60736 526.67577,492.74352 482.75616,441.37044 394.91544,338.62439 319.24828,204.25763 219.96754,123.55925 191.20625,100.18153 161.31955,90.986329 129.61953,92.286569 Z m 0,356.205681 c -19.02031,0.78016 -38.693093,5.33909 -59.168821,12.87884 -54.601564,20.10598 -112.326289,63.24117 -163.960455,112.2858 -40.311054,38.28948 -76.655274,79.71292 -106.280984,116.22187 7.45885,63.56931 16.84907,125.30067 27.84859,185.05852 15.67878,-16.90359 31.9331,-33.8234 49.24455,-50.26677 54.029057,-51.31956 114.9765094,-97.98501 178.648099,-121.43061 23.876847,-8.7921 48.495161,-14.05757 73.008261,-14.72387 40.85528,-1.11054 81.40168,10.56184 117.68443,40.05334 108.85766,88.48306 184.96268,225.70762 268.4036,323.30813 41.72121,48.8002 84.72397,87.3033 132.32304,106.7508 47.59943,19.4476 100.29301,21.4278 167.79001,-5.8731 107.45467,-43.462 207.03145,-125.125 303.47945,-203.35224 82.707,-117.75538 169.5457,-253.34726 260.6623,-408.53154 -49.7594,20.97349 -101.1412,55.45971 -154.2236,96.21325 -118.9211,91.29995 -245.62694,213.23695 -394.16846,273.31752 -75.59776,30.57694 -142.14472,29.2195 -199.42781,5.8151 C 574.19827,892.81297 526.67577,848.94913 482.75616,797.57612 394.91544,694.82996 319.24828,560.46335 219.96754,479.76489 191.20625,456.38721 161.31955,447.19197 129.61953,448.49225 Z m 0,283.40687 c -19.02031,0.7795 -38.693093,5.33711 -59.168821,12.87686 -54.601564,20.10606 -112.326289,63.24118 -163.960455,112.2858 -24.353934,23.13238 -47.180054,47.44522 -68.100814,71.14589 12.67217,61.25673 27.30851,119.87123 43.9841,175.17523 52.773908,-49.4429 111.8669248,-94.0149 173.576969,-116.73811 23.876847,-8.79213 48.495161,-14.06554 73.008261,-14.73185 40.85528,-1.11053 81.40168,10.57176 117.68443,40.06336 108.85766,88.483 184.96268,225.6937 268.4036,323.2941 41.72121,48.8002 84.72397,87.3034 132.32304,106.7508 8.79697,3.5943 17.84889,6.3623 27.05544,8.6887 105.74469,-83.4447 221.55582,-204.6512 347.74982,-369.5128 -60.13921,44.5042 -123.33711,85.137 -191.26556,112.612 -75.59776,30.5769 -142.14472,29.2174 -199.42781,5.8131 C 574.19827,1176.2178 526.67577,1132.354 482.75616,1080.981 394.91544,978.23486 319.24828,843.87223 219.96754,763.17378 191.20625,739.79605 161.31955,730.60004 129.61953,731.89912 Z m 0,283.39488 c -19.02031,0.7802 -38.693093,5.3391 -59.168821,12.8789 -54.601564,20.1059 -112.326289,63.2371 -163.960455,112.2818 -3.191047,3.0309 -6.12073,6.2085 -9.263504,9.2769 20.413877,61.0713 43.499468,117.433 69.30731,168.2296 28.8751857,-19.9318 58.817322,-36.6521 89.416449,-47.9195 23.876847,-8.7922 48.495161,-14.0576 73.008261,-14.7239 40.85528,-1.1105 81.40168,10.5618 117.68443,40.0533 91.62276,74.4738 160.04452,183.2551 229.16515,274.098 49.04881,-19.0373 100.90814,-47.706 155.52139,-86.5201 -57.21406,-23.42 -104.69357,-67.2445 -148.57358,-118.5711 -87.84072,-102.7461 -163.50788,-237.1128 -262.78862,-317.8112 -28.76129,-23.3777 -58.64799,-32.573 -90.34801,-31.2727 z m 0,283.4049 c -19.02031,0.7802 -38.693093,5.3391 -59.168821,12.8789 -27.362446,10.0758 -55.507473,25.9407 -83.279124,45.4282 44.408392,77.8718 96.069712,140.0583 155.336215,181.8768 36.22881,1.5863 71.8689,13.6665 104.1354,39.8932 5.41546,4.402 10.68987,9.0111 15.94806,13.6433 52.0479,11.1067 108.55632,8.8576 169.56412,-8.4225 -67.83945,-89.8888 -132.42298,-189.19 -212.18784,-254.0252 -28.76129,-23.3778 -58.64799,-32.573 -90.34801,-31.2727 z" />
          <path
             style="color:#000000;fill:#ffffff;stroke-width:45.852;stroke-linejoin:round;-inkscape-stroke:none;paint-order:stroke fill markers"
             d="m 1599.1387,-2088.541 c -508.7532,-4.4874 -1219.1668,293.9968 -1612.861356,667.5879 -184.734684,175.3015 -300.293264,560.67181 -350.496094,993.26755 -50.20283,432.5957455 -32.38152,911.98733 64.7793,1273.30469 48.58041,180.65866 116.7832,332.09286 208.927731,433.62306 92.1445287,101.5302 211.251009,151.896 349.720699,124.3359 276.9394,-55.1201 626.43528,-402.208 1075.66012,-1201.81833 l 621.4688,-1106.19922 a 22.931643,22.931643 0 0 0 0.2012,-0.36524 c 227.3187,-422.45501 271.7676,-715.28781 188.8086,-907.97461 -41.4795,-96.3434 -115.3144,-165.7051 -209.7227,-210.0703 -94.4083,-44.3652 -209.298,-64.5696 -336.4863,-65.6914 z m -0.4043,45.8555 c 122.541,1.0808 231.1424,20.814 317.3847,61.3417 86.2424,40.5278 150.2172,101.0152 187.1075,186.6993 73.773,171.3508 37.2114,451.2504 -187.0059,867.98434 L 1294.8887,179.29883 C 847.92656,974.88153 497.3505,1309.4219 250.25781,1358.6016 126.71147,1383.1914 27.809184,1341.3767 -56.552734,1248.4219 -140.91465,1155.467 -207.71843,1010.1133 -255.1543,833.71094 -350.02603,480.90615 -368.2748,5.0784303 -318.66602,-422.39844 c 49.60879,-427.47687 169.74406,-807.03896 336.50977,-965.28906 382.3974,-362.8708 1090.72655,-659.3215 1580.89065,-654.998 z"
             id="path9038" />
        </g>
      </g>
    </g>
  </g>
</svg>
