<?xml version="1.0" encoding="UTF-8" standalone="no"?>
<!-- Created with Inkscape (http://www.inkscape.org/) -->

<svg
   width="334.57999"
   height="300"
   viewBox="0 0 88.524286 79.375"
   version="1.1"
   id="svg13813"
   inkscape:version="1.2.2 (732a01da63, 2022-12-09)"
   sodipodi:docname="poly-pattern-1.svg"
   xmlns:inkscape="http://www.inkscape.org/namespaces/inkscape"
   xmlns:sodipodi="http://sodipodi.sourceforge.net/DTD/sodipodi-0.dtd"
   xmlns="http://www.w3.org/2000/svg"
   xmlns:svg="http://www.w3.org/2000/svg">
  <sodipodi:namedview
     id="namedview13815"
     pagecolor="#979797"
     bordercolor="#000000"
     borderopacity="0.25"
     inkscape:showpageshadow="2"
     inkscape:pageopacity="0.55686275"
     inkscape:pagecheckerboard="true"
     inkscape:deskcolor="#d1d1d1"
     inkscape:document-units="mm"
     showgrid="false"
     inkscape:zoom="0.71624579"
     inkscape:cx="-217.80233"
     inkscape:cy="-74.695029"
     inkscape:window-width="1920"
     inkscape:window-height="991"
     inkscape:window-x="-9"
     inkscape:window-y="-9"
     inkscape:window-maximized="1"
     inkscape:current-layer="g14357" />
  <defs
     id="defs13810" />
  <g
     inkscape:label="Layer 1"
     inkscape:groupmode="layer"
     id="layer1">
    <g
       id="g14353"
       transform="matrix(0.26514808,0,0,0.25824459,-43.262858,-31.048141)"
       style="stroke-width:3.82156">
      <g
         id="g14357"
         transform="translate(435.69279,413.61096)">
        <g
           id="g15091"
           transform="matrix(1.0436935,0,0,1.0436935,22.621037,6.1037243)"
           style="stroke-width:3.66157">
          <path
             id="rect2967"
             style="fill:#f2f2f2;fill-opacity:1;stroke:none;stroke-width:28.6409;stroke-linejoin:round;paint-order:stroke fill markers"
             d="m -108.68582,-283.70138 c -2.82935,0 -5.57241,0.27397 -8.24388,0.78037 2.34681,9.06378 1.29004,16.43494 -1.79163,22.57989 -3.22509,6.43114 -8.52863,11.50776 -14.14004,16.30925 -11.22289,9.60306 -23.53667,18.0424 -25.21567,32.96835 -2.23924,19.90683 5.72398,29.59 15.05386,38.67952 9.32985,9.08954 20.29625,17.43104 22.09365,33.41002 1.11146,9.88093 -0.69576,17.16927 -4.15619,22.83057 -3.46044,5.6613 -8.46779,9.65121 -13.55283,13.32927 -5.08516,3.677879 -10.26708,7.0668 -14.32583,11.376609 -4.05868,4.309808 -7.04629,9.477871 -7.89877,17.056038 -3.14178,27.93028 9.69212,47.47558 18.26799,66.6757326 8.98354,6.72851662 18.83163,11.1952405 30.58171,11.904275 -0.74667,-2.3364465 -1.62193,-4.6777393 -2.60482,-7.0435187 -8.22786,-19.8043359 -23.52539,-40.9900189 -20.04667,-71.9153149 0.93365,-8.300643 4.37033,-14.303391 8.80841,-19.016082 4.43809,-4.712625 9.826,-8.198239 14.81707,-11.808079 4.99111,-3.60981 9.56614,-7.32019 12.630463,-12.33344 3.064353,-5.01329 4.723958,-11.37404 3.677588,-20.67615 -1.641504,-14.59254 -11.547261,-22.05697 -21.080401,-31.34453 -9.53314,-9.28756 -18.42448,-20.55301 -16.0678,-41.50359 1.86783,-16.60474 15.37773,-25.75745 26.39544,-35.18491 5.50887,-4.71375 10.430022,-9.51279 13.301295,-15.23829 2.466547,-4.91846 3.499282,-10.54409 2.097739,-17.72822 -5.888486,-2.59986 -12.051224,-4.10761 -18.600524,-4.10761 z m -11.65253,1.55894 c -9.19985,2.48687 -17.54791,7.77614 -25.53838,14.53616 -0.51924,2.59946 -1.36908,5.01628 -2.4969,7.26516 -3.22509,6.43114 -8.52857,11.50776 -14.13998,16.30925 -11.22289,9.60306 -23.53765,18.04243 -25.21661,32.96835 -2.23931,19.90683 5.72423,29.59 15.05408,38.67955 9.32988,9.08951 20.29599,17.43098 22.09343,33.40999 1.11148,9.8809 -0.69557,17.16927 -4.15594,22.83057 -3.46044,5.6613 -8.46805,9.65121 -13.55327,13.32908 -5.08529,3.67788 -10.26696,7.066801 -14.32561,11.376583 -4.05874,4.309809 -7.04563,9.477899 -7.89805,17.056065 -0.57401,5.102813 -0.6045,9.920048 -0.23518,14.512176 15.30356,16.557304 27.77513,34.392 41.92448,47.049669 -8.23144,-17.109366 -18.39699,-36.113965 -15.49184,-61.940666 0.93371,-8.300643 4.37064,-14.303391 8.80866,-19.016082 4.43808,-4.71263 9.82578,-8.198215 14.81685,-11.808055 4.99114,-3.60983 9.56614,-7.32018 12.63046,-12.33344 3.06432,-5.01332 4.72415,-11.37403 3.67781,-20.67618 -1.64151,-14.59254 -11.54751,-22.05697 -21.08065,-31.34453 -9.53314,-9.28756 -18.42423,-20.55301 -16.06755,-41.50359 1.86783,-16.60473 15.37754,-25.75745 26.39522,-35.18494 5.50884,-4.71371 10.43024,-9.51276 13.30155,-15.23828 2.74953,-5.48275 3.70188,-11.85424 1.49739,-20.27687 z m 34.065902,4.40746 c 0.842798,6.74615 -0.324406,12.465 -2.796139,17.39386 -3.225091,6.43114 -8.528344,11.50772 -14.139793,16.30925 -11.22288,9.60306 -23.53692,18.0424 -25.21591,32.96835 -2.23922,19.90679 5.72422,29.59 15.05408,38.67955 9.32988,9.08951 20.29602,17.43101 22.093423,33.40999 1.111455,9.88093 -0.695503,17.16927 -4.155942,22.83057 -3.460439,5.6613 -8.468041,9.65121 -13.553271,13.32908 -5.08522,3.67788 -10.26692,7.06677 -14.3256,11.376583 -4.05869,4.309809 -7.04652,9.477899 -7.89899,17.056065 -3.33593,29.656218 11.34359,49.859336 19.80811,70.2332409 1.16195,2.7968753 2.18463,5.6053617 3.03585,8.4381854 9.007925,-0.048455 16.841647,-2.1231044 23.982407,-5.6613015 -0.196066,-0.4915923 -0.375532,-0.9801469 -0.580553,-1.4736357 -8.227857,-19.8043311 -23.526364,-40.9900501 -20.047634,-71.9153411 0.93368,-8.300612 4.37036,-14.30336 8.80844,-19.016051 4.438079,-4.71263 9.825994,-8.198245 14.817067,-11.808085 4.991105,-3.6098 9.567052,-7.32015 12.631404,-12.33344 3.064322,-5.01326 4.723265,-11.37403 3.676864,-20.67618 -1.641473,-14.59251 -11.546534,-22.05694 -21.079707,-31.34447 -9.533174,-9.28759 -18.424518,-20.55304 -16.067798,-41.50365 1.8678,-16.6047 15.376815,-25.75742 26.394522,-35.18488 4.949466,-4.23506 9.410775,-8.54525 12.350965,-13.52809 -7.292326,-7.14412 -14.799219,-13.3364 -22.791826,-17.57963 z m -64.658642,14.62513 c -8.20636,7.65115 -16.13911,16.60058 -24.35103,25.35724 3.45814,-3.08282 7.09299,-5.9664 10.49187,-8.87465 5.5088,-4.71374 10.42996,-9.51279 13.30129,-15.23828 0.20355,-0.40592 0.37415,-0.82842 0.55787,-1.24431 z m 89.978359,5.47394 c -3.24106,5.18343 -7.803332,9.49798 -12.601993,13.60407 -11.222915,9.60303 -23.537832,18.04237 -25.216828,32.96832 -2.239248,19.90683 5.724227,29.59 15.054082,38.67955 9.329819,9.08951 20.296023,17.43101 22.093426,33.40999 1.111455,9.88093 -0.695503,17.16927 -4.155942,22.83057 -3.460439,5.6613 -8.468041,9.65121 -13.553269,13.32908 -5.085224,3.67788 -10.266892,7.066801 -14.325608,11.376583 -4.05868,4.309809 -7.045597,9.477929 -7.898047,17.056065 -3.33596,29.656187 11.343527,49.859336 19.808052,70.2332409 0.156655,0.3769911 0.29367,0.7557512 0.4458,1.1331154 6.759317,-3.8469304 12.933336,-8.9995283 18.952775,-14.9604053 -7.627194,-15.791742 -15.623569,-33.534712 -13.008225,-56.784772 0.933713,-8.300643 4.369637,-14.303391 8.807752,-19.016052 4.438016,-4.712691 9.826621,-8.198245 14.81776,-11.808085 4.991074,-3.60983 9.566137,-7.32018 12.630427,-12.33347 3.064352,-5.01329 4.724211,-11.37403 3.677841,-20.67615 -1.641508,-14.59254 -11.547258,-22.05697 -21.080401,-31.34453 -9.533142,-9.28756 -18.424548,-20.55301 -16.067831,-41.50362 1.728709,-15.36791 13.391708,-24.33063 23.859755,-33.05771 -4.055792,-4.51971 -8.119347,-8.95843 -12.239558,-13.13582 z m 14.543983,15.71445 c -10.479459,8.76883 -21.154411,17.04061 -22.708679,30.85794 -2.23931,19.90683 5.723285,29.59 15.053171,38.67952 9.32985,9.08954 20.296903,17.43101 22.094341,33.41002 1.111513,9.88093 -0.695792,17.16924 -4.1562,22.83057 -3.460434,5.6613 -8.467787,9.65121 -13.552824,13.32927 -5.085255,3.67791 -10.267145,7.0668 -14.325825,11.376609 -4.058747,4.309808 -7.046299,9.477871 -7.898772,17.056038 -2.445463,21.739919 4.791426,38.394164 12.163099,53.765393 5.842013,-6.034381 11.610833,-12.757279 17.700224,-19.703637 -3.253311,-10.178091 -5.127586,-21.44159 -3.665362,-34.440582 0.933709,-8.300643 4.37058,-14.303391 8.808659,-19.016082 4.438052,-4.712656 9.825932,-8.198239 14.817072,-11.808079 4.991073,-3.60984 9.566798,-7.32015 12.6311507,-12.33344 3.0643213,-5.01326 4.7232644,-11.37404 3.6768949,-20.67615 -1.6415041,-14.59254 -11.5463476,-22.05694 -21.0795206,-31.34453 -9.53308,-9.28756 -18.424482,-20.55301 -16.067769,-41.50362 0.806186,-7.16703 3.786916,-12.94173 7.794221,-17.95347 -3.789525,-4.11682 -7.539581,-8.33174 -11.283726,-12.52561 z m -137.116632,12.70324 c -2.02662,2.02728 -4.07081,4.02783 -6.15881,5.95482 -9.23975,8.52829 -18.84988,16.28926 -27.76103,23.97235 1.43046,12.35846 7.8463,19.82476 15.11587,26.90705 9.32985,9.08954 20.29602,17.43101 22.09346,33.41002 1.11148,9.8809 -0.69564,17.16927 -4.15598,22.83054 -3.46047,5.66133 -8.46782,9.65124 -13.55286,13.3293 -5.08525,3.67791 -10.26714,7.0668 -14.32582,11.376609 -1.93207,2.051585 -3.61019,4.308939 -4.94209,6.916902 7.70771,6.704026 15.64124,13.489193 22.76496,20.750553 -0.0925,-3.526739 0.0486,-7.184006 0.47679,-10.990274 0.93374,-8.300612 4.37036,-14.30336 8.80844,-19.016051 4.43808,-4.712625 9.82593,-8.198239 14.81707,-11.808079 4.99104,-3.60981 9.5668,-7.32015 12.63115,-12.33344 3.06432,-5.01326 4.72345,-11.37404 3.67708,-20.67615 -1.64144,-14.59254 -11.54653,-22.05694 -21.0797,-31.34453 -9.53315,-9.28756 -18.42449,-20.55301 -16.06777,-41.50362 0.79682,-7.08397 3.72233,-12.80456 7.6594,-17.77585 z m 150.809298,2.40461 c -3.514396,4.50207 -6.05278,9.56444 -6.748602,15.75009 -2.23931,19.90683 5.7242,29.59003 15.054082,38.67955 9.329881,9.08951 20.2959912,17.43098 22.0934296,33.40999 1.1114819,9.8809 -0.6955694,17.16927 -4.1559463,22.83057 -3.4604391,5.6613 -8.4680403,9.65121 -13.5532643,13.32908 -5.085224,3.67788 -10.266928,7.06677 -14.325608,11.376583 -4.058746,4.309809 -7.046516,9.477899 -7.898993,17.056065 -1.303557,11.588465 0.162312,21.721144 2.914893,30.997 3.717026,-4.200546 7.557713,-8.447624 11.643356,-12.653073 3.59865,-3.704173 7.431666,-7.340738 11.350349,-10.951042 0.07661,-1.052101 0.169791,-2.11292 0.290714,-3.188178 0.933713,-8.300642 4.369669,-14.30249 8.8077832,-19.015151 4.4380522,-4.71266 9.8257142,-8.199141 14.8168185,-11.809014 4.9910733,-3.60977 9.5670513,-7.32015 12.6314043,-12.33344 3.064348,-5.01329 4.723264,-11.37379 3.676864,-20.67593 -1.641473,-14.59251 -11.546539,-22.05694 -21.0797125,-31.34453 -9.5331423,-9.28756 -18.4244815,-20.5532 -16.0677995,-41.50384 0.04426,-0.39351 0.101066,-0.77894 0.158227,-1.16419 -3.617973,-3.13361 -7.252381,-6.39166 -10.835219,-9.83605 -2.967628,-2.85297 -5.881859,-5.87135 -8.772807,-8.95452 z m 22.806283,21.52096 c -1.787034,19.09163 6.0136572,28.58999 15.1521883,37.49311 9.3298237,9.08951 20.2969697,17.43101 22.0943097,33.40999 1.111455,9.88093 -0.695507,17.16859 -4.155942,22.82989 -3.460439,5.6613 -8.468702,9.65191 -13.5539573,13.329762 -5.0852596,3.677912 -10.26620319,7.066798 -14.3248877,11.376611 -3.9265046,4.169443 -6.832065,9.163454 -7.790132,16.344673 23.812179,-21.545822 49.585961,-42.323476 49.585961,-69.192906 3.1e-5,-29.10409 -22.671374,-44.88857 -47.0075711,-65.59116 z m -210.595651,8.68071 c -6.53516,5.74337 -12.62163,11.48904 -17.76581,17.5205 1.94253,2.35339 4.07386,4.54966 6.28857,6.70734 9.32988,9.08952 20.29693,17.43098 22.09437,33.40999 1.11148,9.88091 -0.69551,17.16928 -4.15594,22.83058 -3.46044,5.66129 -8.46874,9.6512 -13.55393,13.32911 -1.81607,1.31346 -3.62812,2.59725 -5.41315,3.892094 4.10425,4.06831 8.566,8.067279 13.14492,12.076642 1.42241,-2.598524 3.13352,-4.895177 5.05072,-6.930963 4.43809,-4.712691 9.82572,-8.198273 14.81682,-11.808083 4.99108,-3.60983 9.56708,-7.32018 12.63137,-12.33347 3.06429,-5.01329 4.72324,-11.374 3.6769,-20.67615 -1.64144,-14.59254 -11.54751,-22.05697 -21.08065,-31.34453 -6.98954,-6.80947 -13.61499,-14.6996 -15.73432,-26.67319 z m -19.96675,20.19725 c -3.89499,4.90353 -7.1592,10.01757 -9.54911,15.49263 5.19446,5.81591 9.42319,12.5601 10.47924,21.94808 1.11145,9.88093 -0.69554,17.16924 -4.15598,22.83054 -0.56587,0.92586 -1.18608,1.79277 -1.82833,2.63512 2.86364,4.16336 6.27933,8.17273 10.06307,12.09822 1.94671,-1.41754 3.90536,-2.79597 5.81137,-4.1745 4.99101,-3.60984 9.56702,-7.32019 12.63138,-12.33348 3.06432,-5.01326 4.72326,-11.37403 3.67689,-20.67615 -1.6415,-14.59254 -11.54666,-22.05694 -21.07971,-31.34453 -2.0869,-2.03342 -4.13461,-4.17217 -6.04882,-6.47593 z m -10.97026,19.1245 c -1.93501,5.45429 -3.02714,11.26729 -3.02714,17.5887 0,8.41252 2.62732,15.98603 6.93049,23.0776 0.29524,-0.4256 0.59316,-0.84888 0.86536,-1.29419 3.06433,-5.01326 4.72327,-11.37403 3.67684,-20.67615 -0.87998,-7.82323 -4.1458,-13.59091 -8.44555,-18.69596 z" />
          <path
             style="color:#000000;fill:#ffffff;stroke-width:3.66157;stroke-linejoin:round;-inkscape-stroke:none;paint-order:stroke fill markers"
             d="m -133.75977,-286.94922 c -17.41607,0 -31.66399,9.4812 -44.70312,21.68555 -13.03913,12.20435 -25.15366,27.29462 -38.5,39.61328 -15.00228,13.8471 -31.22126,25.78281 -43.91016,38.99414 -12.68889,13.21133 -21.91992,28.01146 -21.91992,46.95508 0,17.19231 10.08316,30.93784 22.80078,43.466795 12.71762,12.52896 28.28948,24.166109 40.5625,37.251953 14.01306,14.941139 25.6976,31.315711 38.70313,44.195313 13.00552,12.8796012 27.6784,22.333984 46.96679,22.333984 18.70977,0 32.86303,-8.41781442 45.458989,-20.164063 12.595959,-11.746248 23.948785,-26.833688 37.863281,-41.156249 12.959606,-13.339633 29.159176,-26.053014 42.2929687,-39.716797 13.1337929,-13.663786 23.4160153,-28.538686 23.4160153,-46.210936 0,-18.3482 -8.6996118,-31.94302 -20.646484,-43.97461 -11.946872,-12.0316 -27.182687,-22.8646 -41.392578,-36.52539 -13.558744,-13.03485 -26.336572,-29.48822 -40.109375,-42.86328 -13.772807,-13.37507 -28.813107,-23.88477 -46.882817,-23.88477 z m 0,6.4961 c 15.53724,0 29.06265,9.13994 42.357426,22.05078 13.294773,12.91084 26.083818,29.3786 40.132813,42.88476 14.637694,14.07207 29.92338,24.97562 41.285156,36.41797 11.3617755,11.44235 18.7597656,23.06015 18.7597656,39.39844 0,15.13552 -8.93385337,28.52603 -21.6054686,41.708983 -12.671615,13.182955 -28.867827,25.898722 -42.267578,39.691406 -14.26597,14.684342 -25.65459,29.76341 -37.632813,40.933594 -11.978221,11.1701831 -24.230181,18.4179682 -41.029301,18.4179682 -17.19827,10e-8 -29.97393,-8.154741 -42.39453,-20.4550782 -12.42059,-12.300337 -24.14158,-28.676584 -38.53515,-44.023437 -12.82463,-13.673984 -28.49383,-25.365004 -40.74414,-37.433596 -12.25032,-12.06859 -20.86133,-24.19019 -20.86133,-38.83984 0,-16.86059 7.99001,-29.83877 20.10742,-42.45508 12.11741,-12.61631 28.28963,-24.55895 43.63281,-38.7207 13.84102,-12.77524 25.98695,-27.90334 38.53125,-39.64453 12.5443,-11.7412 25.20444,-19.93165 40.26367,-19.93164 z"
             id="path4836" />
        </g>
      </g>
    </g>
  </g>
</svg>
