<?xml version="1.0" encoding="UTF-8" standalone="no"?>
<!-- Created with Inkscape (http://www.inkscape.org/) -->

<svg
   width="200"
   height="34.405998"
   viewBox="0 0 52.916665 9.1032539"
   version="1.1"
   id="svg9965"
   inkscape:version="1.2.2 (732a01da63, 2022-12-09)"
   sodipodi:docname="brainloggers_white.svg"
   xmlns:inkscape="http://www.inkscape.org/namespaces/inkscape"
   xmlns:sodipodi="http://sodipodi.sourceforge.net/DTD/sodipodi-0.dtd"
   xmlns:xlink="http://www.w3.org/1999/xlink"
   xmlns="http://www.w3.org/2000/svg"
   xmlns:svg="http://www.w3.org/2000/svg">
  <sodipodi:namedview
     id="namedview9967"
     pagecolor="#ffffff"
     bordercolor="#000000"
     borderopacity="0.25"
     inkscape:showpageshadow="2"
     inkscape:pageopacity="0.0"
     inkscape:pagecheckerboard="0"
     inkscape:deskcolor="#d1d1d1"
     inkscape:document-units="mm"
     showgrid="false"
     inkscape:zoom="1.4324916"
     inkscape:cx="257.24409"
     inkscape:cy="43.630274"
     inkscape:window-width="1920"
     inkscape:window-height="991"
     inkscape:window-x="-9"
     inkscape:window-y="-9"
     inkscape:window-maximized="1"
     inkscape:current-layer="layer1" />
  <defs
     id="defs9962">
    <linearGradient
       inkscape:collect="always"
       xlink:href="#linearGradient9803"
       id="linearGradient9781"
       x1="32.21162"
       y1="122.62083"
       x2="32.21162"
       y2="125.59702"
       gradientUnits="userSpaceOnUse" />
    <linearGradient
       inkscape:collect="always"
       id="linearGradient9803">
      <stop
         style="stop-color:#ececec;stop-opacity:1"
         offset="0"
         id="stop9801" />
      <stop
         style="stop-color:#ffffff;stop-opacity:1"
         offset="1"
         id="stop9799" />
    </linearGradient>
    <linearGradient
       inkscape:collect="always"
       xlink:href="#linearGradient9803"
       id="linearGradient9777"
       x1="32.21162"
       y1="118.23417"
       x2="32.21162"
       y2="121.21036"
       gradientUnits="userSpaceOnUse" />
    <linearGradient
       inkscape:collect="always"
       xlink:href="#linearGradient9803"
       id="linearGradient11727"
       gradientUnits="userSpaceOnUse"
       x1="32.21162"
       y1="122.62083"
       x2="32.21162"
       y2="125.59702" />
    <linearGradient
       inkscape:collect="always"
       xlink:href="#linearGradient9803"
       id="linearGradient11729"
       gradientUnits="userSpaceOnUse"
       x1="32.21162"
       y1="122.62083"
       x2="32.21162"
       y2="125.59702" />
    <linearGradient
       inkscape:collect="always"
       xlink:href="#linearGradient9803"
       id="linearGradient11731"
       gradientUnits="userSpaceOnUse"
       x1="32.21162"
       y1="122.62083"
       x2="32.21162"
       y2="125.59702" />
    <linearGradient
       inkscape:collect="always"
       xlink:href="#linearGradient9803"
       id="linearGradient11733"
       gradientUnits="userSpaceOnUse"
       x1="32.21162"
       y1="118.23417"
       x2="32.21162"
       y2="121.21036" />
    <linearGradient
       inkscape:collect="always"
       xlink:href="#linearGradient9803"
       id="linearGradient11735"
       gradientUnits="userSpaceOnUse"
       x1="32.21162"
       y1="118.23417"
       x2="32.21162"
       y2="121.21036" />
    <linearGradient
       inkscape:collect="always"
       xlink:href="#linearGradient9803"
       id="linearGradient11737"
       gradientUnits="userSpaceOnUse"
       x1="32.21162"
       y1="118.23417"
       x2="32.21162"
       y2="121.21036" />
    <linearGradient
       inkscape:collect="always"
       xlink:href="#linearGradient9803"
       id="linearGradient11739"
       gradientUnits="userSpaceOnUse"
       x1="32.21162"
       y1="118.23417"
       x2="32.21162"
       y2="121.21036" />
    <linearGradient
       inkscape:collect="always"
       xlink:href="#linearGradient9803"
       id="linearGradient11741"
       gradientUnits="userSpaceOnUse"
       x1="32.21162"
       y1="118.23417"
       x2="32.21162"
       y2="121.21036" />
    <linearGradient
       inkscape:collect="always"
       xlink:href="#linearGradient9803"
       id="linearGradient11743"
       gradientUnits="userSpaceOnUse"
       x1="32.21162"
       y1="118.23417"
       x2="32.21162"
       y2="121.21036" />
    <linearGradient
       inkscape:collect="always"
       xlink:href="#linearGradient9803"
       id="linearGradient11745"
       gradientUnits="userSpaceOnUse"
       x1="32.21162"
       y1="118.23417"
       x2="32.21162"
       y2="121.21036" />
    <linearGradient
       inkscape:collect="always"
       xlink:href="#linearGradient9803"
       id="linearGradient11747"
       gradientUnits="userSpaceOnUse"
       x1="32.21162"
       y1="118.23417"
       x2="32.21162"
       y2="121.21036" />
    <linearGradient
       inkscape:collect="always"
       xlink:href="#linearGradient9803"
       id="linearGradient11749"
       gradientUnits="userSpaceOnUse"
       x1="32.21162"
       y1="118.23417"
       x2="32.21162"
       y2="121.21036" />
  </defs>
  <g
     inkscape:label="Layer 1"
     inkscape:groupmode="layer"
     id="layer1">
    <g
       id="g9960"
       transform="matrix(3.0891015,0,0,3.0891015,-77.065666,-378.78832)"
       style="stroke-width:0.323719">
      <g
         id="g9835"
         style="stroke-width:0.323719">
        <path
           d="m 29.525416,123.23834 c -0.08971,0.024 -0.160817,0.0218 -0.21337,-0.007 -0.05107,-0.0311 -0.08516,-0.0786 -0.102265,-0.14246 l -0.01763,-0.0658 c -0.01711,-0.0638 -0.01105,-0.12098 0.01814,-0.1715 0.03066,-0.053 0.09082,-0.0916 0.180526,-0.11567 0.0897,-0.024 0.160106,-0.0204 0.211182,0.0107 0.05255,0.0287 0.08736,0.0748 0.104457,0.13866 l 0.01762,0.0658 c 0.01711,0.0638 0.01032,0.12225 -0.02033,0.1753 -0.02917,0.0506 -0.08863,0.0878 -0.178338,0.11187 z"
           style="font-weight:bold;font-size:3.09562px;font-family:'IBM Plex Sans';-inkscape-font-specification:'IBM Plex Sans Bold';text-align:center;letter-spacing:-0.079375px;text-anchor:middle;fill:url(#linearGradient11727);fill-opacity:1;stroke-width:0.226603;stroke-linejoin:round;paint-order:stroke fill markers"
           id="path9675"
           sodipodi:nodetypes="scsssscssss" />
        <path
           id="path9677"
           style="font-weight:bold;font-size:3.09562px;font-family:'IBM Plex Sans';-inkscape-font-specification:'IBM Plex Sans Bold';text-align:center;letter-spacing:-0.079375px;text-anchor:middle;fill:url(#linearGradient11729);fill-opacity:1;stroke-width:0.226603;stroke-linejoin:round;paint-order:stroke fill markers"
           d="m 29.775444,123.25479 -0.442351,0.11834 0.412378,1.53841 0.44235,-0.11834 z" />
        <path
           d="m 36.241242,125.02922 q 0,0.13002 -0.04643,0.22908 -0.04334,0.0991 -0.145495,0.16716 -0.102155,0.0712 -0.272414,0.10525 -0.167164,0.0371 -0.414813,0.0371 -0.210502,0 -0.359092,-0.0279 -0.145494,-0.0248 -0.238363,-0.0743 -0.08977,-0.0464 -0.133111,-0.11763 -0.04024,-0.0681 -0.04024,-0.15788 0,-0.1362 0.08049,-0.21359 0.08049,-0.0774 0.222884,-0.096 v -0.034 q -0.117633,-0.0217 -0.17645,-0.0991 -0.05882,-0.0805 -0.05882,-0.18574 0,-0.065 0.02477,-0.11144 0.02786,-0.0495 0.0681,-0.0836 0.04334,-0.0371 0.09906,-0.0588 0.05572,-0.0217 0.111442,-0.0341 v -0.0124 q -0.14859,-0.0681 -0.219789,-0.18574 -0.0712,-0.12073 -0.0712,-0.2786 0,-0.24765 0.170259,-0.39624 0.173354,-0.15169 0.526255,-0.15169 0.160972,0 0.27551,0.031 v -0.0619 q 0,-0.13001 0.06191,-0.18573 0.06501,-0.0588 0.182641,-0.0588 h 0.256937 v 0.34052 h -0.359097 v 0.0186 q 0.142398,0.0681 0.210502,0.18884 0.0681,0.11763 0.0681,0.27551 0,0.24455 -0.173355,0.39314 -0.170259,0.14549 -0.52316,0.14549 -0.157877,0 -0.287893,-0.0341 -0.0712,0.0464 -0.0712,0.13002 0,0.0588 0.04334,0.0929 0.04643,0.0309 0.151685,0.0309 h 0.470534 q 0.29718,0 0.430292,0.12383 0.136207,0.12382 0.136207,0.3498 z m -0.430291,0.0619 q 0,-0.0712 -0.05572,-0.10834 -0.05572,-0.0371 -0.195024,-0.0371 h -0.557212 q -0.03096,0.031 -0.04643,0.0681 -0.01238,0.0403 -0.01238,0.0774 0,0.0898 0.07739,0.13002 0.07739,0.0433 0.263127,0.0433 h 0.185738 q 0.185737,0 0.263127,-0.0433 0.07739,-0.0402 0.07739,-0.13002 z m -0.442674,-1.0556 q 0.136207,0 0.201215,-0.0557 0.0681,-0.0588 0.0681,-0.16717 v -0.0371 q 0,-0.10835 -0.0681,-0.16407 -0.06501,-0.0588 -0.201215,-0.0588 -0.136207,0 -0.204311,0.0588 -0.06501,0.0557 -0.06501,0.16407 v 0.0371 q 0,0.10835 0.06501,0.16717 0.0681,0.0557 0.204311,0.0557 z"
           style="font-weight:bold;font-size:3.09562px;font-family:'IBM Plex Sans';-inkscape-font-specification:'IBM Plex Sans Bold';text-align:center;letter-spacing:-0.079375px;text-anchor:middle;fill:url(#linearGradient11731);fill-opacity:1;stroke-width:0.226603;stroke-linejoin:round;paint-order:stroke fill markers"
           id="path9681" />
        <path
           d="m 37.892318,125.02922 q 0,0.13002 -0.04643,0.22908 -0.04334,0.0991 -0.145494,0.16716 -0.102156,0.0712 -0.272415,0.10525 -0.167163,0.0371 -0.414813,0.0371 -0.210502,0 -0.359092,-0.0279 -0.145494,-0.0248 -0.238362,-0.0743 -0.08977,-0.0464 -0.133112,-0.11763 -0.04024,-0.0681 -0.04024,-0.15788 0,-0.1362 0.08049,-0.21359 0.08049,-0.0774 0.222885,-0.096 v -0.034 q -0.117634,-0.0217 -0.176451,-0.0991 -0.05882,-0.0805 -0.05882,-0.18574 0,-0.065 0.02476,-0.11144 0.02786,-0.0495 0.0681,-0.0836 0.04334,-0.0371 0.09906,-0.0588 0.05572,-0.0217 0.111442,-0.0341 v -0.0124 q -0.14859,-0.0681 -0.219789,-0.18574 -0.0712,-0.12073 -0.0712,-0.2786 0,-0.24765 0.170259,-0.39624 0.173355,-0.15169 0.526255,-0.15169 0.160973,0 0.275511,0.031 v -0.0619 q 0,-0.13001 0.06191,-0.18573 0.06501,-0.0588 0.182642,-0.0588 h 0.256936 v 0.34052 h -0.359092 v 0.0186 q 0.142399,0.0681 0.210502,0.18884 0.0681,0.11763 0.0681,0.27551 0,0.24455 -0.173355,0.39314 -0.170259,0.14549 -0.52316,0.14549 -0.157876,0 -0.287892,-0.0341 -0.0712,0.0464 -0.0712,0.13002 0,0.0588 0.04334,0.0929 0.04643,0.0309 0.151686,0.0309 h 0.470534 q 0.297179,0 0.430291,0.12383 0.136207,0.12382 0.136207,0.3498 z m -0.430291,0.0619 q 0,-0.0712 -0.05572,-0.10834 -0.05572,-0.0371 -0.195024,-0.0371 h -0.557212 q -0.03096,0.031 -0.04643,0.0681 -0.01238,0.0403 -0.01238,0.0774 0,0.0898 0.07739,0.13002 0.07739,0.0433 0.263128,0.0433 h 0.185737 q 0.185737,0 0.263128,-0.0433 0.07739,-0.0402 0.07739,-0.13002 z m -0.442674,-1.0556 q 0.136208,0 0.201216,-0.0557 0.0681,-0.0588 0.0681,-0.16717 v -0.0371 q 0,-0.10835 -0.0681,-0.16407 -0.06501,-0.0588 -0.201216,-0.0588 -0.136207,0 -0.20431,0.0588 -0.06501,0.0557 -0.06501,0.16407 v 0.0371 q 0,0.10835 0.06501,0.16717 0.0681,0.0557 0.20431,0.0557 z"
           style="font-weight:bold;font-size:3.09562px;font-family:'IBM Plex Sans';-inkscape-font-specification:'IBM Plex Sans Bold';text-align:center;letter-spacing:-0.079375px;text-anchor:middle;fill:url(#linearGradient9781);fill-opacity:1;stroke-width:0.226603;stroke-linejoin:round;paint-order:stroke fill markers"
           id="path9683" />
        <g
           id="g9703"
           style="fill:url(#linearGradient9777);fill-opacity:1;stroke-width:0.323719"
           transform="translate(0,4.3866605)">
          <path
             d="m 24.947489,118.23417 h 0.458151 v 0.93797 h 0.01548 q 0.03405,-0.1362 0.154781,-0.22288 0.123825,-0.0867 0.281702,-0.0867 0.309562,0 0.467439,0.21669 0.157876,0.2167 0.157876,0.63151 0,0.41481 -0.157876,0.6346 -0.157877,0.2167 -0.467439,0.2167 -0.08049,0 -0.151685,-0.0248 -0.0712,-0.0217 -0.130017,-0.0619 -0.05572,-0.0433 -0.09596,-0.0991 -0.04024,-0.0588 -0.05882,-0.12383 h -0.01548 v 0.27242 h -0.458152 z m 0.758427,1.95643 q 0.130016,0 0.213597,-0.0898 0.08668,-0.0929 0.08668,-0.24765 v -0.2817 q 0,-0.15478 -0.08668,-0.24456 -0.08358,-0.0929 -0.213597,-0.0929 -0.130017,0 -0.216694,0.065 -0.08358,0.0619 -0.08358,0.17336 v 0.47982 q 0,0.11144 0.08358,0.17645 0.08668,0.0619 0.216694,0.0619 z"
             style="font-weight:bold;font-size:3.09562px;font-family:'IBM Plex Sans';-inkscape-font-specification:'IBM Plex Sans Bold';text-align:center;letter-spacing:-0.079375px;text-anchor:middle;fill:url(#linearGradient11733);fill-opacity:1;stroke-width:0.226603;stroke-linejoin:round;paint-order:stroke fill markers"
             id="path9685" />
          <path
             d="m 26.75025,120.52493 v -1.6252 h 0.458152 v 0.3529 h 0.01548 q 0.01238,-0.0681 0.04334,-0.13002 0.03096,-0.065 0.08049,-0.11454 0.05262,-0.0495 0.123824,-0.0774 0.0712,-0.031 0.167164,-0.031 h 0.08049 v 0.42719 h -0.114538 q -0.201215,0 -0.300275,0.0526 -0.09596,0.0526 -0.09596,0.19502 v 0.95036 z"
             style="font-weight:bold;font-size:3.09562px;font-family:'IBM Plex Sans';-inkscape-font-specification:'IBM Plex Sans Bold';text-align:center;letter-spacing:-0.079375px;text-anchor:middle;fill:url(#linearGradient11735);fill-opacity:1;stroke-width:0.226603;stroke-linejoin:round;paint-order:stroke fill markers"
             id="path9687" />
          <path
             d="m 29.079265,120.52493 q -0.123824,0 -0.207406,-0.0774 -0.08049,-0.0774 -0.102156,-0.20741 h -0.01857 q -0.03715,0.15788 -0.164068,0.24146 -0.126921,0.0805 -0.312658,0.0805 -0.244554,0 -0.37457,-0.13002 -0.130016,-0.13002 -0.130016,-0.34361 0,-0.25694 0.185737,-0.38077 0.188833,-0.12692 0.510778,-0.12692 h 0.256936 v -0.10215 q 0,-0.11763 -0.06191,-0.18574 -0.06191,-0.0712 -0.207407,-0.0712 -0.136207,0 -0.216693,0.0588 -0.08049,0.0588 -0.133112,0.13311 l -0.272414,-0.24146 q 0.09906,-0.14549 0.247649,-0.22598 0.151686,-0.0836 0.408622,-0.0836 0.346709,0 0.520064,0.15169 0.173355,0.15168 0.173355,0.44267 v 0.71199 h 0.151685 v 0.356 z m -0.634602,-0.2817 q 0.114538,0 0.195024,-0.0495 0.08358,-0.0495 0.08358,-0.16098 v -0.19192 h -0.222885 q -0.269318,0 -0.269318,0.18264 v 0.0464 q 0,0.0898 0.05572,0.13311 0.05572,0.0403 0.157876,0.0403 z"
             style="font-weight:bold;font-size:3.09562px;font-family:'IBM Plex Sans';-inkscape-font-specification:'IBM Plex Sans Bold';text-align:center;letter-spacing:-0.079375px;text-anchor:middle;fill:url(#linearGradient11737);fill-opacity:1;stroke-width:0.226603;stroke-linejoin:round;paint-order:stroke fill markers"
             id="path9689" />
          <path
             d="m 30.446005,120.52493 v -1.6252 h 0.458152 v 0.27551 h 0.01857 q 0.04334,-0.12692 0.151685,-0.21979 0.108347,-0.0929 0.300275,-0.0929 0.250746,0 0.377666,0.16716 0.130016,0.16717 0.130016,0.47673 v 1.01846 h -0.458152 v -0.98131 q 0,-0.15788 -0.04953,-0.23217 -0.04953,-0.0774 -0.17645,-0.0774 -0.05572,0 -0.108347,0.0155 -0.05262,0.0124 -0.09596,0.0433 -0.04024,0.031 -0.06501,0.0774 -0.02477,0.0433 -0.02477,0.10216 v 1.05251 z"
             style="font-weight:bold;font-size:3.09562px;font-family:'IBM Plex Sans';-inkscape-font-specification:'IBM Plex Sans Bold';text-align:center;letter-spacing:-0.079375px;text-anchor:middle;fill:url(#linearGradient11739);fill-opacity:1;stroke-width:0.226603;stroke-linejoin:round;paint-order:stroke fill markers"
             id="path9691" />
          <path
             d="m 32.666678,120.52493 q -0.235267,0 -0.346709,-0.11454 -0.108347,-0.11454 -0.108347,-0.33123 v -1.84499 h 0.458152 v 1.93476 h 0.204311 v 0.356 z"
             style="font-weight:bold;font-size:3.09562px;font-family:'IBM Plex Sans';-inkscape-font-specification:'IBM Plex Sans Bold';text-align:center;letter-spacing:-0.079375px;text-anchor:middle;fill:url(#linearGradient11741);fill-opacity:1;stroke-width:0.226603;stroke-linejoin:round;paint-order:stroke fill markers"
             id="path9693" />
          <path
             d="m 33.729585,120.56208 q -0.179546,0 -0.321944,-0.0588 -0.139303,-0.0588 -0.238363,-0.17026 -0.09596,-0.11144 -0.14859,-0.26932 -0.05262,-0.15788 -0.05262,-0.3529 0,-0.19502 0.05262,-0.3529 0.05263,-0.15788 0.14859,-0.26622 0.09906,-0.11145 0.238363,-0.17026 0.142398,-0.0588 0.321944,-0.0588 0.179546,0 0.318849,0.0588 0.142399,0.0588 0.238363,0.17026 0.09906,0.10834 0.151685,0.26622 0.05263,0.15788 0.05263,0.3529 0,0.19502 -0.05263,0.3529 -0.05262,0.15788 -0.151685,0.26932 -0.09596,0.11144 -0.238363,0.17026 -0.139303,0.0588 -0.318849,0.0588 z m 0,-0.36219 q 0.136207,0 0.210502,-0.0836 0.07429,-0.0836 0.07429,-0.23837 v -0.33123 q 0,-0.15478 -0.07429,-0.23836 -0.07429,-0.0836 -0.210502,-0.0836 -0.136207,0 -0.210502,0.0836 -0.0743,0.0836 -0.0743,0.23836 v 0.33123 q 0,0.15478 0.0743,0.23837 0.07429,0.0836 0.210502,0.0836 z"
             style="font-weight:bold;font-size:3.09562px;font-family:'IBM Plex Sans';-inkscape-font-specification:'IBM Plex Sans Bold';text-align:center;letter-spacing:-0.079375px;text-anchor:middle;fill:url(#linearGradient11743);fill-opacity:1;stroke-width:0.226603;stroke-linejoin:round;paint-order:stroke fill markers"
             id="path9695" />
          <path
             d="m 38.67662,120.56208 q -0.185737,0 -0.331231,-0.0588 -0.145495,-0.0619 -0.24765,-0.17026 -0.09906,-0.11144 -0.151685,-0.26932 -0.04953,-0.15788 -0.04953,-0.3529 0,-0.19193 0.04953,-0.34671 0.04953,-0.15788 0.145494,-0.26932 0.09906,-0.11144 0.241458,-0.17026 0.142399,-0.0619 0.32504,-0.0619 0.201216,0 0.343614,0.0681 0.145494,0.0681 0.235267,0.18265 0.09287,0.11453 0.133112,0.26622 0.04334,0.14859 0.04334,0.31266 v 0.1362 h -1.043223 v 0.0248 q 0,0.16097 0.08668,0.25694 0.08668,0.0929 0.272414,0.0929 0.142399,0 0.232172,-0.0557 0.08977,-0.0588 0.167163,-0.1393 l 0.229076,0.2848 q -0.108346,0.12692 -0.284797,0.19812 -0.173354,0.0712 -0.396239,0.0712 z M 38.66732,119.2 q -0.139303,0 -0.219789,0.0929 -0.07739,0.0898 -0.07739,0.24146 v 0.0248 h 0.569594 v -0.0279 q 0,-0.14859 -0.0681,-0.23836 Q 38.806625,119.2 38.667324,119.2 Z"
             style="font-weight:bold;font-size:3.09562px;font-family:'IBM Plex Sans';-inkscape-font-specification:'IBM Plex Sans Bold';text-align:center;letter-spacing:-0.079375px;text-anchor:middle;fill:url(#linearGradient11745);fill-opacity:1;stroke-width:0.226603;stroke-linejoin:round;paint-order:stroke fill markers"
             id="path9697" />
          <path
             d="m 39.659043,120.52493 v -1.6252 h 0.458152 v 0.3529 h 0.01548 q 0.01238,-0.0681 0.04334,-0.13002 0.03096,-0.065 0.08049,-0.11454 0.05263,-0.0495 0.123825,-0.0774 0.0712,-0.031 0.167163,-0.031 h 0.08049 v 0.42719 h -0.114538 q -0.201215,0 -0.300275,0.0526 -0.09596,0.0526 -0.09596,0.19502 v 0.95036 z"
             style="font-weight:bold;font-size:3.09562px;font-family:'IBM Plex Sans';-inkscape-font-specification:'IBM Plex Sans Bold';text-align:center;letter-spacing:-0.079375px;text-anchor:middle;fill:url(#linearGradient11747);fill-opacity:1;stroke-width:0.226603;stroke-linejoin:round;paint-order:stroke fill markers"
             id="path9699" />
          <path
             d="m 41.381317,120.56208 q -0.235267,0 -0.396239,-0.0743 -0.160973,-0.0774 -0.287893,-0.21669 l 0.269319,-0.27242 q 0.08668,0.096 0.191928,0.15169 0.105251,0.0557 0.238363,0.0557 0.136207,0 0.188833,-0.0402 0.05262,-0.0433 0.05262,-0.11454 0,-0.11454 -0.164068,-0.13621 l -0.17645,-0.0217 q -0.547925,-0.0681 -0.547925,-0.50149 0,-0.11763 0.04334,-0.2136 0.04643,-0.0991 0.126921,-0.16716 0.08358,-0.0712 0.198119,-0.10835 0.117634,-0.0402 0.263128,-0.0402 0.12692,0 0.222885,0.0186 0.09906,0.0155 0.173354,0.0495 0.07739,0.031 0.139303,0.0805 0.06501,0.0464 0.126921,0.10525 l -0.263128,0.26932 q -0.07739,-0.0774 -0.17645,-0.12073 -0.09596,-0.0464 -0.19812,-0.0464 -0.117634,0 -0.167164,0.0371 -0.04953,0.0371 -0.04953,0.0991 0,0.065 0.03405,0.10216 0.03715,0.0341 0.136208,0.0495 l 0.182641,0.0248 q 0.535542,0.0712 0.535542,0.48911 0,0.11764 -0.04953,0.2167 -0.04953,0.0991 -0.142398,0.17335 -0.08977,0.0712 -0.219789,0.11144 -0.126921,0.0403 -0.284797,0.0403 z"
             style="font-weight:bold;font-size:3.09562px;font-family:'IBM Plex Sans';-inkscape-font-specification:'IBM Plex Sans Bold';text-align:center;letter-spacing:-0.079375px;text-anchor:middle;fill:url(#linearGradient11749);fill-opacity:1;stroke-width:0.226603;stroke-linejoin:round;paint-order:stroke fill markers"
             id="path9701" />
        </g>
      </g>
    </g>
  </g>
</svg>
