<?xml version="1.0" encoding="UTF-8" standalone="no"?>
<!-- Created with Inkscape (http://www.inkscape.org/) -->

<svg
   xmlns:dc="http://purl.org/dc/elements/1.1/"
   xmlns:cc="http://creativecommons.org/ns#"
   xmlns:rdf="http://www.w3.org/1999/02/22-rdf-syntax-ns#"
   xmlns:svg="http://www.w3.org/2000/svg"
   xmlns="http://www.w3.org/2000/svg"
   xmlns:xlink="http://www.w3.org/1999/xlink"
   xmlns:sodipodi="http://sodipodi.sourceforge.net/DTD/sodipodi-0.dtd"
   xmlns:inkscape="http://www.inkscape.org/namespaces/inkscape"
   width="309"
   height="60"
   viewBox="0 0 81.756247 15.875"
   version="1.1"
   id="svg1028"
   inkscape:version="0.92.4 (5da689c313, 2019-01-14)"
   sodipodi:docname="logo.svg">
  <defs
     id="defs1022">
    <linearGradient
       id="linearGradient1715"
       inkscape:collect="always">
      <stop
         id="stop1707"
         offset="0"
         style="stop-color:#0e1f2f;stop-opacity:1" />
      <stop
         style="stop-color:#27368c;stop-opacity:1"
         offset="0.27693063"
         id="stop1709" />
      <stop
         id="stop1711"
         offset="0.71055013"
         style="stop-color:#62602b;stop-opacity:1" />
      <stop
         id="stop1713"
         offset="1"
         style="stop-color:#702340;stop-opacity:1" />
    </linearGradient>
    <linearGradient
       inkscape:collect="always"
       id="linearGradient1637">
      <stop
         style="stop-color:#0e1f2f;stop-opacity:1"
         offset="0"
         id="stop1633" />
      <stop
         id="stop1641"
         offset="0.27693063"
         style="stop-color:#283891;stop-opacity:1" />
      <stop
         style="stop-color:#62602b;stop-opacity:1"
         offset="0.71055013"
         id="stop1643" />
      <stop
         style="stop-color:#702340;stop-opacity:1"
         offset="1"
         id="stop1635" />
    </linearGradient>
    <linearGradient
       inkscape:collect="always"
       xlink:href="#linearGradient1637"
       id="linearGradient970"
       gradientUnits="userSpaceOnUse"
       gradientTransform="matrix(4.0587628,0,0,4.058716,87.605416,-631.2192)"
       x1="-4.7836666"
       y1="162.91348"
       x2="54.054539"
       y2="162.91348" />
    <linearGradient
       inkscape:collect="always"
       xlink:href="#linearGradient1715"
       id="linearGradient1060"
       gradientUnits="userSpaceOnUse"
       gradientTransform="matrix(4.0587628,0,0,4.058716,87.605416,-631.2192)"
       x1="-4.7836666"
       y1="162.91348"
       x2="54.054539"
       y2="162.91348" />
  </defs>
  <sodipodi:namedview
     id="base"
     pagecolor="#ffffff"
     bordercolor="#666666"
     borderopacity="1.0"
     inkscape:pageopacity="0.0"
     inkscape:pageshadow="2"
     inkscape:zoom="2.8"
     inkscape:cx="177.58112"
     inkscape:cy="100.82507"
     inkscape:document-units="mm"
     inkscape:current-layer="layer1"
     showgrid="false"
     inkscape:window-width="1920"
     inkscape:window-height="1001"
     inkscape:window-x="-9"
     inkscape:window-y="-9"
     inkscape:window-maximized="1"
     units="px" />
  <metadata
     id="metadata1025">
    <rdf:RDF>
      <cc:Work
         rdf:about="">
        <dc:format>image/svg+xml</dc:format>
        <dc:type
           rdf:resource="http://purl.org/dc/dcmitype/StillImage" />
        <dc:title />
      </cc:Work>
    </rdf:RDF>
  </metadata>
  <g
     inkscape:label="Layer 1"
     inkscape:groupmode="layer"
     id="layer1"
     transform="translate(0,-281.12497)">
    <path
       style="font-style:normal;font-variant:normal;font-weight:bold;font-stretch:normal;font-size:11.36517525px;line-height:1.25;font-family:Lato;-inkscape-font-specification:'Lato Bold';letter-spacing:0px;word-spacing:0px;fill:url(#linearGradient1060);fill-opacity:1;stroke:none;stroke-width:1.07387483"
       d="M 171.76172 0 L 171.76172 31.916016 L 177.06641 31.916016 L 177.06641 0 L 171.76172 0 z M 138.34961 0.064453125 C 137.89142 0.064453125 137.4543 0.15754528 137.03906 0.34375 C 136.63815 0.51556732 136.28701 0.75203516 135.98633 1.0527344 C 135.68563 1.3534084 135.44199 1.711709 135.25586 2.1269531 C 135.08404 2.542172 134.99805 2.9864678 134.99805 3.4589844 C 134.99805 3.9171639 135.08404 4.3451867 135.25586 4.7460938 C 135.442 5.1470008 135.68564 5.4981541 135.98633 5.7988281 C 136.28701 6.0994517 136.63815 6.3430922 137.03906 6.5292969 C 137.4543 6.7011394 137.89142 6.7871094 138.34961 6.7871094 C 138.82212 6.7871094 139.26445 6.7011394 139.67969 6.5292969 C 140.09492 6.3431425 140.45322 6.0995021 140.75391 5.7988281 C 141.06892 5.4981541 141.31973 5.1470008 141.50586 4.7460938 C 141.69199 4.3451867 141.78516 3.9171639 141.78516 3.4589844 C 141.78516 2.9864678 141.69199 2.542172 141.50586 2.1269531 C 141.31972 1.711709 141.06891 1.3534084 140.75391 1.0527344 C 140.45322 0.75206036 140.09492 0.51559252 139.67969 0.34375 C 139.26445 0.15754528 138.82212 0.064453125 138.34961 0.064453125 z M 68.189453 0.859375 L 68.189453 31.916016 L 79.916016 31.916016 C 81.720135 31.916016 83.32336 31.68667 84.726562 31.228516 C 86.129768 30.770336 87.312152 30.13973 88.271484 29.337891 C 89.230822 28.521765 89.961748 27.556278 90.462891 26.439453 C 90.964036 25.322628 91.212891 24.104376 91.212891 22.787109 C 91.212891 19.13596 89.079388 16.832392 84.8125 15.873047 C 85.771832 15.543724 86.595919 15.142413 87.283203 14.669922 C 87.984807 14.197405 88.558083 13.674287 89.001953 13.101562 C 89.46014 12.514526 89.796941 11.891068 90.011719 11.232422 C 90.226497 10.559464 90.333984 9.8591362 90.333984 9.1289062 C 90.333984 7.8545755 90.119007 6.7079732 89.689453 5.6914062 C 89.2599 4.6747889 88.579134 3.8096681 87.648438 3.09375 C 86.732056 2.3778319 85.551627 1.8260484 84.105469 1.4394531 C 82.673627 1.0528578 80.939464 0.859375 78.90625 0.859375 L 68.189453 0.859375 z M 73.966797 5.3261719 L 78.90625 5.3261719 C 80.853556 5.3261719 82.286748 5.6701526 83.203125 6.3574219 C 84.119504 7.0446912 84.576172 8.1984409 84.576172 9.8164062 C 84.576172 11.377099 84.069344 12.514576 83.052734 13.230469 C 82.03613 13.946387 80.545607 14.304688 78.583984 14.304688 L 73.966797 14.304688 L 73.966797 5.3261719 z M 107.25 9.4726562 C 105.93271 9.4726563 104.74511 9.8667945 103.68555 10.654297 C 102.62599 11.441824 101.70158 12.514798 100.91406 13.875 L 100.5918 11.210938 C 100.52021 10.723983 100.37884 10.381956 100.16406 10.181641 C 99.949285 9.9810737 99.569489 9.8808594 99.025391 9.8808594 L 95.910156 9.8808594 L 95.910156 31.916016 L 101.21484 31.916016 L 101.21484 18.191406 C 101.75894 17.017309 102.42538 16.13067 103.21289 15.529297 C 104.00041 14.913612 104.94631 14.605469 106.04883 14.605469 C 106.66452 14.605469 107.15702 14.655576 107.5293 14.755859 C 107.90157 14.856143 108.19538 14.90625 108.41016 14.90625 C 108.65356 14.90625 108.84704 14.856143 108.99023 14.755859 C 109.1334 14.641314 109.22657 14.455004 109.26953 14.197266 L 109.95703 10.224609 C 109.24111 9.7234692 108.3382 9.4726562 107.25 9.4726562 z M 121.96484 9.4726562 C 118.38524 9.4726562 115.32733 10.631625 112.79297 12.951172 L 113.75977 14.648438 C 113.91727 14.920438 114.12508 15.149733 114.38281 15.335938 C 114.64054 15.522142 114.94868 15.615234 115.30664 15.615234 C 115.73619 15.615234 116.13032 15.51502 116.48828 15.314453 C 116.84624 15.113987 117.23125 14.891839 117.64648 14.648438 C 118.07604 14.390825 118.57766 14.161504 119.15039 13.960938 C 119.72313 13.760623 120.43972 13.660156 121.29883 13.660156 C 122.48726 13.660156 123.38822 14.018482 124.00391 14.734375 C 124.63392 15.435981 124.94922 16.52325 124.94922 17.998047 L 124.94922 19.287109 C 122.4435 19.344382 120.34582 19.588022 118.65625 20.017578 C 116.96668 20.447134 115.61426 20.991745 114.59766 21.650391 C 113.58105 22.294699 112.85012 23.023693 112.40625 23.839844 C 111.9767 24.641683 111.76172 25.458625 111.76172 26.289062 C 111.76172 27.277031 111.91937 28.14413 112.23438 28.888672 C 112.54938 29.633214 112.9865 30.254694 113.54492 30.755859 C 114.11766 31.257 114.79843 31.636843 115.58594 31.894531 C 116.37345 32.137933 117.23141 32.259766 118.16211 32.259766 C 118.94962 32.259766 119.66622 32.195414 120.31055 32.066406 C 120.95488 31.93755 121.56398 31.744042 122.13672 31.486328 C 122.70946 31.228615 123.25928 30.913299 123.78906 30.541016 C 124.33316 30.15442 124.88494 29.710125 125.44336 29.208984 L 125.91602 30.777344 C 126.0592 31.235548 126.27418 31.543692 126.56055 31.701172 C 126.84692 31.84429 127.24104 31.916016 127.74219 31.916016 L 130.125 31.916016 L 130.125 17.998047 C 130.125 16.75234 129.93869 15.607741 129.56641 14.5625 C 129.20845 13.517284 128.68012 12.621495 127.97852 11.876953 C 127.27691 11.118074 126.417 10.532406 125.40039 10.117188 C 124.3981 9.6876316 123.2535 9.4726562 121.96484 9.4726562 z M 286.28711 9.4726562 C 284.96982 9.4726563 283.78027 9.8667945 282.7207 10.654297 C 281.66114 11.441824 280.73868 12.514798 279.95117 13.875 L 279.62891 11.210938 C 279.55731 10.723983 279.414 10.381956 279.19922 10.181641 C 278.98444 9.9810737 278.60465 9.8808594 278.06055 9.8808594 L 274.94727 9.8808594 L 274.94727 31.916016 L 280.25195 31.916016 L 280.25195 18.191406 C 280.79605 17.017309 281.46249 16.13067 282.25 15.529297 C 283.03751 14.913612 283.98147 14.605469 285.08398 14.605469 C 285.69968 14.605469 286.19413 14.655576 286.56641 14.755859 C 286.93868 14.856143 287.23249 14.90625 287.44727 14.90625 C 287.69067 14.90625 287.88415 14.856143 288.02734 14.755859 C 288.17051 14.641314 288.26368 14.455004 288.30664 14.197266 L 288.99219 10.224609 C 288.27627 9.7234692 287.37531 9.4726562 286.28711 9.4726562 z M 215.11719 9.4941406 C 213.85717 9.4941406 212.69107 9.6589584 211.61719 9.9882812 C 210.55762 10.317604 209.63322 10.797712 208.8457 11.427734 C 208.07251 12.043394 207.46535 12.793905 207.02148 13.681641 C 206.59193 14.555064 206.37695 15.536824 206.37695 16.625 C 206.37695 17.97094 206.69226 19.144229 207.32227 20.146484 C 207.96659 21.148765 208.84606 21.951361 209.96289 22.552734 C 209.47606 22.796136 209.05327 23.073661 208.69531 23.388672 C 208.33734 23.689346 208.03832 24.011834 207.79492 24.355469 C 207.56582 24.699129 207.39384 25.050282 207.2793 25.408203 C 207.16475 25.751838 207.10742 26.088646 207.10742 26.417969 C 207.10742 27.219808 207.27224 27.871907 207.60156 28.373047 C 207.93089 28.874187 208.36606 29.273545 208.91016 29.574219 C 207.79332 29.989463 206.92102 30.548419 206.29102 31.25 C 205.661 31.951581 205.3457 32.81868 205.3457 33.849609 C 205.3457 34.608463 205.54635 35.337456 205.94727 36.039062 C 206.34818 36.740669 206.95012 37.356955 207.75195 37.886719 C 208.5681 38.430794 209.59088 38.86077 210.82227 39.175781 C 212.05365 39.505104 213.50639 39.669922 215.18164 39.669922 C 216.87121 39.669922 218.37607 39.447774 219.69336 39.003906 C 221.01065 38.57435 222.11942 38.001049 223.02148 37.285156 C 223.93786 36.569238 224.63296 35.75425 225.10547 34.837891 C 225.5923 33.921506 225.83594 32.975585 225.83594 32.001953 C 225.83594 30.956737 225.62812 30.103958 225.21289 29.445312 C 224.81198 28.772355 224.27453 28.244017 223.60156 27.857422 C 222.94292 27.470827 222.19049 27.191374 221.3457 27.019531 C 220.50092 26.833377 219.63579 26.704372 218.74805 26.632812 C 217.86031 26.562009 216.99322 26.519024 216.14844 26.503906 C 215.30365 26.475182 214.54601 26.417953 213.87305 26.332031 C 213.2144 26.246236 212.67695 26.102911 212.26172 25.902344 C 211.8608 25.687566 211.66016 25.357905 211.66016 24.914062 C 211.66016 24.398611 212.00412 23.932822 212.69141 23.517578 C 213.47892 23.675058 214.28672 23.753906 215.11719 23.753906 C 216.34857 23.753906 217.48796 23.589088 218.5332 23.259766 C 219.59277 22.916131 220.50089 22.437951 221.25977 21.822266 C 222.03296 21.206581 222.6349 20.461314 223.06445 19.587891 C 223.50833 18.70018 223.73047 17.713202 223.73047 16.625 C 223.73047 16.16682 223.68748 15.729697 223.60156 15.314453 C 223.52998 14.899234 223.42249 14.505096 223.2793 14.132812 L 225.25586 13.767578 C 225.6711 13.696044 225.9649 13.567064 226.13672 13.380859 C 226.30854 13.19473 226.39453 12.936745 226.39453 12.607422 L 226.39453 10.632812 L 220.05859 10.632812 C 219.37131 10.260605 218.61172 9.9811266 217.78125 9.7949219 C 216.95078 9.5943549 216.0622 9.4941406 215.11719 9.4941406 z M 237.35156 9.4941406 C 236.09154 9.4941406 234.92349 9.6589584 233.84961 9.9882812 C 232.79005 10.317604 231.86759 10.797712 231.08008 11.427734 C 230.30688 12.043394 229.69778 12.793905 229.25391 13.681641 C 228.82435 14.555064 228.60938 15.536824 228.60938 16.625 C 228.60938 17.97094 228.92468 19.144229 229.55469 20.146484 C 230.19902 21.148765 231.07848 21.951361 232.19531 22.552734 C 231.70849 22.796136 231.28765 23.073661 230.92969 23.388672 C 230.57172 23.689346 230.27075 24.011834 230.02734 24.355469 C 229.79825 24.699129 229.62626 25.050282 229.51172 25.408203 C 229.39717 25.751838 229.33984 26.088646 229.33984 26.417969 C 229.33984 27.219808 229.50466 27.871907 229.83398 28.373047 C 230.1633 28.874187 230.60043 29.273545 231.14453 29.574219 C 230.0277 29.989463 229.15345 30.548419 228.52344 31.25 C 227.89343 31.951581 227.57813 32.81868 227.57812 33.849609 C 227.57812 34.608463 227.77877 35.337456 228.17969 36.039062 C 228.5806 36.740669 229.18254 37.356955 229.98438 37.886719 C 230.80052 38.430794 231.8233 38.86077 233.05469 39.175781 C 234.28607 39.505104 235.74076 39.669922 237.41602 39.669922 C 239.10559 39.669922 240.60849 39.447774 241.92578 39.003906 C 243.24308 38.57435 244.35185 38.001049 245.25391 37.285156 C 246.17029 36.569238 246.86538 35.75425 247.33789 34.837891 C 247.82472 33.921506 248.06836 32.975585 248.06836 32.001953 C 248.06836 30.956737 247.86055 30.103958 247.44531 29.445312 C 247.0444 28.772355 246.50695 28.244017 245.83398 27.857422 C 245.17534 27.470827 244.42486 27.191374 243.58008 27.019531 C 242.73529 26.833377 241.86821 26.704372 240.98047 26.632812 C 240.09273 26.562009 239.22565 26.519024 238.38086 26.503906 C 237.53607 26.475182 236.77844 26.417953 236.10547 26.332031 C 235.44682 26.246236 234.90937 26.102911 234.49414 25.902344 C 234.09323 25.687566 233.89258 25.357905 233.89258 24.914062 C 233.89258 24.398611 234.23654 23.932822 234.92383 23.517578 C 235.71134 23.675058 236.52109 23.753906 237.35156 23.753906 C 238.58295 23.753906 239.72038 23.589088 240.76562 23.259766 C 241.82519 22.916131 242.73526 22.437951 243.49414 21.822266 C 244.26733 21.206581 244.86732 20.461314 245.29688 19.587891 C 245.74075 18.70018 245.96289 17.713202 245.96289 16.625 C 245.96289 16.16682 245.91991 15.729697 245.83398 15.314453 C 245.7624 14.899234 245.65491 14.505096 245.51172 14.132812 L 247.48828 13.767578 C 247.90352 13.696044 248.19732 13.567064 248.36914 13.380859 C 248.54096 13.19473 248.62695 12.936745 248.62695 12.607422 L 248.62695 10.632812 L 242.29102 10.632812 C 241.60373 10.260605 240.84414 9.9811266 240.01367 9.7949219 C 239.1832 9.5943549 238.29658 9.4941406 237.35156 9.4941406 z M 158.77344 9.5371094 C 158.02888 9.5371094 157.34095 9.608835 156.71094 9.7519531 C 156.08093 9.8951468 155.48811 10.100996 154.92969 10.373047 C 154.38558 10.645097 153.86247 10.96756 153.36133 11.339844 C 152.8745 11.712102 152.40871 12.127758 151.96484 12.585938 L 151.59961 10.845703 C 151.38483 10.201369 150.93338 9.8808594 150.24609 9.8808594 L 147.00391 9.8808594 L 147.00391 31.916016 L 152.30859 31.916016 L 152.30859 15.980469 C 153.02451 15.264576 153.78411 14.698447 154.58594 14.283203 C 155.38777 13.867984 156.24573 13.660156 157.16211 13.660156 C 158.40781 13.660156 159.33939 14.032802 159.95508 14.777344 C 160.58509 15.507574 160.90039 16.544685 160.90039 17.890625 L 160.90039 31.916016 L 166.20508 31.916016 L 166.20508 17.890625 C 166.20508 16.65923 166.04026 15.536123 165.71094 14.519531 C 165.39593 13.488602 164.92298 12.607158 164.29297 11.876953 C 163.67728 11.132411 162.90531 10.561089 161.97461 10.160156 C 161.04391 9.7449374 159.97618 9.5371094 158.77344 9.5371094 z M 192.48633 9.5371094 C 190.83971 9.5371094 189.34398 9.8003143 187.99805 10.330078 C 186.65212 10.859867 185.4984 11.612306 184.53906 12.585938 C 183.59405 13.559569 182.85791 14.749131 182.32812 16.152344 C 181.81266 17.555531 181.55469 19.122984 181.55469 20.855469 C 181.55469 22.602316 181.81266 24.176916 182.32812 25.580078 C 182.85791 26.983291 183.59405 28.178072 184.53906 29.166016 C 185.4984 30.153984 186.65212 30.91357 187.99805 31.443359 C 189.34398 31.973098 190.83971 32.238281 192.48633 32.238281 C 194.13294 32.238281 195.62151 31.973098 196.95312 31.443359 C 198.29906 30.91357 199.44561 30.153984 200.39062 29.166016 C 201.33564 28.178072 202.06657 26.983291 202.58203 25.580078 C 203.09749 24.176916 203.35352 22.602316 203.35352 20.855469 C 203.35352 19.122984 203.09749 17.555531 202.58203 16.152344 C 202.06657 14.749131 201.33564 13.559569 200.39062 12.585938 C 199.44561 11.612306 198.29906 10.859867 196.95312 10.330078 C 195.62151 9.8003143 194.13294 9.5371094 192.48633 9.5371094 z M 261.06445 9.5371094 C 259.41783 9.5371094 257.93643 9.8218068 256.61914 10.394531 C 255.31617 10.967281 254.20739 11.74841 253.29102 12.736328 C 252.38896 13.709985 251.69386 14.861756 251.20703 16.193359 C 250.72021 17.510651 250.47656 18.922386 250.47656 20.425781 C 250.47656 22.358758 250.75603 24.062338 251.31445 25.537109 C 251.87287 26.997569 252.63963 28.228188 253.61328 29.230469 C 254.58693 30.218437 255.73153 30.970876 257.04883 31.486328 C 258.36612 31.987443 259.79019 32.238281 261.32227 32.238281 C 262.09546 32.238281 262.89088 32.181052 263.70703 32.066406 C 264.5375 31.951861 265.34725 31.758353 266.13477 31.486328 C 266.9366 31.199966 267.7014 30.82732 268.43164 30.369141 C 269.16188 29.896624 269.82115 29.316176 270.4082 28.628906 L 268.86133 26.697266 C 268.74678 26.539785 268.61063 26.417953 268.45312 26.332031 C 268.29562 26.24611 268.10931 26.203125 267.89453 26.203125 C 267.56521 26.203125 267.22319 26.303591 266.86523 26.503906 C 266.52159 26.704372 266.11313 26.924567 265.64062 27.167969 C 265.18244 27.411522 264.63782 27.633669 264.00781 27.833984 C 263.39212 28.034551 262.65403 28.134766 261.79492 28.134766 C 260.04807 28.134766 258.6455 27.606428 257.58594 26.546875 C 256.52638 25.487347 255.91727 23.824799 255.75977 21.5625 L 269.37695 21.5625 C 269.62036 21.5625 269.82101 21.535712 269.97852 21.478516 C 270.136 21.406957 270.25783 21.299368 270.34375 21.15625 C 270.44396 20.998744 270.50846 20.790942 270.53711 20.533203 C 270.58007 20.261153 270.60156 19.924345 270.60156 19.523438 C 270.60156 17.934121 270.36509 16.524339 269.89258 15.292969 C 269.42007 14.047287 268.7608 13.001025 267.91602 12.15625 C 267.07123 11.297163 266.06278 10.646993 264.88867 10.203125 C 263.72888 9.7592573 262.45334 9.5371094 261.06445 9.5371094 z M 299.50391 9.5371094 C 298.14365 9.5371094 296.94173 9.7234197 295.89648 10.095703 C 294.86556 10.45365 293.99848 10.940956 293.29688 11.556641 C 292.60959 12.157989 292.08648 12.865489 291.72852 13.681641 C 291.37056 14.497792 291.19336 15.357718 291.19336 16.259766 C 291.19336 17.233397 291.34189 18.064684 291.64258 18.751953 C 291.95758 19.439222 292.36604 20.017718 292.86719 20.490234 C 293.38265 20.962726 293.9631 21.356864 294.60742 21.671875 C 295.26607 21.972625 295.9325 22.237758 296.60547 22.466797 C 297.29275 22.696013 297.95724 22.911013 298.60156 23.111328 C 299.26021 23.297482 299.84065 23.512458 300.3418 23.755859 C 300.85726 23.999286 301.26572 24.285912 301.56641 24.615234 C 301.88141 24.944532 302.03906 25.365407 302.03906 25.880859 C 302.03906 26.224494 301.96741 26.561302 301.82422 26.890625 C 301.69535 27.205636 301.48037 27.485114 301.17969 27.728516 C 300.89332 27.971942 300.52069 28.172598 300.0625 28.330078 C 299.61863 28.473196 299.08118 28.544922 298.45117 28.544922 C 297.64934 28.544922 296.98486 28.45183 296.45508 28.265625 C 295.93962 28.07937 295.48816 27.87874 295.10156 27.664062 C 294.71496 27.44936 294.371 27.248705 294.07031 27.0625 C 293.78395 26.876295 293.47581 26.783203 293.14648 26.783203 C 292.81716 26.783203 292.54486 26.847807 292.33008 26.976562 C 292.11531 27.105444 291.92899 27.291755 291.77148 27.535156 L 290.54883 29.552734 C 290.97838 29.93933 291.47088 30.29763 292.0293 30.626953 C 292.60203 30.956276 293.2183 31.242927 293.87695 31.486328 C 294.54992 31.72983 295.24502 31.916166 295.96094 32.044922 C 296.69118 32.18804 297.43448 32.259766 298.19336 32.259766 C 299.61088 32.259766 300.86493 32.080628 301.95312 31.722656 C 303.05564 31.350398 303.9781 30.841574 304.72266 30.197266 C 305.46721 29.53862 306.03332 28.766642 306.41992 27.878906 C 306.80652 26.976859 307 25.9951 307 24.935547 C 307 24.047811 306.84235 23.290153 306.52734 22.660156 C 306.22666 22.030159 305.8182 21.492696 305.30273 21.048828 C 304.80159 20.590623 304.23026 20.218003 303.58594 19.931641 C 302.94161 19.630916 302.28234 19.365758 301.60938 19.136719 C 300.93641 18.907705 300.27714 18.699877 299.63281 18.513672 C 298.98848 18.313206 298.40804 18.091058 297.89258 17.847656 C 297.39144 17.604255 296.98493 17.32673 296.66992 17.011719 C 296.36924 16.682396 296.21875 16.28111 296.21875 15.808594 C 296.21875 15.092676 296.51972 14.512227 297.12109 14.068359 C 297.72247 13.624492 298.5446 13.402344 299.58984 13.402344 C 300.26281 13.402344 300.84325 13.474069 301.33008 13.617188 C 301.83123 13.760306 302.27551 13.925123 302.66211 14.111328 C 303.0487 14.283221 303.38551 14.440866 303.67188 14.583984 C 303.97256 14.727102 304.25008 14.798828 304.50781 14.798828 C 304.75122 14.798828 304.95187 14.755843 305.10938 14.669922 C 305.26687 14.569638 305.41735 14.404821 305.56055 14.175781 L 306.76367 12.265625 C 305.9332 11.449499 304.89609 10.790203 303.65039 10.289062 C 302.40469 9.7879223 301.02166 9.5371094 299.50391 9.5371094 z M 135.68555 9.8808594 L 135.68555 31.916016 L 140.99023 31.916016 L 140.99023 9.8808594 L 135.68555 9.8808594 z M 215.11719 13.208984 C 216.42016 13.208984 217.39473 13.531447 218.03906 14.175781 C 218.69771 14.805778 219.02734 15.663752 219.02734 16.751953 C 219.02734 17.281717 218.94135 17.769023 218.76953 18.212891 C 218.61203 18.656733 218.36838 19.036551 218.03906 19.351562 C 217.72406 19.666498 217.32276 19.917311 216.83594 20.103516 C 216.34911 20.275358 215.77584 20.361328 215.11719 20.361328 C 214.47286 20.361328 213.90154 20.275358 213.40039 20.103516 C 212.91356 19.917386 212.5051 19.666574 212.17578 19.351562 C 211.86077 19.02224 211.61713 18.635249 211.44531 18.191406 C 211.28781 17.747539 211.20898 17.267405 211.20898 16.751953 C 211.20898 15.663752 211.53145 14.805778 212.17578 14.175781 C 212.83443 13.531447 213.81421 13.208984 215.11719 13.208984 z M 237.35156 13.208984 C 238.65454 13.208984 239.62716 13.531447 240.27148 14.175781 C 240.93013 14.805778 241.25977 15.663752 241.25977 16.751953 C 241.25977 17.281717 241.17377 17.769023 241.00195 18.212891 C 240.84445 18.656733 240.60081 19.036551 240.27148 19.351562 C 239.95648 19.666498 239.55519 19.917311 239.06836 20.103516 C 238.58153 20.275358 238.01021 20.361328 237.35156 20.361328 C 236.70723 20.361328 236.13396 20.275358 235.63281 20.103516 C 235.14598 19.917386 234.73752 19.666574 234.4082 19.351562 C 234.09319 19.02224 233.84955 18.635249 233.67773 18.191406 C 233.52023 17.747539 233.44141 17.267405 233.44141 16.751953 C 233.44141 15.663752 233.76387 14.805778 234.4082 14.175781 C 235.06685 13.531447 236.04859 13.208984 237.35156 13.208984 z M 261.17188 13.337891 C 261.95939 13.337891 262.64732 13.474043 263.23438 13.746094 C 263.82143 14.003807 264.30871 14.362108 264.69531 14.820312 C 265.08192 15.278492 265.36856 15.814002 265.55469 16.429688 C 265.74082 17.031061 265.83398 17.676012 265.83398 18.363281 L 255.86719 18.363281 C 256.1106 16.759628 256.66955 15.521861 257.54297 14.648438 C 258.41639 13.775039 259.62548 13.337891 261.17188 13.337891 z M 192.48633 13.595703 C 194.31909 13.595703 195.67345 14.219162 196.54688 15.464844 C 197.43462 16.710551 197.87695 18.521619 197.87695 20.898438 C 197.87695 23.275282 197.43462 25.079202 196.54688 26.310547 C 195.67345 27.541917 194.31909 28.158203 192.48633 28.158203 C 190.62493 28.158203 189.25102 27.541917 188.36328 26.310547 C 187.47554 25.064865 187.03125 23.260945 187.03125 20.898438 C 187.03125 18.53593 187.47554 16.73201 188.36328 15.486328 C 189.25102 14.226309 190.62493 13.595703 192.48633 13.595703 z M 73.966797 18.298828 L 79.808594 18.298828 C 80.825201 18.298828 81.692282 18.399042 82.408203 18.599609 C 83.124124 18.80005 83.711732 19.093873 84.169922 19.480469 C 84.628111 19.852727 84.962956 20.311368 85.177734 20.855469 C 85.392512 21.385258 85.5 21.985246 85.5 22.658203 C 85.5 23.302537 85.399685 23.911651 85.199219 24.484375 C 85.013077 25.057074 84.69973 25.558725 84.255859 25.988281 C 83.826309 26.417837 83.245862 26.761818 82.515625 27.019531 C 81.799702 27.27727 80.903958 27.40625 79.830078 27.40625 L 73.966797 27.40625 L 73.966797 18.298828 z M 124.94922 22.507812 L 124.94922 26.224609 C 124.56262 26.625516 124.17566 26.976645 123.78906 27.277344 C 123.41678 27.563832 123.02461 27.805544 122.60938 28.005859 C 122.20846 28.206275 121.7785 28.356748 121.32031 28.457031 C 120.86212 28.557315 120.3605 28.607422 119.81641 28.607422 C 118.92866 28.607422 118.2049 28.406792 117.64648 28.005859 C 117.10238 27.604952 116.83203 26.940462 116.83203 26.009766 C 116.83203 25.537274 116.95906 25.100101 117.2168 24.699219 C 117.48885 24.298286 117.9403 23.947158 118.57031 23.646484 C 119.20032 23.345861 120.03157 23.10222 121.0625 22.916016 C 122.10774 22.715524 123.40283 22.579372 124.94922 22.507812 z M 211.93945 30.433594 C 212.5981 30.519263 213.27887 30.583867 213.98047 30.626953 C 214.69639 30.655426 215.38237 30.691288 216.04102 30.734375 C 216.71398 30.763099 217.34459 30.813207 217.93164 30.884766 C 218.53302 30.956325 219.05613 31.071035 219.5 31.228516 C 219.94387 31.371709 220.295 31.579537 220.55273 31.851562 C 220.81047 32.123613 220.93945 32.474766 220.93945 32.904297 C 220.93945 33.333853 220.83197 33.727966 220.61719 34.085938 C 220.40241 34.458196 220.05845 34.771558 219.58594 35.029297 C 219.12775 35.301423 218.54014 35.509226 217.82422 35.652344 C 217.1083 35.809824 216.25555 35.888672 215.26758 35.888672 C 214.29393 35.888672 213.47179 35.816946 212.79883 35.673828 C 212.12586 35.544946 211.57408 35.358636 211.14453 35.115234 C 210.72931 34.871833 210.42117 34.579988 210.2207 34.236328 C 210.03457 33.907005 209.94141 33.548679 209.94141 33.162109 C 209.94141 32.575048 210.12055 32.059077 210.47852 31.615234 C 210.85079 31.157055 211.33808 30.762917 211.93945 30.433594 z M 234.17188 30.433594 C 234.83052 30.519263 235.51129 30.583867 236.21289 30.626953 C 236.92881 30.655426 237.61479 30.691288 238.27344 30.734375 C 238.9464 30.763099 239.57701 30.813207 240.16406 30.884766 C 240.76544 30.956325 241.28855 31.071035 241.73242 31.228516 C 242.17629 31.371709 242.52742 31.579537 242.78516 31.851562 C 243.04288 32.123613 243.17188 32.474766 243.17188 32.904297 C 243.17188 33.333853 243.06439 33.727966 242.84961 34.085938 C 242.63483 34.458196 242.29087 34.771558 241.81836 35.029297 C 241.36017 35.301423 240.77256 35.509226 240.05664 35.652344 C 239.34072 35.809824 238.48993 35.888672 237.50195 35.888672 C 236.5283 35.888672 235.70421 35.816946 235.03125 35.673828 C 234.35828 35.544946 233.8065 35.358636 233.37695 35.115234 C 232.96173 34.871833 232.65359 34.579988 232.45312 34.236328 C 232.267 33.907005 232.17383 33.548679 232.17383 33.162109 C 232.17383 32.575048 232.35298 32.059077 232.71094 31.615234 C 233.08322 31.157055 233.5705 30.762917 234.17188 30.433594 z "
       transform="matrix(0.26458333,0,0,0.26458333,0,281.12497)"
       id="path883" />
    <path
       style="font-style:normal;font-variant:normal;font-weight:normal;font-stretch:normal;font-size:3.87206078px;line-height:1.25;font-family:Lato;-inkscape-font-specification:Lato;letter-spacing:0px;word-spacing:0px;fill:url(#linearGradient970);fill-opacity:1;stroke:none;stroke-width:0.36586401"
       d="M 236.81055 46.111328 L 236.81055 59.839844 L 237.82031 59.839844 L 237.82031 46.111328 L 236.81055 46.111328 z M 91.552734 46.550781 L 91.552734 57.330078 L 92.392578 57.330078 C 92.577951 57.330078 92.691439 57.23623 92.730469 57.050781 L 92.796875 56.378906 C 93.045664 56.710547 93.334297 56.968848 93.666016 57.154297 C 94.002613 57.339746 94.410607 57.431641 94.888672 57.431641 C 95.386249 57.431641 95.833379 57.333695 96.228516 57.138672 C 96.628528 56.938659 96.965102 56.669593 97.238281 56.328125 C 97.516344 55.981769 97.728657 55.573777 97.875 55.105469 C 98.021343 54.632297 98.09375 54.12254 98.09375 53.576172 C 98.09375 52.96152 98.028188 52.419481 97.896484 51.951172 C 97.764768 51.478 97.575937 51.082677 97.332031 50.765625 C 97.088121 50.443685 96.793619 50.202023 96.447266 50.041016 C 96.100912 49.880008 95.712487 49.800781 95.283203 49.800781 C 94.770991 49.800781 94.316031 49.909442 93.916016 50.128906 C 93.520881 50.343558 93.168654 50.630221 92.861328 50.986328 L 92.861328 46.550781 L 91.552734 46.550781 z M 147.50195 46.550781 L 147.50195 57.330078 L 148.80469 57.330078 L 148.80469 51.871094 C 149.08763 51.554117 149.39484 51.302636 149.72656 51.117188 C 150.06316 50.931739 150.42517 50.839844 150.81055 50.839844 C 151.3374 50.839844 151.7268 50.994477 151.98047 51.306641 C 152.23902 51.613967 152.36914 52.048367 152.36914 52.609375 L 152.36914 57.330078 L 153.67188 57.330078 L 153.67188 52.609375 C 153.67188 52.189847 153.61708 51.807293 153.50977 51.460938 C 153.40244 51.114607 153.24492 50.820077 153.03516 50.576172 C 152.83027 50.327454 152.57197 50.137639 152.25977 50.005859 C 151.95244 49.869292 151.5963 49.800781 151.19141 49.800781 C 150.68895 49.800781 150.24476 49.902571 149.85938 50.107422 C 149.474 50.307434 149.12177 50.575505 148.80469 50.912109 L 148.80469 46.550781 L 147.50195 46.550781 z M 156.45312 46.654297 C 156.32628 46.654297 156.2079 46.677681 156.0957 46.726562 C 155.98839 46.775192 155.89055 46.843704 155.80273 46.931641 C 155.71981 47.014538 155.65425 47.115257 155.60547 47.232422 C 155.55669 47.3448 155.53125 47.463104 155.53125 47.589844 C 155.53125 47.716836 155.55669 47.837093 155.60547 47.949219 C 155.65425 48.056557 155.71981 48.154502 155.80273 48.242188 C 155.89055 48.325085 155.98839 48.390571 156.0957 48.439453 C 156.2079 48.488335 156.32628 48.511719 156.45312 48.511719 C 156.57997 48.511719 156.7003 48.488335 156.8125 48.439453 C 156.9247 48.390571 157.02255 48.325085 157.10547 48.242188 C 157.19328 48.154502 157.26177 48.056557 157.31055 47.949219 C 157.36422 47.836841 157.39062 47.716584 157.39062 47.589844 C 157.39062 47.462852 157.36422 47.344548 157.31055 47.232422 C 157.26177 47.115257 157.19328 47.014538 157.10547 46.931641 C 157.02255 46.843956 156.9247 46.775444 156.8125 46.726562 C 156.7003 46.677681 156.57997 46.654297 156.45312 46.654297 z M 194.89844 46.654297 C 194.77162 46.654297 194.65126 46.677681 194.53906 46.726562 C 194.43175 46.775192 194.33586 46.843704 194.24805 46.931641 C 194.16512 47.014538 194.09761 47.115257 194.04883 47.232422 C 194.00005 47.3448 193.97656 47.463104 193.97656 47.589844 C 193.97656 47.716836 194.00005 47.837093 194.04883 47.949219 C 194.09761 48.056557 194.16512 48.154502 194.24805 48.242188 C 194.33586 48.325085 194.43175 48.390571 194.53906 48.439453 C 194.65124 48.488335 194.7716 48.511719 194.89844 48.511719 C 195.02528 48.511719 195.14561 48.488335 195.25781 48.439453 C 195.37001 48.390571 195.46591 48.325085 195.54883 48.242188 C 195.63664 48.154502 195.70513 48.056557 195.75391 47.949219 C 195.80758 47.836841 195.83594 47.716584 195.83594 47.589844 C 195.83594 47.462852 195.80758 47.344548 195.75391 47.232422 C 195.70513 47.115257 195.63664 47.014538 195.54883 46.931641 C 195.46591 46.843956 195.37001 46.775444 195.25781 46.726562 C 195.14561 46.677681 195.02528 46.654297 194.89844 46.654297 z M 106.27344 46.726562 C 105.83928 46.726563 105.44693 46.795074 105.0957 46.931641 C 104.74934 47.06342 104.45484 47.24639 104.21094 47.480469 C 103.96702 47.709735 103.77819 47.980755 103.64648 48.292969 C 103.51964 48.605158 103.45703 48.938815 103.45703 49.294922 C 103.45703 49.67542 103.52649 50.044284 103.66797 50.400391 C 103.80944 50.756498 104.03055 51.122437 104.32812 51.498047 C 103.99641 51.644415 103.69017 51.82054 103.41211 52.025391 C 103.13404 52.230291 102.89238 52.460205 102.6875 52.71875 C 102.48748 52.977295 102.32996 53.261033 102.21289 53.568359 C 102.10069 53.870797 102.04492 54.193689 102.04492 54.535156 C 102.04492 54.988826 102.13397 55.394864 102.31445 55.755859 C 102.49495 56.116855 102.7327 56.424078 103.02539 56.677734 C 103.32296 56.926452 103.65953 57.116267 104.03516 57.248047 C 104.41078 57.379826 104.79334 57.447266 105.18359 57.447266 C 105.90069 57.447266 106.5572 57.317139 107.15234 57.058594 C 107.75237 56.800049 108.28168 56.449777 108.74023 56.005859 L 109.79297 57.066406 C 109.90028 57.173493 109.99813 57.243076 110.08594 57.277344 C 110.17372 57.311611 110.28821 57.330078 110.42969 57.330078 L 111.68945 57.330078 L 109.49414 55.105469 C 109.81611 54.632297 110.06169 54.125465 110.23242 53.583984 C 110.40308 53.042504 110.49408 52.49067 110.50391 51.929688 L 109.69922 51.929688 C 109.61141 51.929688 109.54292 51.956096 109.49414 52.009766 C 109.44544 52.063435 109.41608 52.137744 109.40625 52.230469 C 109.36722 52.591464 109.29189 52.95153 109.17969 53.3125 C 109.07237 53.668632 108.92561 54.011062 108.74023 54.337891 L 105.72461 51.271484 C 105.53923 51.086086 105.3817 50.909936 105.25 50.744141 C 105.11827 50.573508 105.01066 50.410127 104.92773 50.253906 C 104.84479 50.09305 104.78022 49.933564 104.73633 49.777344 C 104.6973 49.62135 104.67773 49.457944 104.67773 49.287109 C 104.67773 49.06767 104.71589 48.867089 104.78906 48.681641 C 104.8671 48.491354 104.97278 48.327973 105.10938 48.191406 C 105.25085 48.050052 105.42011 47.939438 105.61523 47.861328 C 105.81037 47.783218 106.02953 47.744141 106.27344 47.744141 C 106.49782 47.744141 106.6935 47.780445 106.85938 47.853516 C 107.0301 47.926838 107.17393 48.020687 107.29102 48.132812 C 107.41297 48.244938 107.51081 48.369292 107.58398 48.505859 C 107.66204 48.642552 107.71781 48.77365 107.75195 48.900391 C 107.77634 48.988076 107.81547 49.047764 107.86914 49.082031 C 107.92767 49.116299 107.98931 49.134766 108.05273 49.134766 C 108.07219 49.134766 108.09275 49.131992 108.11719 49.126953 L 108.92969 48.966797 C 108.91019 48.67411 108.8319 48.393296 108.69531 48.125 C 108.5636 47.851791 108.38064 47.613054 108.14648 47.408203 C 107.91721 47.203302 107.64521 47.037968 107.32812 46.916016 C 107.01104 46.789275 106.65882 46.726562 106.27344 46.726562 z M 120.58594 46.726562 C 119.76639 46.726563 119.02476 46.854736 118.36133 47.113281 C 117.70277 47.371826 117.14018 47.737766 116.67188 48.210938 C 116.20844 48.679246 115.84937 49.243799 115.5957 49.902344 C 115.34691 50.560914 115.22266 51.289844 115.22266 52.089844 C 115.22266 52.880093 115.34985 53.605102 115.60352 54.263672 C 115.86206 54.922217 116.22114 55.487741 116.67969 55.960938 C 117.13824 56.429246 117.68419 56.795186 118.31836 57.058594 C 118.95253 57.317139 119.64915 57.445312 120.41016 57.445312 C 120.84432 57.445312 121.24644 57.421929 121.61719 57.373047 C 121.98793 57.329204 122.33429 57.260693 122.65625 57.167969 C 122.98309 57.070205 123.28933 56.949948 123.57227 56.808594 C 123.86008 56.667113 124.13501 56.500783 124.39844 56.310547 L 124.39844 52.287109 L 121.17969 52.287109 L 121.17969 53.091797 C 121.17969 53.169907 121.2061 53.235393 121.25977 53.289062 C 121.31832 53.342732 121.39365 53.369141 121.48633 53.369141 L 123.11133 53.369141 L 123.11133 55.681641 C 122.92596 55.779152 122.74006 55.867202 122.55469 55.945312 C 122.36931 56.018383 122.1707 56.081096 121.96094 56.134766 C 121.75116 56.188435 121.52808 56.230537 121.28906 56.259766 C 121.05491 56.284962 120.79661 56.296875 120.51367 56.296875 C 119.9478 56.296875 119.42925 56.201955 118.96094 56.011719 C 118.49263 55.821457 118.08757 55.546517 117.74609 55.185547 C 117.40463 54.824552 117.13948 54.384277 116.94922 53.867188 C 116.76385 53.345235 116.67188 52.753277 116.67188 52.089844 C 116.67187 51.455689 116.76092 50.884267 116.94141 50.376953 C 117.1219 49.864726 117.38215 49.430326 117.71875 49.074219 C 118.05534 48.713223 118.46139 48.438283 118.93945 48.248047 C 119.41752 48.053023 119.95271 47.955078 120.54297 47.955078 C 120.94786 47.955078 121.2952 47.987285 121.58789 48.050781 C 121.88545 48.114025 122.14277 48.192432 122.35742 48.285156 C 122.57693 48.373093 122.76088 48.464988 122.91211 48.5625 C 123.06334 48.660012 123.20031 48.744217 123.32227 48.8125 C 123.41494 48.866169 123.50007 48.892578 123.57812 48.892578 C 123.70985 48.892578 123.81747 48.827092 123.90039 48.695312 L 124.30273 48.050781 C 124.07834 47.845931 123.83667 47.662961 123.57812 47.501953 C 123.31958 47.336007 123.0378 47.19611 122.73047 47.083984 C 122.42802 46.966819 122.0983 46.878769 121.74219 46.820312 C 121.38608 46.756816 121.00058 46.726562 120.58594 46.726562 z M 68.189453 46.84375 L 71.460938 57.330078 L 72.734375 57.330078 L 75.404297 49.332031 C 75.428788 49.258708 75.451302 49.177529 75.470703 49.089844 C 75.495043 48.997119 75.520481 48.902199 75.544922 48.804688 C 75.588815 49.004725 75.635784 49.18085 75.689453 49.332031 L 78.345703 57.330078 L 79.619141 57.330078 L 82.890625 46.84375 L 81.785156 46.84375 C 81.663203 46.84375 81.558514 46.878982 81.470703 46.947266 C 81.387831 47.015549 81.334988 47.093704 81.310547 47.181641 L 79.136719 54.46875 C 79.097739 54.595541 79.065457 54.732513 79.041016 54.878906 C 79.016625 55.025224 78.990216 55.178836 78.960938 55.339844 C 78.892654 55.01299 78.814374 54.722407 78.726562 54.46875 L 76.275391 47.181641 C 76.241224 47.084129 76.182532 47.002949 76.099609 46.939453 C 76.021575 46.875957 75.91981 46.84375 75.792969 46.84375 L 75.382812 46.84375 C 75.26086 46.84375 75.15617 46.880054 75.068359 46.953125 C 74.985437 47.021408 74.929669 47.098743 74.900391 47.181641 L 72.433594 54.46875 C 72.389676 54.595465 72.350548 54.736358 72.316406 54.892578 C 72.282265 55.04386 72.248985 55.203345 72.214844 55.369141 C 72.185565 55.203245 72.153282 55.043759 72.119141 54.892578 C 72.089887 54.741422 72.056608 54.60053 72.017578 54.46875 L 69.851562 47.181641 C 69.822284 47.084129 69.766517 47.002949 69.683594 46.939453 C 69.600671 46.875957 69.494028 46.84375 69.367188 46.84375 L 68.189453 46.84375 z M 169.25977 46.84375 L 169.25977 57.330078 L 173.18164 57.330078 C 173.9524 57.330078 174.6549 57.205724 175.28906 56.957031 C 175.92323 56.703349 176.46625 56.347204 176.91992 55.888672 C 177.37359 55.430114 177.72582 54.878306 177.97461 54.234375 C 178.2234 53.590469 178.34766 52.87523 178.34766 52.089844 C 178.34766 51.304483 178.2234 50.591196 177.97461 49.947266 C 177.72582 49.303335 177.3736 48.751501 176.91992 48.292969 C 176.46625 47.829447 175.92323 47.473302 175.28906 47.224609 C 174.6549 46.970927 173.9524 46.84375 173.18164 46.84375 L 169.25977 46.84375 z M 243.89648 46.84375 L 243.89648 57.330078 L 245.31641 57.330078 L 245.31641 46.84375 L 243.89648 46.84375 z M 247.05273 46.84375 L 247.05273 48.037109 L 250.45508 48.037109 L 250.45508 57.330078 L 251.875 57.330078 L 251.875 48.037109 L 255.26172 48.037109 L 255.26172 46.84375 L 247.05273 46.84375 z M 259.58203 46.84375 L 259.58203 57.330078 L 266.04297 57.330078 L 266.04297 56.173828 L 261.00977 56.173828 L 261.00977 52.595703 L 265.08594 52.595703 L 265.08594 51.482422 L 261.00977 51.482422 L 261.00977 48 L 266.04297 48 L 266.04297 46.84375 L 259.58203 46.84375 z M 297.94727 47.509766 C 297.86434 47.509766 297.79586 47.533149 297.74219 47.582031 C 297.68859 47.626126 297.65631 47.684742 297.64648 47.757812 L 297.34766 50.048828 L 296.13281 50.203125 L 296.13281 50.722656 C 296.13281 50.820168 296.15922 50.892524 296.21289 50.941406 C 296.26653 50.985249 296.3321 51.007812 296.41016 51.007812 L 297.30273 51.007812 L 297.30273 55.544922 C 297.30273 56.159574 297.45928 56.630178 297.77148 56.957031 C 298.08857 57.28386 298.53962 57.447266 299.125 57.447266 L 299.125 57.445312 C 299.4616 57.445313 299.78838 57.386697 300.10547 57.269531 C 300.42255 57.147453 300.69357 56.983075 300.91797 56.773438 L 300.53711 56.150391 C 300.48347 56.067493 300.42378 56.025391 300.35547 56.025391 C 300.31646 56.025391 300.26851 56.044929 300.21484 56.083984 C 300.16606 56.118252 300.10637 56.157329 300.0332 56.201172 C 299.96003 56.245014 299.87198 56.287117 299.76953 56.326172 C 299.67197 56.36044 299.55456 56.376953 299.41797 56.376953 C 299.17894 56.376953 298.98326 56.301572 298.83203 56.150391 C 298.6808 55.999184 298.60547 55.767292 298.60547 55.455078 L 298.60547 51.007812 L 300.72852 51.007812 L 300.72852 50.0625 L 298.60547 50.0625 L 298.60547 47.509766 L 297.94727 47.509766 z M 170.68555 47.992188 L 173.18164 47.992188 C 173.74263 47.992187 174.25239 48.086036 174.71094 48.271484 C 175.16949 48.456858 175.5589 48.724953 175.88086 49.076172 C 176.20281 49.427416 176.45328 49.855968 176.62891 50.363281 C 176.80453 50.87062 176.89063 51.445938 176.89062 52.089844 C 176.89063 52.733749 176.80453 53.309068 176.62891 53.816406 C 176.45329 54.323745 176.20282 54.75425 175.88086 55.105469 C 175.5589 55.451749 175.16949 55.716895 174.71094 55.902344 C 174.25239 56.087793 173.74263 56.179688 173.18164 56.179688 L 170.68555 56.179688 L 170.68555 47.992188 z M 129.86914 49.785156 C 129.36669 49.785156 128.92836 49.931923 128.55273 50.224609 C 128.18199 50.512433 127.87085 50.914576 127.61719 51.431641 L 127.5293 50.275391 C 127.50979 50.143611 127.47164 50.051716 127.41797 49.998047 C 127.36432 49.944378 127.26843 49.917969 127.12695 49.917969 L 126.37891 49.917969 L 126.37891 57.330078 L 127.68164 57.330078 L 127.68164 52.609375 C 127.88653 52.106899 128.14091 51.724345 128.44336 51.460938 C 128.75069 51.19753 129.13031 51.066406 129.58398 51.066406 C 129.83767 51.066406 130.03628 51.08979 130.17773 51.138672 C 130.31921 51.182514 130.4239 51.205078 130.49219 51.205078 C 130.60928 51.205078 130.68461 51.143437 130.71875 51.021484 L 130.88672 50.048828 C 130.74524 49.96593 130.59163 49.903218 130.42578 49.859375 C 130.25991 49.810493 130.07402 49.785156 129.86914 49.785156 z M 134.84375 49.785156 C 134.26812 49.785156 133.74272 49.883101 133.26953 50.078125 C 132.79634 50.273249 132.35508 50.567754 131.94531 50.962891 L 132.17969 51.380859 C 132.21872 51.449143 132.27056 51.507759 132.33398 51.556641 C 132.40227 51.600483 132.48055 51.621094 132.56836 51.621094 C 132.68056 51.621094 132.7921 51.582016 132.9043 51.503906 C 133.02138 51.421009 133.15836 51.331887 133.31445 51.234375 C 133.47545 51.132076 133.66233 51.041001 133.87695 50.962891 C 134.09647 50.879993 134.36456 50.839844 134.68164 50.839844 C 135.16459 50.839844 135.52758 50.987632 135.77148 51.285156 C 136.02028 51.577868 136.14648 52.012269 136.14648 52.587891 L 136.14648 53.166016 C 135.30743 53.185669 134.59613 53.263824 134.01562 53.400391 C 133.43512 53.531969 132.9645 53.70222 132.60352 53.912109 C 132.24741 54.121873 131.98911 54.363534 131.82812 54.636719 C 131.66714 54.905015 131.58594 55.185829 131.58594 55.478516 C 131.58594 55.815196 131.64073 56.106776 131.74805 56.355469 C 131.86025 56.599349 132.00799 56.801883 132.19336 56.962891 C 132.37873 57.123898 132.59691 57.24718 132.8457 57.330078 C 133.09937 57.408188 133.37039 57.447266 133.6582 57.447266 C 133.94115 57.447266 134.19652 57.421929 134.42578 57.373047 C 134.65995 57.324417 134.87911 57.254834 135.08398 57.162109 C 135.28887 57.064598 135.48455 56.947114 135.66992 56.810547 C 135.8553 56.669092 136.04511 56.509606 136.24023 56.333984 L 136.38672 57.021484 C 136.41111 57.148225 136.46296 57.232429 136.54102 57.271484 C 136.61905 57.310539 136.72082 57.330078 136.84766 57.330078 L 137.42578 57.330078 L 137.42578 52.587891 C 137.42578 52.173251 137.37001 51.791668 137.25781 51.445312 C 137.14561 51.098982 136.97928 50.804452 136.75977 50.560547 C 136.54025 50.316616 136.26923 50.126801 135.94727 49.990234 C 135.6253 49.853667 135.2584 49.785156 134.84375 49.785156 z M 143.14648 49.785156 C 142.61476 49.785156 142.14219 49.90264 141.73242 50.136719 C 141.32753 50.370873 140.96748 50.681046 140.65039 51.066406 L 140.54102 50.1875 C 140.49223 50.007091 140.37483 49.917969 140.18945 49.917969 L 139.41406 49.917969 L 139.41406 59.839844 L 140.7168 59.839844 L 140.7168 56.560547 C 140.96559 56.838645 141.25031 57.053897 141.57227 57.205078 C 141.89911 57.356259 142.29145 57.431641 142.75 57.431641 C 143.24758 57.431641 143.69471 57.333695 144.08984 57.138672 C 144.48986 56.938659 144.82643 56.66764 145.09961 56.326172 C 145.37279 55.979816 145.58217 55.573777 145.72852 55.105469 C 145.87486 54.632297 145.94727 54.12254 145.94727 53.576172 C 145.94727 52.96152 145.8817 52.416531 145.75 51.943359 C 145.61828 51.470163 145.43141 51.074864 145.1875 50.757812 C 144.94359 50.435872 144.64713 50.194211 144.30078 50.033203 C 143.95443 49.867408 143.57089 49.785156 143.14648 49.785156 z M 224.62305 49.785156 C 224.12059 49.785156 223.68226 49.931923 223.30664 50.224609 C 222.93589 50.512433 222.62281 50.914576 222.36914 51.431641 L 222.28125 50.275391 C 222.26175 50.143611 222.22554 50.051716 222.17188 49.998047 C 222.11823 49.944378 222.02039 49.917969 221.87891 49.917969 L 221.13281 49.917969 L 221.13281 57.330078 L 222.43555 57.330078 L 222.43555 52.609375 C 222.64043 52.106899 222.89482 51.724345 223.19727 51.460938 C 223.50459 51.19753 223.88422 51.066406 224.33789 51.066406 C 224.59157 51.066406 224.79019 51.08979 224.93164 51.138672 C 225.0731 51.182514 225.17779 51.205078 225.24609 51.205078 C 225.36318 51.205078 225.43851 51.143437 225.47266 51.021484 L 225.64062 50.048828 C 225.49914 49.96593 225.34553 49.903218 225.17969 49.859375 C 225.01382 49.810493 224.82792 49.785156 224.62305 49.785156 z M 278.97266 49.785156 C 278.44093 49.785156 277.97032 49.90264 277.56055 50.136719 C 277.15565 50.370873 276.7956 50.681046 276.47852 51.066406 L 276.36914 50.1875 C 276.32036 50.007091 276.20295 49.917969 276.01758 49.917969 L 275.24219 49.917969 L 275.24219 59.839844 L 276.54492 59.839844 L 276.54492 56.560547 C 276.79371 56.838645 277.07843 57.053897 277.40039 57.205078 C 277.72723 57.356259 278.11957 57.431641 278.57812 57.431641 C 279.0757 57.431641 279.52283 57.333695 279.91797 57.138672 C 280.31798 56.938659 280.65456 56.66764 280.92773 56.326172 C 281.20092 55.979816 281.4103 55.573777 281.55664 55.105469 C 281.70298 54.632297 281.77539 54.12254 281.77539 53.576172 C 281.77539 52.96152 281.70983 52.416531 281.57812 51.943359 C 281.44641 51.470163 281.25953 51.074864 281.01562 50.757812 C 280.77171 50.435872 280.47526 50.194211 280.12891 50.033203 C 279.78255 49.867408 279.39706 49.785156 278.97266 49.785156 z M 294.48047 49.785156 C 293.97801 49.785156 293.53968 49.931923 293.16406 50.224609 C 292.79332 50.512433 292.48023 50.914576 292.22656 51.431641 L 292.14062 50.275391 C 292.12112 50.143611 292.08297 50.051716 292.0293 49.998047 C 291.97563 49.944378 291.87778 49.917969 291.73633 49.917969 L 290.99023 49.917969 L 290.99023 57.330078 L 292.29297 57.330078 L 292.29297 52.609375 C 292.49785 52.106899 292.75224 51.724345 293.05469 51.460938 C 293.36201 51.19753 293.74164 51.066406 294.19531 51.066406 C 294.44897 51.066406 294.64758 51.08979 294.78906 51.138672 C 294.93052 51.182514 295.03521 51.205078 295.10352 51.205078 C 295.22061 51.205078 295.29594 51.143437 295.33008 51.021484 L 295.49805 50.048828 C 295.35659 49.96593 295.20298 49.903218 295.03711 49.859375 C 294.87124 49.810493 294.68534 49.785156 294.48047 49.785156 z M 200.33398 49.792969 C 199.92421 49.792969 199.54557 49.848812 199.19922 49.960938 C 198.85775 50.073265 198.56325 50.233722 198.31445 50.443359 C 198.06567 50.648235 197.87 50.899691 197.72852 51.197266 C 197.59192 51.489927 197.52344 51.816739 197.52344 52.177734 C 197.52344 52.631404 197.6252 53.029626 197.83008 53.371094 C 198.03984 53.707724 198.32749 53.978743 198.69336 54.183594 C 198.53724 54.261452 198.40222 54.350574 198.28516 54.453125 C 198.16807 54.555676 198.0673 54.663265 197.98438 54.775391 C 197.90632 54.887517 197.84762 55.001975 197.80859 55.119141 C 197.76956 55.231267 197.75 55.34188 197.75 55.449219 C 197.75 55.722453 197.81164 55.941627 197.93359 56.107422 C 198.06043 56.268455 198.22774 56.398582 198.4375 56.496094 C 198.03261 56.6473 197.71267 56.85083 197.47852 57.109375 C 197.24925 57.363057 197.13477 57.673229 197.13477 58.039062 C 197.13477 58.297683 197.20228 58.545218 197.33398 58.779297 C 197.47057 59.018415 197.67115 59.227794 197.93945 59.408203 C 198.20775 59.588663 198.54628 59.732505 198.95117 59.839844 C 199.36094 59.947182 199.83547 60 200.37695 60 C 200.91844 60 201.4047 59.928716 201.83398 59.787109 C 202.26327 59.650442 202.62626 59.466501 202.92383 59.232422 C 203.22141 59.003156 203.44742 58.738981 203.60352 58.441406 C 203.7645 58.143831 203.8457 57.836583 203.8457 57.519531 C 203.8457 57.178089 203.77429 56.900224 203.63281 56.685547 C 203.49134 56.47092 203.30447 56.30164 203.07031 56.179688 C 202.83616 56.057735 202.56906 55.971638 202.27148 55.917969 C 201.97391 55.865055 201.66963 55.826798 201.35742 55.806641 C 201.05009 55.782452 200.74874 55.765938 200.45117 55.755859 C 200.1536 55.746033 199.8865 55.722649 199.65234 55.683594 C 199.4182 55.644791 199.23132 55.580125 199.08984 55.492188 C 198.94836 55.399513 198.87695 55.265466 198.87695 55.089844 C 198.87695 54.982505 198.91608 54.873845 198.99414 54.761719 C 199.07709 54.649341 199.19742 54.542824 199.35352 54.445312 C 199.66084 54.52821 199.98763 54.570312 200.33398 54.570312 C 200.73888 54.570312 201.10871 54.51447 201.44531 54.402344 C 201.78679 54.290041 202.08031 54.12956 202.32422 53.919922 C 202.57301 53.710158 202.76575 53.458727 202.90234 53.166016 C 203.0438 52.868466 203.11328 52.53873 203.11328 52.177734 C 203.11328 51.787486 203.03111 51.434239 202.86523 51.117188 L 203.70703 51 C 203.91191 50.956157 204.01367 50.854367 204.01367 50.693359 L 204.01367 50.208984 L 202.00195 50.208984 C 201.77267 50.072417 201.51535 49.970627 201.23242 49.902344 C 200.95436 49.829273 200.65595 49.792969 200.33398 49.792969 z M 162.35742 49.798828 C 161.79643 49.798828 161.29744 49.895701 160.86328 50.085938 C 160.42912 50.276174 160.0632 50.541345 159.76562 50.882812 C 159.47292 51.219392 159.24984 51.621535 159.09375 52.089844 C 158.94252 52.558152 158.86719 53.067909 158.86719 53.619141 C 158.86719 54.224041 158.94939 54.763156 159.11523 55.236328 C 159.28597 55.709525 159.51786 56.108719 159.81055 56.435547 C 160.10324 56.757411 160.44666 57.004947 160.8418 57.175781 C 161.24181 57.346616 161.67329 57.431641 162.13672 57.431641 C 162.67332 57.431641 163.18307 57.340566 163.66602 57.160156 C 164.14896 56.974783 164.55304 56.686153 164.875 56.291016 L 164.50781 55.814453 C 164.45417 55.731555 164.37197 55.689453 164.25977 55.689453 C 164.17195 55.689453 164.0839 55.72853 163.99609 55.806641 C 163.90828 55.879711 163.79675 55.963916 163.66016 56.056641 C 163.52356 56.149365 163.35136 56.23439 163.14648 56.3125 C 162.9416 56.385571 162.68037 56.421875 162.36328 56.421875 C 162.03156 56.421875 161.73314 56.360234 161.46484 56.238281 C 161.20142 56.111365 160.97639 55.931344 160.79102 55.697266 C 160.60565 55.458248 160.46183 55.166668 160.35938 54.820312 C 160.25692 54.469068 160.20508 54.067922 160.20508 53.619141 C 160.20508 53.189862 160.25108 52.803387 160.34375 52.457031 C 160.44131 52.110675 160.58416 51.814218 160.76953 51.570312 C 160.95978 51.326331 161.19264 51.142365 161.4707 51.015625 C 161.74876 50.883845 162.0687 50.816406 162.42969 50.816406 C 162.70287 50.816406 162.93181 50.848613 163.11719 50.912109 C 163.30745 50.970818 163.46986 51.036304 163.60156 51.109375 C 163.73329 51.182446 163.83895 51.250957 163.92188 51.314453 C 164.00969 51.37291 164.09089 51.402344 164.16406 51.402344 C 164.23723 51.402344 164.293 51.388603 164.33203 51.359375 C 164.37106 51.330147 164.41019 51.288044 164.44922 51.234375 L 164.79297 50.765625 C 164.48564 50.458223 164.13244 50.222436 163.73242 50.056641 C 163.33241 49.885806 162.87451 49.798828 162.35742 49.798828 z M 189.96484 49.798828 C 189.54532 49.798828 189.17254 49.857444 188.8457 49.974609 C 188.51887 50.091649 188.24393 50.251109 188.01953 50.451172 C 187.79512 50.646296 187.62292 50.875264 187.50586 51.138672 C 187.38877 51.397192 187.33008 51.668236 187.33008 51.951172 C 187.33008 52.2684 187.38487 52.53942 187.49219 52.763672 C 187.60439 52.983237 187.75116 53.167178 187.93164 53.318359 C 188.11215 53.469717 188.31566 53.59692 188.54492 53.699219 C 188.77909 53.796731 189.01684 53.88478 189.25586 53.962891 C 189.49978 54.041001 189.73558 54.116382 189.96484 54.189453 C 190.19901 54.257737 190.40741 54.341941 190.58789 54.439453 C 190.76839 54.532178 190.91222 54.646636 191.01953 54.783203 C 191.13173 54.914932 191.1875 55.082259 191.1875 55.287109 C 191.1875 55.45293 191.15522 55.609466 191.0918 55.755859 C 191.03326 55.902278 190.94129 56.032405 190.81445 56.144531 C 190.6876 56.256657 190.52813 56.345779 190.33789 56.414062 C 190.14764 56.477559 189.92554 56.509766 189.67188 56.509766 C 189.37431 56.509766 189.12579 56.474533 188.92578 56.40625 C 188.73064 56.337967 188.56333 56.262585 188.42188 56.179688 C 188.28528 56.09679 188.16787 56.021408 188.07031 55.953125 C 187.97275 55.884842 187.87883 55.851562 187.79102 55.851562 C 187.70323 55.851562 187.63375 55.868076 187.58008 55.902344 C 187.52643 55.936359 187.48044 55.985332 187.44141 56.048828 L 187.13281 56.546875 C 187.4255 56.810207 187.78164 57.026431 188.20117 57.197266 C 188.6207 57.363061 189.09033 57.445312 189.60742 57.445312 C 190.0611 57.445312 190.46029 57.385625 190.80664 57.263672 C 191.15298 57.141845 191.4465 56.975515 191.68555 56.765625 C 191.92458 56.550998 192.10461 56.299542 192.22656 56.011719 C 192.34852 55.719032 192.41016 55.402015 192.41016 55.060547 C 192.41016 54.762846 192.35244 54.510419 192.24023 54.300781 C 192.1329 54.08618 191.98908 53.904206 191.80859 53.757812 C 191.62809 53.611419 191.42458 53.49009 191.19531 53.392578 C 190.96603 53.295066 190.72828 53.207016 190.48438 53.128906 C 190.24533 53.046009 190.01247 52.970627 189.7832 52.902344 C 189.55392 52.829273 189.34845 52.747021 189.16797 52.654297 C 188.98748 52.561572 188.84072 52.450959 188.72852 52.324219 C 188.6212 52.197378 188.56836 52.039846 188.56836 51.849609 C 188.56836 51.698302 188.59869 51.558381 188.66211 51.431641 C 188.73039 51.299861 188.82531 51.185402 188.94727 51.087891 C 189.07409 50.990379 189.22672 50.914997 189.40234 50.861328 C 189.57797 50.802871 189.77463 50.773438 189.99414 50.773438 C 190.2478 50.773438 190.46697 50.802871 190.65234 50.861328 C 190.83772 50.914997 190.9972 50.974685 191.12891 51.042969 C 191.26547 51.106465 191.37996 51.165081 191.47266 51.21875 C 191.56533 51.272419 191.64753 51.300781 191.7207 51.300781 C 191.84266 51.300781 191.93366 51.24601 191.99219 51.138672 L 192.28516 50.664062 C 192.00222 50.395716 191.66564 50.184384 191.27539 50.033203 C 190.89001 49.876983 190.45266 49.798828 189.96484 49.798828 z M 229.23828 49.798828 C 228.81876 49.798828 228.44598 49.857444 228.11914 49.974609 C 227.7923 50.091649 227.51737 50.251109 227.29297 50.451172 C 227.06856 50.646296 226.89636 50.875264 226.7793 51.138672 C 226.66223 51.397192 226.60352 51.668236 226.60352 51.951172 C 226.60352 52.2684 226.65831 52.53942 226.76562 52.763672 C 226.87783 52.983237 227.02459 53.167178 227.20508 53.318359 C 227.38558 53.469717 227.58909 53.59692 227.81836 53.699219 C 228.05253 53.796731 228.29028 53.88478 228.5293 53.962891 C 228.77322 54.041001 229.00902 54.116382 229.23828 54.189453 C 229.47245 54.257737 229.68084 54.341941 229.86133 54.439453 C 230.04183 54.532178 230.18566 54.646636 230.29297 54.783203 C 230.40517 54.914932 230.46094 55.082259 230.46094 55.287109 C 230.46094 55.45293 230.42865 55.609466 230.36523 55.755859 C 230.3067 55.902278 230.21473 56.032405 230.08789 56.144531 C 229.96104 56.256657 229.80156 56.345779 229.61133 56.414062 C 229.42108 56.477559 229.19898 56.509766 228.94531 56.509766 C 228.64775 56.509766 228.39923 56.474533 228.19922 56.40625 C 228.0041 56.337967 227.83679 56.262585 227.69531 56.179688 C 227.55872 56.09679 227.44131 56.021408 227.34375 55.953125 C 227.24619 55.884842 227.15226 55.851562 227.06445 55.851562 C 226.97664 55.851562 226.90718 55.868076 226.85352 55.902344 C 226.79987 55.936359 226.75387 55.985332 226.71484 56.048828 L 226.40625 56.546875 C 226.69894 56.810207 227.05508 57.026431 227.47461 57.197266 C 227.89414 57.363061 228.36377 57.445312 228.88086 57.445312 C 229.33453 57.445312 229.73372 57.385625 230.08008 57.263672 C 230.42644 57.141845 230.71997 56.975515 230.95898 56.765625 C 231.19802 56.550998 231.37805 56.299542 231.5 56.011719 C 231.62195 55.719032 231.68359 55.402015 231.68359 55.060547 C 231.68359 54.762846 231.62587 54.510419 231.51367 54.300781 C 231.40634 54.08618 231.26252 53.904206 231.08203 53.757812 C 230.90153 53.611419 230.69802 53.49009 230.46875 53.392578 C 230.23947 53.295066 230.00172 53.207016 229.75781 53.128906 C 229.51877 53.046009 229.28591 52.970627 229.05664 52.902344 C 228.82735 52.829273 228.62189 52.747021 228.44141 52.654297 C 228.26091 52.561572 228.11415 52.450959 228.00195 52.324219 C 227.89464 52.197378 227.8418 52.039846 227.8418 51.849609 C 227.8418 51.698302 227.87213 51.558381 227.93555 51.431641 C 228.00383 51.299861 228.09875 51.185402 228.2207 51.087891 C 228.34753 50.990379 228.50016 50.914997 228.67578 50.861328 C 228.8514 50.802871 229.04806 50.773438 229.26758 50.773438 C 229.52124 50.773438 229.74041 50.802871 229.92578 50.861328 C 230.11116 50.914997 230.27064 50.974685 230.40234 51.042969 C 230.53891 51.106465 230.65339 51.165081 230.74609 51.21875 C 230.83877 51.272419 230.92097 51.300781 230.99414 51.300781 C 231.11609 51.300781 231.20709 51.24601 231.26562 51.138672 L 231.55859 50.664062 C 231.27566 50.395716 230.93908 50.184384 230.54883 50.033203 C 230.16345 49.876983 229.7261 49.798828 229.23828 49.798828 z M 304.55469 49.798828 C 304.13516 49.798828 303.76239 49.857444 303.43555 49.974609 C 303.10871 50.091649 302.83378 50.251109 302.60938 50.451172 C 302.38499 50.646296 302.21475 50.875264 302.09766 51.138672 C 301.98059 51.397192 301.92188 51.668236 301.92188 51.951172 C 301.92188 52.2684 301.97472 52.53942 302.08203 52.763672 C 302.19424 52.983237 302.341 53.167178 302.52148 53.318359 C 302.70199 53.469717 302.90745 53.59692 303.13672 53.699219 C 303.37086 53.796731 303.60666 53.88478 303.8457 53.962891 C 304.08962 54.041001 304.32542 54.116382 304.55469 54.189453 C 304.78885 54.257737 304.99725 54.341941 305.17773 54.439453 C 305.35824 54.532178 305.50206 54.646636 305.60938 54.783203 C 305.72158 54.914932 305.77734 55.082259 305.77734 55.287109 C 305.77734 55.45293 305.74506 55.609466 305.68164 55.755859 C 305.62311 55.902278 305.53114 56.032405 305.4043 56.144531 C 305.27747 56.256657 305.11995 56.345779 304.92969 56.414062 C 304.73944 56.477559 304.51734 56.509766 304.26367 56.509766 C 303.96611 56.509766 303.71564 56.474533 303.51562 56.40625 C 303.32051 56.337967 303.1532 56.262585 303.01172 56.179688 C 302.87513 56.09679 302.75772 56.021408 302.66016 55.953125 C 302.56259 55.884842 302.47062 55.851562 302.38281 55.851562 C 302.295 55.851562 302.22359 55.868076 302.16992 55.902344 C 302.11628 55.936359 302.07028 55.985332 302.03125 56.048828 L 301.72461 56.546875 C 302.0173 56.810207 302.37344 57.026431 302.79297 57.197266 C 303.21249 57.363061 303.68017 57.445312 304.19727 57.445312 C 304.65094 57.445312 305.05013 57.385625 305.39648 57.263672 C 305.74285 57.141845 306.03637 56.975515 306.27539 56.765625 C 306.51443 56.550998 306.69445 56.299542 306.81641 56.011719 C 306.93836 55.719032 307 55.402015 307 55.060547 C 307 54.762846 306.94423 54.510419 306.83203 54.300781 C 306.7247 54.08618 306.58088 53.904206 306.40039 53.757812 C 306.21989 53.611419 306.01442 53.49009 305.78516 53.392578 C 305.55587 53.295066 305.31812 53.207016 305.07422 53.128906 C 304.83518 53.046009 304.60231 52.970627 304.37305 52.902344 C 304.14376 52.829273 303.9383 52.747021 303.75781 52.654297 C 303.57732 52.561572 303.43056 52.450959 303.31836 52.324219 C 303.21105 52.197378 303.1582 52.039846 303.1582 51.849609 C 303.1582 51.698302 303.19049 51.558381 303.25391 51.431641 C 303.32219 51.299861 303.41711 51.185402 303.53906 51.087891 C 303.66589 50.990379 303.81657 50.914997 303.99219 50.861328 C 304.16781 50.802871 304.36447 50.773438 304.58398 50.773438 C 304.83765 50.773438 305.05877 50.802871 305.24414 50.861328 C 305.42952 50.914997 305.58705 50.974685 305.71875 51.042969 C 305.85534 51.106465 305.96983 51.165081 306.0625 51.21875 C 306.1552 51.272419 306.23933 51.300781 306.3125 51.300781 C 306.43445 51.300781 306.5235 51.24601 306.58203 51.138672 L 306.875 50.664062 C 306.59206 50.395716 306.25549 50.184384 305.86523 50.033203 C 305.47985 49.876983 305.04251 49.798828 304.55469 49.798828 z M 86.78125 49.800781 C 86.244648 49.800781 85.763268 49.895701 85.333984 50.085938 C 84.904703 50.271286 84.53976 50.529612 84.242188 50.861328 C 83.944618 51.188156 83.71567 51.574656 83.554688 52.023438 C 83.398593 52.472244 83.320312 52.955566 83.320312 53.472656 C 83.320312 54.111699 83.408362 54.677223 83.583984 55.169922 C 83.759601 55.662621 84.004202 56.077483 84.316406 56.414062 C 84.633491 56.745779 85.006263 57.000159 85.435547 57.175781 C 85.869709 57.346616 86.343257 57.431641 86.855469 57.431641 C 87.12377 57.431641 87.394787 57.408257 87.667969 57.359375 C 87.941148 57.315532 88.203364 57.247021 88.457031 57.154297 C 88.715571 57.061824 88.957237 56.944341 89.181641 56.802734 C 89.406039 56.65629 89.598783 56.486039 89.759766 56.291016 L 89.394531 55.814453 C 89.335999 55.731555 89.251845 55.691406 89.144531 55.691406 C 89.061583 55.691406 88.962768 55.72853 88.845703 55.806641 C 88.733502 55.879711 88.592609 55.960891 88.421875 56.048828 C 88.251124 56.136513 88.045658 56.218765 87.806641 56.296875 C 87.572484 56.369946 87.291685 56.408203 86.964844 56.408203 C 86.613615 56.408203 86.29661 56.350407 86.013672 56.238281 C 85.730726 56.121217 85.486126 55.948041 85.28125 55.71875 C 85.076352 55.484596 84.915893 55.195965 84.798828 54.849609 C 84.681814 54.503253 84.619202 54.095262 84.609375 53.626953 L 89.541016 53.626953 C 89.662994 53.626953 89.74517 53.593674 89.789062 53.525391 C 89.832955 53.457057 89.855469 53.320085 89.855469 53.115234 C 89.855469 52.588393 89.777188 52.118761 89.621094 51.708984 C 89.469867 51.29437 89.257552 50.947969 88.984375 50.669922 C 88.711193 50.387037 88.387341 50.173737 88.011719 50.027344 C 87.636094 49.876163 87.225168 49.800781 86.78125 49.800781 z M 183.02148 49.800781 C 182.48488 49.800781 182.00155 49.895701 181.57227 50.085938 C 181.14298 50.271286 180.77999 50.529612 180.48242 50.861328 C 180.18485 51.188156 179.9559 51.574656 179.79492 52.023438 C 179.63883 52.472244 179.56055 52.955566 179.56055 53.472656 C 179.56055 54.111699 179.6486 54.677223 179.82422 55.169922 C 179.99983 55.662621 180.24443 56.077483 180.55664 56.414062 C 180.87373 56.745779 181.2465 57.000159 181.67578 57.175781 C 182.10994 57.346616 182.58349 57.431641 183.0957 57.431641 C 183.364 57.431641 183.63502 57.408257 183.9082 57.359375 C 184.18138 57.315532 184.4436 57.247021 184.69727 57.154297 C 184.95581 57.061824 185.19747 56.944341 185.42188 56.802734 C 185.64627 56.65629 185.83902 56.486039 186 56.291016 L 185.63477 55.814453 C 185.57623 55.731555 185.49208 55.691406 185.38477 55.691406 C 185.30182 55.691406 185.203 55.72853 185.08594 55.806641 C 184.97373 55.879711 184.83089 55.960891 184.66016 56.048828 C 184.4894 56.136513 184.28589 56.218765 184.04688 56.296875 C 183.81272 56.369946 183.53192 56.408203 183.20508 56.408203 C 182.85385 56.408203 182.53684 56.350407 182.25391 56.238281 C 181.97096 56.121217 181.72636 55.948041 181.52148 55.71875 C 181.31659 55.484596 181.15613 55.195965 181.03906 54.849609 C 180.92205 54.503253 180.85944 54.095262 180.84961 53.626953 L 185.78125 53.626953 C 185.9032 53.626953 185.9854 53.593674 186.0293 53.525391 C 186.07319 53.457057 186.0957 53.320085 186.0957 53.115234 C 186.0957 52.588393 186.01742 52.118761 185.86133 51.708984 C 185.7101 51.29437 185.49779 50.947969 185.22461 50.669922 C 184.95143 50.387037 184.62758 50.173737 184.25195 50.027344 C 183.87633 49.876163 183.4654 49.800781 183.02148 49.800781 z M 209.01562 49.800781 C 208.49366 49.800781 208.03087 49.909442 207.63086 50.128906 C 207.23572 50.348421 206.8786 50.63608 206.55664 50.992188 L 206.45312 50.1875 C 206.40434 50.007091 206.28694 49.917969 206.10156 49.917969 L 205.32617 49.917969 L 205.32617 57.330078 L 206.62891 57.330078 L 206.62891 51.871094 C 206.91184 51.554117 207.21906 51.302636 207.55078 51.117188 C 207.88738 50.931739 208.24939 50.839844 208.63477 50.839844 C 209.16161 50.839844 209.55102 50.994477 209.80469 51.306641 C 210.06323 51.613967 210.19336 52.048367 210.19336 52.609375 L 210.19336 57.330078 L 211.49609 57.330078 L 211.49609 52.609375 C 211.49609 52.189847 211.4413 51.807293 211.33398 51.460938 C 211.22667 51.114607 211.06914 50.820077 210.85938 50.576172 C 210.65449 50.327454 210.39424 50.137639 210.08203 50.005859 C 209.77471 49.869292 209.42052 49.800781 209.01562 49.800781 z M 216.40625 49.800781 C 215.86965 49.800781 215.38827 49.895701 214.95898 50.085938 C 214.5297 50.271286 214.16476 50.529612 213.86719 50.861328 C 213.56962 51.188156 213.34067 51.574656 213.17969 52.023438 C 213.02359 52.472244 212.94531 52.955566 212.94531 53.472656 C 212.94531 54.111699 213.03336 54.677223 213.20898 55.169922 C 213.3846 55.662621 213.6292 56.077483 213.94141 56.414062 C 214.25849 56.745779 214.63127 57.000159 215.06055 57.175781 C 215.49471 57.346616 215.96826 57.431641 216.48047 57.431641 C 216.74877 57.431641 217.01979 57.408257 217.29297 57.359375 C 217.56615 57.315532 217.82836 57.247021 218.08203 57.154297 C 218.34057 57.061824 218.58224 56.944341 218.80664 56.802734 C 219.03104 56.65629 219.22378 56.486039 219.38477 56.291016 L 219.01953 55.814453 C 218.961 55.731555 218.8788 55.691406 218.77148 55.691406 C 218.68854 55.691406 218.58777 55.72853 218.4707 55.806641 C 218.3585 55.879711 218.21761 55.960891 218.04688 56.048828 C 217.87615 56.136513 217.67068 56.218765 217.43164 56.296875 C 217.19749 56.369946 216.91668 56.408203 216.58984 56.408203 C 216.23861 56.408203 215.92161 56.350407 215.63867 56.238281 C 215.35573 56.121217 215.11113 55.948041 214.90625 55.71875 C 214.70135 55.484596 214.54089 55.195965 214.42383 54.849609 C 214.30681 54.503253 214.2442 54.095262 214.23438 53.626953 L 219.16602 53.626953 C 219.28797 53.626953 219.37017 53.593674 219.41406 53.525391 C 219.45798 53.457057 219.48047 53.320085 219.48047 53.115234 C 219.48047 52.588393 219.40219 52.118761 219.24609 51.708984 C 219.09487 51.29437 218.88256 50.947969 218.60938 50.669922 C 218.3362 50.387037 218.01234 50.173737 217.63672 50.027344 C 217.2611 49.876163 216.85212 49.800781 216.4082 49.800781 L 216.40625 49.800781 z M 286.26562 49.800781 C 285.72902 49.800781 285.24569 49.895701 284.81641 50.085938 C 284.38712 50.271286 284.02413 50.529612 283.72656 50.861328 C 283.42899 51.188156 283.19809 51.574656 283.03711 52.023438 C 282.88101 52.472244 282.80273 52.955566 282.80273 53.472656 C 282.80273 54.111699 282.89078 54.677223 283.06641 55.169922 C 283.24203 55.662621 283.48662 56.077483 283.79883 56.414062 C 284.11591 56.745779 284.48868 57.000159 284.91797 57.175781 C 285.35213 57.346616 285.82568 57.431641 286.33789 57.431641 C 286.60619 57.431641 286.87721 57.408257 287.15039 57.359375 C 287.42357 57.315532 287.68774 57.247021 287.94141 57.154297 C 288.19995 57.061824 288.43966 56.944341 288.66406 56.802734 C 288.88846 56.65629 289.0812 56.486039 289.24219 56.291016 L 288.87695 55.814453 C 288.8184 55.731555 288.73622 55.691406 288.62891 55.691406 C 288.54596 55.691406 288.44519 55.72853 288.32812 55.806641 C 288.21593 55.879711 288.07503 55.960891 287.9043 56.048828 C 287.73354 56.136513 287.52808 56.218765 287.28906 56.296875 C 287.05491 56.369946 286.7741 56.408203 286.44727 56.408203 C 286.09603 56.408203 285.77903 56.350407 285.49609 56.238281 C 285.21315 56.121217 284.9705 55.948041 284.76562 55.71875 C 284.56073 55.484596 284.39831 55.195965 284.28125 54.849609 C 284.16424 54.503253 284.10162 54.095262 284.0918 53.626953 L 289.02344 53.626953 C 289.14542 53.626953 289.22759 53.593674 289.27148 53.525391 C 289.31538 53.457057 289.33789 53.320085 289.33789 53.115234 C 289.33789 52.588393 289.25961 52.118761 289.10352 51.708984 C 288.95229 51.29437 288.73998 50.947969 288.4668 50.669922 C 288.19362 50.387037 287.86976 50.173737 287.49414 50.027344 C 287.11852 49.876163 286.70954 49.800781 286.26562 49.800781 z M 155.79492 49.917969 L 155.79492 57.330078 L 157.09766 57.330078 L 157.09766 49.917969 L 155.79492 49.917969 z M 194.24023 49.917969 L 194.24023 57.330078 L 195.54297 57.330078 L 195.54297 49.917969 L 194.24023 49.917969 z M 267.10547 49.917969 L 269.60156 53.53125 L 267.00391 57.330078 L 268.16602 57.330078 C 268.26358 57.330078 268.34086 57.303669 268.39453 57.25 C 268.45306 57.191543 268.50591 57.126877 268.55469 57.058594 L 270.28125 54.535156 C 270.34956 54.422854 270.40141 54.295651 270.43555 54.154297 L 272.30078 57.058594 C 272.33981 57.126877 272.38873 57.191543 272.44727 57.25 C 272.51069 57.303669 272.59581 57.330078 272.70312 57.330078 L 273.95508 57.330078 L 271.35742 53.458984 L 273.85352 49.917969 L 272.65234 49.917969 C 272.57917 49.917969 272.51753 49.938579 272.46875 49.982422 C 272.41997 50.021477 272.37105 50.076248 272.32227 50.144531 L 270.72852 52.486328 C 270.64559 52.622945 270.58103 52.757964 270.53711 52.894531 L 268.72266 50.115234 C 268.68363 50.05199 268.64058 50.003018 268.5918 49.96875 C 268.54302 49.934482 268.46474 49.917969 268.35742 49.917969 L 267.10547 49.917969 z M 200.33398 50.730469 C 200.86083 50.730469 201.26002 50.864516 201.5332 51.132812 C 201.81126 51.401083 201.95117 51.761174 201.95117 52.214844 C 201.95117 52.434283 201.91594 52.636817 201.84766 52.822266 C 201.77937 53.0027 201.67761 53.159236 201.54102 53.291016 C 201.40442 53.422795 201.23222 53.524585 201.02734 53.597656 C 200.82734 53.670727 200.59741 53.707031 200.33398 53.707031 C 200.07544 53.707031 199.84454 53.670727 199.64453 53.597656 C 199.44453 53.524585 199.27722 53.422795 199.14062 53.291016 C 199.00403 53.159211 198.89934 53.002675 198.82617 52.822266 C 198.75789 52.636842 198.72266 52.434308 198.72266 52.214844 C 198.72266 51.761174 198.85963 51.401083 199.13281 51.132812 C 199.41087 50.864516 199.81202 50.730469 200.33398 50.730469 z M 86.810547 50.757812 C 87.108127 50.757812 87.372296 50.809558 87.601562 50.912109 C 87.835714 51.009571 88.032377 51.150489 88.193359 51.335938 C 88.354342 51.516423 88.477624 51.734625 88.560547 51.988281 C 88.64347 52.237075 88.683594 52.512015 88.683594 52.814453 L 84.652344 52.814453 C 84.74015 52.170548 84.965184 51.667636 85.326172 51.306641 C 85.687162 50.940808 86.181258 50.757812 86.810547 50.757812 z M 183.05078 50.757812 C 183.34836 50.757812 183.61253 50.809558 183.8418 50.912109 C 184.07595 51.009571 184.27261 51.150489 184.43359 51.335938 C 184.59458 51.516423 184.71786 51.734625 184.80078 51.988281 C 184.8837 52.237075 184.92383 52.512015 184.92383 52.814453 L 180.89258 52.814453 C 180.98038 52.170548 181.20542 51.667636 181.56641 51.306641 C 181.92739 50.940808 182.42149 50.757812 183.05078 50.757812 z M 216.43555 50.757812 C 216.73313 50.757812 216.9973 50.809558 217.22656 50.912109 C 217.46072 51.009571 217.65738 51.150489 217.81836 51.335938 C 217.97934 51.516423 218.10262 51.734625 218.18555 51.988281 C 218.26847 52.237075 218.31055 52.512015 218.31055 52.814453 L 214.27734 52.814453 C 214.36515 52.170548 214.59018 51.667636 214.95117 51.306641 C 215.31216 50.940808 215.80626 50.757812 216.43555 50.757812 z M 286.29297 50.757812 C 286.59055 50.757812 286.85472 50.809558 287.08398 50.912109 C 287.31814 51.009571 287.51675 51.150489 287.67773 51.335938 C 287.83872 51.516423 287.96005 51.734625 288.04297 51.988281 C 288.12589 52.237075 288.16797 52.512015 288.16797 52.814453 L 284.13477 52.814453 C 284.22257 52.170548 284.4476 51.667636 284.80859 51.306641 C 285.16958 50.940808 285.66368 50.757812 286.29297 50.757812 z M 94.859375 50.839844 C 95.156947 50.839844 95.422096 50.889636 95.65625 50.992188 C 95.890402 51.094512 96.089017 51.257918 96.25 51.482422 C 96.410983 51.701937 96.532312 51.985675 96.615234 52.332031 C 96.703045 52.678362 96.748047 53.093224 96.748047 53.576172 C 96.748047 54.488399 96.562148 55.190895 96.191406 55.683594 C 95.82066 56.176293 95.28841 56.421875 94.595703 56.421875 C 94.244472 56.421875 93.924532 56.356389 93.636719 56.224609 C 93.353783 56.092905 93.095482 55.866887 92.861328 55.544922 L 92.861328 51.958984 C 93.129629 51.602802 93.42315 51.325883 93.740234 51.130859 C 94.062197 50.935836 94.434972 50.839844 94.859375 50.839844 z M 142.71289 50.839844 C 143.01046 50.839844 143.27756 50.889636 143.51172 50.992188 C 143.74587 51.094512 143.94253 51.257918 144.10352 51.482422 C 144.2645 51.701937 144.38778 51.985675 144.4707 52.332031 C 144.55851 52.678362 144.60156 53.093224 144.60156 53.576172 C 144.60156 54.488399 144.41567 55.190895 144.04492 55.683594 C 143.67418 56.176293 143.14486 56.421875 142.45703 56.421875 C 142.1058 56.421875 141.78781 56.356389 141.5 56.224609 C 141.21707 56.092905 140.95584 55.866887 140.7168 55.544922 L 140.7168 51.958984 C 140.9851 51.602802 141.27667 51.325883 141.59375 51.130859 C 141.91571 50.935836 142.28848 50.839844 142.71289 50.839844 z M 278.54102 50.839844 C 278.83859 50.839844 279.10569 50.889636 279.33984 50.992188 C 279.574 51.094512 279.77066 51.257918 279.93164 51.482422 C 280.09262 51.701937 280.21395 51.985675 280.29688 52.332031 C 280.38469 52.678362 280.42969 53.093224 280.42969 53.576172 C 280.42969 54.488399 280.24379 55.190895 279.87305 55.683594 C 279.50231 56.176293 278.97298 56.421875 278.28516 56.421875 C 277.93392 56.421875 277.61398 56.356389 277.32617 56.224609 C 277.04324 56.092905 276.78396 55.866887 276.54492 55.544922 L 276.54492 51.958984 C 276.81323 51.602802 277.10479 51.325883 277.42188 51.130859 C 277.74384 50.935836 278.11661 50.839844 278.54102 50.839844 z M 104.92773 52.164062 L 108.02344 55.287109 C 107.69172 55.618776 107.30721 55.885875 106.87305 56.085938 C 106.43888 56.286 105.9487 56.384766 105.40234 56.384766 C 105.14867 56.384766 104.90016 56.344616 104.65625 56.261719 C 104.41232 56.173832 104.1961 56.046655 104.00586 55.880859 C 103.81562 55.715089 103.66201 55.512556 103.54492 55.273438 C 103.42786 55.029532 103.36914 54.748718 103.36914 54.431641 C 103.36914 53.973083 103.49732 53.551401 103.75586 53.166016 C 104.01928 52.775767 104.41064 52.44211 104.92773 52.164062 z M 136.14648 53.992188 L 136.14648 55.537109 C 136.00013 55.693204 135.8475 55.831172 135.69141 55.953125 C 135.54018 56.075078 135.37972 56.179641 135.20898 56.267578 C 135.04311 56.350476 134.86406 56.417915 134.67383 56.466797 C 134.48357 56.510639 134.27419 56.53125 134.04492 56.53125 C 133.87418 56.53125 133.71666 56.511711 133.57031 56.472656 C 133.42396 56.428814 133.29677 56.363328 133.18945 56.275391 C 133.08214 56.182666 132.99701 56.065182 132.93359 55.923828 C 132.87017 55.782247 132.83789 55.614945 132.83789 55.419922 C 132.83789 55.214971 132.89661 55.029077 133.01367 54.863281 C 133.13563 54.697436 133.32837 54.553593 133.5918 54.431641 C 133.85522 54.309688 134.19766 54.211743 134.61719 54.138672 C 135.03672 54.061318 135.54647 54.012345 136.14648 53.992188 z M 199.21289 56.707031 C 199.45192 56.745582 199.70337 56.771991 199.9668 56.787109 C 200.23022 56.80122 200.48852 56.816913 200.74219 56.832031 C 200.99586 56.841858 201.23753 56.861397 201.4668 56.890625 C 201.69607 56.919853 201.8986 56.965801 202.07422 57.029297 C 202.24983 57.088006 202.38974 57.17303 202.49219 57.285156 C 202.59464 57.397257 202.64453 57.546973 202.64453 57.732422 C 202.64453 57.927521 202.59464 58.104617 202.49219 58.265625 C 202.38974 58.426507 202.24005 58.566428 202.04492 58.683594 C 201.85467 58.800507 201.62181 58.889629 201.34375 58.953125 C 201.06569 59.016621 200.74967 59.048828 200.39844 59.048828 C 200.03745 59.048828 199.72338 59.016621 199.45508 58.953125 C 199.19166 58.894668 198.9725 58.812417 198.79688 58.705078 C 198.62126 58.602779 198.4882 58.478425 198.40039 58.332031 C 198.31747 58.190501 198.27734 58.036889 198.27734 57.871094 C 198.27734 57.607686 198.36247 57.379689 198.5332 57.189453 C 198.70882 56.999267 198.93483 56.838811 199.21289 56.707031 z "
       transform="matrix(0.26458333,0,0,0.26458333,0,281.12497)"
       id="path909" />
    <path
       inkscape:connector-curvature="0"
       style="opacity:1;fill:#6c825f;fill-opacity:1;stroke:none;stroke-width:2.74507713;stroke-linecap:round;stroke-linejoin:round;stroke-miterlimit:4;stroke-dasharray:none;stroke-opacity:0.51499999;paint-order:stroke fill markers"
       d="m 11.812378,290.18062 -1.9360653,-1.11799 v 2.23566 z"
       id="path916" />
    <path
       inkscape:connector-curvature="0"
       style="opacity:1;fill:#205450;fill-opacity:1;stroke:none;stroke-width:2.74507713;stroke-linecap:round;stroke-linejoin:round;stroke-miterlimit:4;stroke-dasharray:none;stroke-opacity:0.51499999;paint-order:stroke fill markers"
       d="m 11.812378,287.94497 -1.9360653,1.11766 1.9360653,1.11799 v -3.3e-4 l 1.936065,-1.11767 z"
       id="path914" />
    <path
       inkscape:connector-curvature="0"
       style="opacity:1;fill:#0e1f2f;fill-opacity:1;stroke:none;stroke-width:2.74507713;stroke-linecap:round;stroke-linejoin:round;stroke-miterlimit:4;stroke-dasharray:none;stroke-opacity:0.51499999;paint-order:stroke fill markers"
       d="m 9.8763127,286.82698 v 2.23565 l 1.9360653,-1.11766 z"
       id="path882" />
    <path
       inkscape:connector-curvature="0"
       style="opacity:1;fill:#cb5833;fill-opacity:1;stroke:none;stroke-width:2.74507689;stroke-linecap:round;stroke-linejoin:round;stroke-miterlimit:4;stroke-dasharray:none;stroke-opacity:0.51499999;paint-order:stroke fill markers"
       d="M 3.4370295,287.078 0.96803254,285.65268 -2.1682602e-8,285.09369 v 3.96895 z"
       id="path893" />
    <path
       inkscape:connector-curvature="0"
       style="opacity:1;fill:#c03035;fill-opacity:1;stroke:none;stroke-width:2.74507689;stroke-linecap:round;stroke-linejoin:round;stroke-miterlimit:4;stroke-dasharray:none;stroke-opacity:0.51499999;paint-order:stroke fill markers"
       d="M 3.4373527,283.10937 -2.1682602e-8,285.09369 0.96803254,285.65268 3.4370295,287.078 h 3.294e-4 l 1.500965,-0.86665 1.9360651,-1.11766 z"
       id="path891" />
    <path
       inkscape:connector-curvature="0"
       style="opacity:1;fill:#702340;fill-opacity:1;stroke:none;stroke-width:2.74507689;stroke-linecap:round;stroke-linejoin:round;stroke-miterlimit:4;stroke-dasharray:none;stroke-opacity:0.51499999;paint-order:stroke fill markers"
       d="m -2.1682602e-8,281.12506 v 3.96863 L 3.4373527,283.10937 Z"
       id="path853" />
    <path
       inkscape:connector-curvature="0"
       style="opacity:1;fill:#0e76bc;fill-opacity:1;stroke:none;stroke-width:1.09863245;stroke-linecap:round;stroke-linejoin:round;stroke-miterlimit:4;stroke-dasharray:none;stroke-opacity:0.51499999;paint-order:stroke fill markers"
       d="m 5.5024662,287.47833 -2.758636,1.5843 2.758636,1.58398 1.3793171,-0.79199 1.3796401,-0.79199 -1.3796401,-0.79199 z"
       id="path926" />
    <path
       inkscape:connector-curvature="0"
       style="opacity:1;fill:#283891;fill-opacity:1;stroke:none;stroke-width:1.09863245;stroke-linecap:round;stroke-linejoin:round;stroke-miterlimit:4;stroke-dasharray:none;stroke-opacity:0.51499999;paint-order:stroke fill markers"
       d="m 8.2614234,289.06263 -1.3796401,0.79199 -1.3793171,0.79199 2.7589572,1.58398 z"
       id="path922" />
    <path
       inkscape:connector-curvature="0"
       style="opacity:1;fill:#00aeef;fill-opacity:1;stroke:none;stroke-width:1.09863245;stroke-linecap:round;stroke-linejoin:round;stroke-miterlimit:4;stroke-dasharray:none;stroke-opacity:0.51499999;paint-order:stroke fill markers"
       d="m 8.2614234,285.89436 -2.7589572,1.58397 1.3793171,0.79231 1.3796401,0.79199 z"
       id="path870" />
    <path
       inkscape:connector-curvature="0"
       id="path901"
       d="M 3.4370295,295.01542 0.96803254,293.5901 -2.1682602e-8,293.03111 v 3.96895 z"
       style="opacity:1;fill:#fcb040;fill-opacity:1;stroke:none;stroke-width:2.74507689;stroke-linecap:round;stroke-linejoin:round;stroke-miterlimit:4;stroke-dasharray:none;stroke-opacity:0.51499999;paint-order:stroke fill markers" />
    <path
       inkscape:connector-curvature="0"
       id="path903"
       d="M 3.4373527,291.04679 -2.1682602e-8,293.03111 0.96803254,293.5901 3.4370295,295.01542 h 3.294e-4 l 1.500965,-0.86665 1.9360651,-1.11766 z"
       style="opacity:1;fill:#b1ad4e;fill-opacity:1;stroke:none;stroke-width:2.74507689;stroke-linecap:round;stroke-linejoin:round;stroke-miterlimit:4;stroke-dasharray:none;stroke-opacity:0.51499999;paint-order:stroke fill markers" />
    <path
       inkscape:connector-curvature="0"
       id="path905"
       d="m -2.1682602e-8,289.06248 v 3.96863 L 3.4373527,291.04679 Z"
       style="opacity:1;fill:#d4c730;fill-opacity:1;stroke:none;stroke-width:2.74507689;stroke-linecap:round;stroke-linejoin:round;stroke-miterlimit:4;stroke-dasharray:none;stroke-opacity:0.51499999;paint-order:stroke fill markers" />
  </g>
</svg>
